<?xml version="1.0" encoding="UTF-8" standalone="no"?>
<svg
   xmlns:dc="http://purl.org/dc/elements/1.1/"
   xmlns:cc="http://creativecommons.org/ns#"
   xmlns:rdf="http://www.w3.org/1999/02/22-rdf-syntax-ns#"
   xmlns:svg="http://www.w3.org/2000/svg"
   xmlns="http://www.w3.org/2000/svg"
   xmlns:sodipodi="http://sodipodi.sourceforge.net/DTD/sodipodi-0.dtd"
   xmlns:inkscape="http://www.inkscape.org/namespaces/inkscape"
   width="744.094488189"
   height="1052.36220472"
   id="svg2"
   version="1.1"
   inkscape:version="0.48.4 r9939"
   sodipodi:docname="generators_day.dxf">
  <metadata
     id="metadata55">
    <rdf:RDF>
      <cc:Work
         rdf:about="">
        <dc:format>image/svg+xml</dc:format>
        <dc:type
           rdf:resource="http://purl.org/dc/dcmitype/StillImage" />
        <dc:title></dc:title>
      </cc:Work>
    </rdf:RDF>
  </metadata>
  <sodipodi:namedview
     pagecolor="#ffffff"
     bordercolor="#666666"
     borderopacity="1"
     objecttolerance="10"
     gridtolerance="10"
     guidetolerance="10"
     inkscape:pageopacity="0"
     inkscape:pageshadow="2"
     inkscape:window-width="640"
     inkscape:window-height="480"
     id="namedview53"
     showgrid="false"
     inkscape:zoom="0.22425739"
     inkscape:cx="372.04724"
     inkscape:cy="347.81462"
     inkscape:window-x="0"
     inkscape:window-y="0"
     inkscape:window-maximized="0"
     inkscape:current-layer="g23" />
  <desc
     id="desc4">C:\Users\nek\Desktop\simulationProc2\Swarm_Eksarxeia2\map\generators_day.dxf - scale = 1.000000</desc>
  <defs
     id="defs6">
    <marker
       refY="0.0"
       refX="0.0"
       style="overflow:visible"
       id="DistanceX"
       orient="auto">
      <path
         style="stroke:#000000; stroke-width:0.5"
         d="M 3,-3 L -3,3 M 0,-5 L  0,5"
         id="path9" />
    </marker>
    <pattern
       height="8"
       width="8"
       patternUnits="userSpaceOnUse"
       y="0"
       x="0"
       id="Hatch">
      <path
         linecap="square"
         stroke="#000000"
         stroke-width="0.25"
         d="M8 4 l-4,4"
         id="path12" />
      <path
         linecap="square"
         stroke="#000000"
         stroke-width="0.25"
         d="M6 2 l-4,4"
         id="path14" />
      <path
         linecap="square"
         stroke="#000000"
         stroke-width="0.25"
         d="M4 0 l-4,4"
         id="path16" />
    </pattern>
    <symbol
       id="*Model_Space" />
    <symbol
       id="*Paper_Space" />
    <symbol
       id="*Paper_Space0" />
  </defs>
  <g
     inkscape:label="0"
     inkscape:groupmode="layer"
     id="g21" />
  <g
     inkscape:label="GENERATORMORNING"
     inkscape:groupmode="layer"
     id="g23">
    <path
       inkscape:dxfpoint="1"
       style="stroke:#ff0000;fill:#ff0000"
       d="m 622.727125843,-598.877628398 2.9375,-6.34375 0.8125,1.90625 6.84375,-6.84375 0,0 0.6875,0.6875 -6.84375,6.84375 1.90625,0.8125 z"
       id="path25" />
    <path
       inkscape:dxfpoint="1"
       style="stroke:#ff0000;fill:#ff0000"
       d="m 309.946476912,-603.674722371 2.9375,-6.34375 0.8125,1.90625 6.84375,-6.84375 0,0 0.6875,0.6875 -6.84375,6.84375 1.90625,0.8125 z"
       id="path27" />
    <path
       inkscape:dxfpoint="1"
       style="stroke:#ff0000;fill:#ff0000"
       d="m 1054.8054755,-602.165317953 2.9375,-6.34375 0.8125,1.90625 6.84375,-6.84375 0,0 0.6875,0.6875 -6.84375,6.84375 1.90625,0.8125 z"
       id="path29" />
    <path
       inkscape:dxfpoint="1"
       style="stroke:#ff0000;fill:#ff0000"
       d="m 191.333924682,-56.4543056809 2.9375,-6.34375 0.8125,1.90625 6.84375,-6.84375 0,0 0.6875,0.6875 -6.84375,6.84375 1.90625,0.8125 z"
       id="path31" />
    <path
       inkscape:dxfpoint="1"
       style="stroke:#ff0000;fill:#ff0000"
       d="m 1218.57800806,-283.692349185 2.9375,-6.34375 0.8125,1.90625 6.84375,-6.84375 0,0 0.6875,0.6875 -6.84375,6.84375 1.90625,0.8125 z"
       id="path33" />
    <path
       inkscape:dxfpoint="1"
       style="stroke:#ff0000;fill:#ff0000"
       d="m 1217.91088468,-283.692349185 2.9375,-6.34375 0.8125,1.90625 6.84375,-6.84375 0,0 0.6875,0.6875 -6.84375,6.84375 1.90625,0.8125 z"
       id="path35" />
    <path
       inkscape:dxfpoint="1"
       style="stroke:#ff0000;fill:#ff0000"
       d="m 744.033319466,654.803855748 2.9375,-6.34375 0.8125,1.90625 6.84375,-6.84375 0,0 0.6875,0.6875 -6.84375,6.84375 1.90625,0.8125 z"
       id="path37" />
    <path
       inkscape:dxfpoint="1"
       style="stroke:#ff0000;fill:#ff0000"
       d="m 387.996328325,858.899129463 2.9375,-6.34375 0.8125,1.90625 6.84375,-6.84375 0,0 0.6875,0.6875 -6.84375,6.84375 1.90625,0.8125 z"
       id="path39" />
    <path
       inkscape:dxfpoint="1"
       style="stroke:#ff0000;fill:#ff0000"
       d="m 553.504839854,868.864533429 2.9375,-6.34375 0.8125,1.90625 6.84375,-6.84375 0,0 0.6875,0.6875 -6.84375,6.84375 1.90625,0.8125 z"
       id="path41" />
    <path
       inkscape:dxfpoint="1"
       style="stroke:#ff0000;fill:#ff0000"
       d="m 933.704032147,867.519535109 2.9375,-6.34375 0.8125,1.90625 6.84375,-6.84375 0,0 0.6875,0.6875 -6.84375,6.84375 1.90625,0.8125 z"
       id="path43" />
    <path
       inkscape:dxfpoint="1"
       style="stroke:#ff0000;fill:#ff0000"
       d="m 1217.36548308,596.773875244 2.9375,-6.34375 0.8125,1.90625 6.84375,-6.84375 0,0 0.6875,0.6875 -6.84375,6.84375 1.90625,0.8125 z"
       id="path45" />
    <path
       inkscape:dxfpoint="1"
       style="stroke:#ff0000;fill:#ff0000"
       d="m 1218.12246841,827.811550912 2.9375,-6.34375 0.8125,1.90625 6.84375,-6.84375 0,0 0.6875,0.6875 -6.84375,6.84375 1.90625,0.8125 z"
       id="path47" />
    <path
       inkscape:dxfpoint="1"
       style="stroke:#ff0000;fill:#ff0000"
       d="m 187.175414364,284.629051433 2.9375,-6.34375 0.8125,1.90625 6.84375,-6.84375 0,0 0.6875,0.6875 -6.84375,6.84375 1.90625,0.8125 z"
       id="path49" />
    <path
       inkscape:dxfpoint="1"
       style="stroke:#ff0000;fill:#ff0000"
       d="m 1218.22528658,117.546689964 2.9375,-6.34375 0.8125,1.90625 6.84375,-6.84375 0,0 0.6875,0.6875 -6.84375,6.84375 1.90625,0.8125 z"
       id="path51" />
  </g>
</svg>
