  0
SECTION
  2
HEADER
  9
$ACADVER
  1
AC1018
  9
$ACADMAINTVER
 70
     0
  9
$DWGCODEPAGE
  3
ANSI_1253
  9
$INSBASE
 10
0.0
 20
0.0
 30
0.0
  9
$EXTMIN
 10
53.57555444768671
 20
73.39850544557828
 30
0.0
  9
$EXTMAX
 10
343.7300541705652
 20
467.3629998999663
 30
0.0
  9
$LIMMIN
 10
0.0
 20
0.0
  9
$LIMMAX
 10
12.0
 20
9.0
  9
$ORTHOMODE
 70
     0
  9
$REGENMODE
 70
     1
  9
$FILLMODE
 70
     1
  9
$QTEXTMODE
 70
     0
  9
$MIRRTEXT
 70
     1
  9
$LTSCALE
 40
1.0
  9
$ATTMODE
 70
     1
  9
$TEXTSIZE
 40
0.2
  9
$TRACEWID
 40
0.05
  9
$TEXTSTYLE
  7
Standard
  9
$CLAYER
  8
0
  9
$CELTYPE
  6
ByLayer
  9
$CECOLOR
 62
   256
  9
$CELTSCALE
 40
1.0
  9
$DISPSILH
 70
     0
  9
$DIMSCALE
 40
1.0
  9
$DIMASZ
 40
0.18
  9
$DIMEXO
 40
0.0625
  9
$DIMDLI
 40
0.38
  9
$DIMRND
 40
0.0
  9
$DIMDLE
 40
0.0
  9
$DIMEXE
 40
0.18
  9
$DIMTP
 40
0.0
  9
$DIMTM
 40
0.0
  9
$DIMTXT
 40
0.18
  9
$DIMCEN
 40
0.09
  9
$DIMTSZ
 40
0.0
  9
$DIMTOL
 70
     0
  9
$DIMLIM
 70
     0
  9
$DIMTIH
 70
     1
  9
$DIMTOH
 70
     1
  9
$DIMSE1
 70
     0
  9
$DIMSE2
 70
     0
  9
$DIMTAD
 70
     0
  9
$DIMZIN
 70
     0
  9
$DIMBLK
  1

  9
$DIMASO
 70
     1
  9
$DIMSHO
 70
     1
  9
$DIMPOST
  1

  9
$DIMAPOST
  1

  9
$DIMALT
 70
     0
  9
$DIMALTD
 70
     2
  9
$DIMALTF
 40
25.4
  9
$DIMLFAC
 40
1.0
  9
$DIMTOFL
 70
     0
  9
$DIMTVP
 40
0.0
  9
$DIMTIX
 70
     0
  9
$DIMSOXD
 70
     0
  9
$DIMSAH
 70
     0
  9
$DIMBLK1
  1

  9
$DIMBLK2
  1

  9
$DIMSTYLE
  2
Standard
  9
$DIMCLRD
 70
     0
  9
$DIMCLRE
 70
     0
  9
$DIMCLRT
 70
     0
  9
$DIMTFAC
 40
1.0
  9
$DIMGAP
 40
0.09
  9
$DIMJUST
 70
     0
  9
$DIMSD1
 70
     0
  9
$DIMSD2
 70
     0
  9
$DIMTOLJ
 70
     1
  9
$DIMTZIN
 70
     0
  9
$DIMALTZ
 70
     0
  9
$DIMALTTZ
 70
     0
  9
$DIMUPT
 70
     0
  9
$DIMDEC
 70
     4
  9
$DIMTDEC
 70
     4
  9
$DIMALTU
 70
     2
  9
$DIMALTTD
 70
     2
  9
$DIMTXSTY
  7
Standard
  9
$DIMAUNIT
 70
     0
  9
$DIMADEC
 70
     0
  9
$DIMALTRND
 40
0.0
  9
$DIMAZIN
 70
     0
  9
$DIMDSEP
 70
    46
  9
$DIMATFIT
 70
     3
  9
$DIMFRAC
 70
     0
  9
$DIMLDRBLK
  1

  9
$DIMLUNIT
 70
     2
  9
$DIMLWD
 70
    -2
  9
$DIMLWE
 70
    -2
  9
$DIMTMOVE
 70
     2
  9
$LUNITS
 70
     2
  9
$LUPREC
 70
     4
  9
$SKETCHINC
 40
0.1
  9
$FILLETRAD
 40
0.5
  9
$AUNITS
 70
     0
  9
$AUPREC
 70
     0
  9
$MENU
  1
.
  9
$ELEVATION
 40
0.0
  9
$PELEVATION
 40
0.0
  9
$THICKNESS
 40
0.0
  9
$LIMCHECK
 70
     0
  9
$CHAMFERA
 40
0.5
  9
$CHAMFERB
 40
0.5
  9
$CHAMFERC
 40
1.0
  9
$CHAMFERD
 40
0.0
  9
$SKPOLY
 70
     0
  9
$TDCREATE
 40
2456603.900557824
  9
$TDUCREATE
 40
2456603.817224491
  9
$TDUPDATE
 40
2456603.900557836
  9
$TDUUPDATE
 40
2456603.817224502
  9
$TDINDWG
 40
0.0000000116
  9
$TDUSRTIMER
 40
0.0000000116
  9
$USRTIMER
 70
     1
  9
$ANGBASE
 50
0.0
  9
$ANGDIR
 70
     0
  9
$PDMODE
 70
     0
  9
$PDSIZE
 40
0.0
  9
$PLINEWID
 40
0.0
  9
$SPLFRAME
 70
     0
  9
$SPLINETYPE
 70
     6
  9
$SPLINESEGS
 70
     8
  9
$HANDSEED
  5
194
  9
$SURFTAB1
 70
     6
  9
$SURFTAB2
 70
     6
  9
$SURFTYPE
 70
     6
  9
$SURFU
 70
     6
  9
$SURFV
 70
     6
  9
$UCSBASE
  2

  9
$UCSNAME
  2

  9
$UCSORG
 10
0.0
 20
0.0
 30
0.0
  9
$UCSXDIR
 10
1.0
 20
0.0
 30
0.0
  9
$UCSYDIR
 10
0.0
 20
1.0
 30
0.0
  9
$UCSORTHOREF
  2

  9
$UCSORTHOVIEW
 70
     0
  9
$UCSORGTOP
 10
0.0
 20
0.0
 30
0.0
  9
$UCSORGBOTTOM
 10
0.0
 20
0.0
 30
0.0
  9
$UCSORGLEFT
 10
0.0
 20
0.0
 30
0.0
  9
$UCSORGRIGHT
 10
0.0
 20
0.0
 30
0.0
  9
$UCSORGFRONT
 10
0.0
 20
0.0
 30
0.0
  9
$UCSORGBACK
 10
0.0
 20
0.0
 30
0.0
  9
$PUCSBASE
  2

  9
$PUCSNAME
  2

  9
$PUCSORG
 10
0.0
 20
0.0
 30
0.0
  9
$PUCSXDIR
 10
1.0
 20
0.0
 30
0.0
  9
$PUCSYDIR
 10
0.0
 20
1.0
 30
0.0
  9
$PUCSORTHOREF
  2

  9
$PUCSORTHOVIEW
 70
     0
  9
$PUCSORGTOP
 10
0.0
 20
0.0
 30
0.0
  9
$PUCSORGBOTTOM
 10
0.0
 20
0.0
 30
0.0
  9
$PUCSORGLEFT
 10
0.0
 20
0.0
 30
0.0
  9
$PUCSORGRIGHT
 10
0.0
 20
0.0
 30
0.0
  9
$PUCSORGFRONT
 10
0.0
 20
0.0
 30
0.0
  9
$PUCSORGBACK
 10
0.0
 20
0.0
 30
0.0
  9
$USERI1
 70
     0
  9
$USERI2
 70
     0
  9
$USERI3
 70
     0
  9
$USERI4
 70
     0
  9
$USERI5
 70
     0
  9
$USERR1
 40
0.0
  9
$USERR2
 40
0.0
  9
$USERR3
 40
0.0
  9
$USERR4
 40
0.0
  9
$USERR5
 40
0.0
  9
$WORLDVIEW
 70
     1
  9
$SHADEDGE
 70
     3
  9
$SHADEDIF
 70
    70
  9
$TILEMODE
 70
     1
  9
$MAXACTVP
 70
    64
  9
$PINSBASE
 10
0.0
 20
0.0
 30
0.0
  9
$PLIMCHECK
 70
     0
  9
$PEXTMIN
 10
1.000000000000000E+20
 20
1.000000000000000E+20
 30
1.000000000000000E+20
  9
$PEXTMAX
 10
-1.000000000000000E+20
 20
-1.000000000000000E+20
 30
-1.000000000000000E+20
  9
$PLIMMIN
 10
0.0
 20
0.0
  9
$PLIMMAX
 10
12.0
 20
9.0
  9
$UNITMODE
 70
     0
  9
$VISRETAIN
 70
     1
  9
$PLINEGEN
 70
     0
  9
$PSLTSCALE
 70
     1
  9
$TREEDEPTH
 70
  3020
  9
$CMLSTYLE
  2
Standard
  9
$CMLJUST
 70
     0
  9
$CMLSCALE
 40
1.0
  9
$PROXYGRAPHICS
 70
     1
  9
$MEASUREMENT
 70
     0
  9
$CELWEIGHT
370
    -1
  9
$ENDCAPS
280
     0
  9
$JOINSTYLE
280
     0
  9
$LWDISPLAY
290
     0
  9
$INSUNITS
 70
     4
  9
$HYPERLINKBASE
  1

  9
$STYLESHEET
  1

  9
$XEDIT
290
     1
  9
$CEPSNTYPE
380
     0
  9
$PSTYLEMODE
290
     1
  9
$FINGERPRINTGUID
  2
{163A20D2-4B53-4018-97BB-E5D1449279DC}
  9
$VERSIONGUID
  2
{FAEB1C32-E019-11D5-929B-00C0DF256EC4}
  9
$EXTNAMES
290
     1
  9
$PSVPSCALE
 40
0.0
  9
$OLESTARTUP
290
     0
  9
$SORTENTS
280
   127
  9
$INDEXCTL
280
     0
  9
$HIDETEXT
280
     1
  9
$XCLIPFRAME
290
     0
  9
$HALOGAP
280
     0
  9
$OBSCOLOR
 70
   257
  9
$OBSLTYPE
280
     0
  9
$INTERSECTIONDISPLAY
280
     0
  9
$INTERSECTIONCOLOR
 70
   257
  9
$DIMASSOC
280
     2
  9
$PROJECTNAME
  1

  0
ENDSEC
  0
SECTION
  2
CLASSES
  0
CLASS
  1
ACDBDICTIONARYWDFLT
  2
AcDbDictionaryWithDefault
  3
ObjectDBX Classes
 90
        0
 91
        4
280
     0
281
     0
  0
CLASS
  1
VISUALSTYLE
  2
AcDbVisualStyle
  3
ObjectDBX Classes
 90
     4095
 91
        4
280
     0
281
     0
  0
ENDSEC
  0
SECTION
  2
TABLES
  0
TABLE
  2
VPORT
  5
8
330
0
100
AcDbSymbolTable
 70
     1
  0
VPORT
  5
29
330
8
100
AcDbSymbolTableRecord
100
AcDbViewportTableRecord
  2
*Active
 70
     0
 10
0.0
 20
0.0
 11
1.0
 21
1.0
 12
0.0
 22
0.0
 13
0.0
 23
0.0
 14
0.5
 24
0.5
 15
0.5
 25
0.5
 16
0.0
 26
0.0
 36
1.0
 17
198.652804309126
 27
270.3807526727723
 37
0.0
 40
401.8437843434758
 41
0.7364991104711637
 42
50.0
 43
0.0
 44
0.0
 50
0.0
 51
0.0
 71
     0
 72
   100
 73
     1
 74
     3
 75
     0
 76
     0
 77
     0
 78
     0
281
     0
 65
     1
110
0.0
120
0.0
130
0.0
111
1.0
121
0.0
131
0.0
112
0.0
122
1.0
132
0.0
 79
     0
146
0.0
  0
ENDTAB
  0
TABLE
  2
LTYPE
  5
5
330
0
100
AcDbSymbolTable
 70
     1
  0
LTYPE
  5
14
330
5
100
AcDbSymbolTableRecord
100
AcDbLinetypeTableRecord
  2
ByBlock
 70
     0
  3

 72
    65
 73
     0
 40
0.0
  0
LTYPE
  5
15
330
5
100
AcDbSymbolTableRecord
100
AcDbLinetypeTableRecord
  2
ByLayer
 70
     0
  3

 72
    65
 73
     0
 40
0.0
  0
LTYPE
  5
16
330
5
100
AcDbSymbolTableRecord
100
AcDbLinetypeTableRecord
  2
Continuous
 70
     0
  3
Solid line
 72
    65
 73
     0
 40
0.0
  0
ENDTAB
  0
TABLE
  2
LAYER
  5
2
330
0
100
AcDbSymbolTable
 70
     2
  0
LAYER
  5
10
330
2
100
AcDbSymbolTableRecord
100
AcDbLayerTableRecord
  2
0
 70
     0
 62
     7
  6
Continuous
370
    -3
390
F
  0
LAYER
  5
3B
330
2
100
AcDbSymbolTableRecord
100
AcDbLayerTableRecord
  2
SMALL-TARGETS
 70
     0
 62
     7
  6
Continuous
370
    -3
390
F
  0
ENDTAB
  0
TABLE
  2
STYLE
  5
3
330
0
100
AcDbSymbolTable
 70
     1
  0
STYLE
  5
11
330
3
100
AcDbSymbolTableRecord
100
AcDbTextStyleTableRecord
  2
Standard
 70
     0
 40
0.0
 41
1.0
 50
0.0
 71
     0
 42
0.2
  3
txt
  4

  0
ENDTAB
  0
TABLE
  2
VIEW
  5
6
330
0
100
AcDbSymbolTable
 70
     0
  0
ENDTAB
  0
TABLE
  2
UCS
  5
7
330
0
100
AcDbSymbolTable
 70
     0
  0
ENDTAB
  0
TABLE
  2
APPID
  5
9
330
0
100
AcDbSymbolTable
 70
     1
  0
APPID
  5
12
330
9
100
AcDbSymbolTableRecord
100
AcDbRegAppTableRecord
  2
ACAD
 70
     0
  0
ENDTAB
  0
TABLE
  2
DIMSTYLE
  5
A
330
0
100
AcDbSymbolTable
 70
     1
100
AcDbDimStyleTable
  0
DIMSTYLE
105
27
330
A
100
AcDbSymbolTableRecord
100
AcDbDimStyleTableRecord
  2
Standard
 70
     0
340
11
  0
ENDTAB
  0
TABLE
  2
BLOCK_RECORD
  5
1
330
0
100
AcDbSymbolTable
 70
     1
  0
BLOCK_RECORD
  5
1F
330
1
100
AcDbSymbolTableRecord
100
AcDbBlockTableRecord
  2
*Model_Space
340
22
  0
BLOCK_RECORD
  5
1B
330
1
100
AcDbSymbolTableRecord
100
AcDbBlockTableRecord
  2
*Paper_Space
340
1E
  0
BLOCK_RECORD
  5
23
330
1
100
AcDbSymbolTableRecord
100
AcDbBlockTableRecord
  2
*Paper_Space0
340
26
  0
ENDTAB
  0
ENDSEC
  0
SECTION
  2
BLOCKS
  0
BLOCK
  5
20
330
1F
100
AcDbEntity
  8
0
100
AcDbBlockBegin
  2
*Model_Space
 70
     0
 10
0.0
 20
0.0
 30
0.0
  3
*Model_Space
  1

  0
ENDBLK
  5
21
330
1F
100
AcDbEntity
  8
0
100
AcDbBlockEnd
  0
BLOCK
  5
1C
330
1B
100
AcDbEntity
 67
     1
  8
0
100
AcDbBlockBegin
  2
*Paper_Space
 70
     0
 10
0.0
 20
0.0
 30
0.0
  3
*Paper_Space
  1

  0
ENDBLK
  5
1D
330
1B
100
AcDbEntity
 67
     1
  8
0
100
AcDbBlockEnd
  0
BLOCK
  5
24
330
23
100
AcDbEntity
  8
0
100
AcDbBlockBegin
  2
*Paper_Space0
 70
     0
 10
0.0
 20
0.0
 30
0.0
  3
*Paper_Space0
  1

  0
ENDBLK
  5
25
330
23
100
AcDbEntity
  8
0
100
AcDbBlockEnd
  0
ENDSEC
  0
SECTION
  2
ENTITIES
  0
POINT
  5
3C
330
1F
100
AcDbEntity
  8
SMALL-TARGETS
100
AcDbPoint
 10
97.84340713120461
 20
451.3342032591909
 30
0.0
  0
POINT
  5
3D
330
1F
100
AcDbEntity
  8
SMALL-TARGETS
100
AcDbPoint
 10
115.1648952398351
 20
448.3217705446465
 30
0.0
  0
POINT
  5
3E
330
1F
100
AcDbEntity
  8
SMALL-TARGETS
100
AcDbPoint
 10
123.8256392941503
 20
446.8155541873743
 30
0.0
  0
POINT
  5
3F
330
1F
100
AcDbEntity
  8
SMALL-TARGETS
100
AcDbPoint
 10
145.1009453406204
 20
442.6734592048757
 30
0.0
  0
POINT
  5
40
330
1F
100
AcDbEntity
  8
SMALL-TARGETS
100
AcDbPoint
 10
155.2679057522078
 20
440.7906887582854
 30
0.0
  0
POINT
  5
41
330
1F
100
AcDbEntity
  8
SMALL-TARGETS
100
AcDbPoint
 10
153.1968582609585
 20
424.7871399622682
 30
0.0
  0
POINT
  5
42
330
1F
100
AcDbEntity
  8
SMALL-TARGETS
100
AcDbPoint
 10
150.3727025910731
 20
409.724976389546
 30
0.0
  0
POINT
  5
43
330
1F
100
AcDbEntity
  8
SMALL-TARGETS
100
AcDbPoint
 10
143.4064519386891
 20
405.0180502730703
 30
0.0
  0
POINT
  5
44
330
1F
100
AcDbEntity
  8
SMALL-TARGETS
100
AcDbPoint
 10
98.68947674857887
 20
411.8911506573545
 30
0.0
  0
POINT
  5
45
330
1F
100
AcDbEntity
  8
SMALL-TARGETS
100
AcDbPoint
 10
87.95768520301434
 20
414.3387522379218
 30
0.0
  0
POINT
  5
46
330
1F
100
AcDbEntity
  8
SMALL-TARGETS
100
AcDbPoint
 10
93.2294424534671
 20
435.4257812397328
 30
0.0
  0
POINT
  5
47
330
1F
100
AcDbEntity
  8
SMALL-TARGETS
100
AcDbPoint
 10
146.3171452208037
 20
384.6034685379597
 30
0.0
  0
POINT
  5
48
330
1F
100
AcDbEntity
  8
SMALL-TARGETS
100
AcDbPoint
 10
110.7836185823056
 20
391.1611580034336
 30
0.0
  0
POINT
  5
49
330
1F
100
AcDbEntity
  8
SMALL-TARGETS
100
AcDbPoint
 10
98.27825727605303
 20
393.7537329083884
 30
0.0
  0
POINT
  5
4A
330
1F
100
AcDbEntity
  8
SMALL-TARGETS
100
AcDbPoint
 10
164.9098636702578
 20
462.8723781839376
 30
0.0
  0
POINT
  5
4B
330
1F
100
AcDbEntity
  8
SMALL-TARGETS
100
AcDbPoint
 10
157.4602880238118
 20
464.5218428129483
 30
0.0
  0
POINT
  5
4C
330
1F
100
AcDbEntity
  8
SMALL-TARGETS
100
AcDbPoint
 10
150.9132738667701
 20
465.7571285029561
 30
0.0
  0
POINT
  5
4D
330
1F
100
AcDbEntity
  8
SMALL-TARGETS
100
AcDbPoint
 10
143.2545025887212
 20
467.3629998999663
 30
0.0
  0
POINT
  5
4E
330
1F
100
AcDbEntity
  8
SMALL-TARGETS
100
AcDbPoint
 10
187.0668663451957
 20
459.2184091707568
 30
0.0
  0
POINT
  5
4F
330
1F
100
AcDbEntity
  8
SMALL-TARGETS
100
AcDbPoint
 10
196.292441533488
 20
456.7708075901895
 30
0.0
  0
POINT
  5
50
330
1F
100
AcDbEntity
  8
SMALL-TARGETS
100
AcDbPoint
 10
218.6213295391301
 20
452.5487309356159
 30
0.0
  0
POINT
  5
51
330
1F
100
AcDbEntity
  8
SMALL-TARGETS
100
AcDbPoint
 10
230.3868513056597
 20
450.5399833169401
 30
0.0
  0
POINT
  5
52
330
1F
100
AcDbEntity
  8
SMALL-TARGETS
100
AcDbPoint
 10
254.6563844231198
 20
447.9108260405813
 30
0.0
  0
POINT
  5
53
330
1F
100
AcDbEntity
  8
SMALL-TARGETS
100
AcDbPoint
 10
267.2063380526324
 20
455.8853203155848
 30
0.0
  0
POINT
  5
54
330
1F
100
AcDbEntity
  8
SMALL-TARGETS
100
AcDbPoint
 10
274.7127999795257
 20
459.7263241544811
 30
0.0
  0
POINT
  5
55
330
1F
100
AcDbEntity
  8
SMALL-TARGETS
100
AcDbPoint
 10
282.5239508360677
 20
465.6877831466861
 30
0.0
  0
POINT
  5
56
330
1F
100
AcDbEntity
  8
SMALL-TARGETS
100
AcDbPoint
 10
301.3615057539041
 20
460.5839174260773
 30
0.0
  0
POINT
  5
57
330
1F
100
AcDbEntity
  8
SMALL-TARGETS
100
AcDbPoint
 10
289.9927713305635
 20
453.0260392334471
 30
0.0
  0
POINT
  5
58
330
1F
100
AcDbEntity
  8
SMALL-TARGETS
100
AcDbPoint
 10
283.7400906774373
 20
449.3659334852757
 30
0.0
  0
POINT
  5
59
330
1F
100
AcDbEntity
  8
SMALL-TARGETS
100
AcDbPoint
 10
273.8273042761394
 20
441.7407131765851
 30
0.0
  0
POINT
  5
5A
330
1F
100
AcDbEntity
  8
SMALL-TARGETS
100
AcDbPoint
 10
244.4687080455445
 20
416.7978376020592
 30
0.0
  0
POINT
  5
5B
330
1F
100
AcDbEntity
  8
SMALL-TARGETS
100
AcDbPoint
 10
231.2008247084229
 20
409.7826349180639
 30
0.0
  0
POINT
  5
5C
330
1F
100
AcDbEntity
  8
SMALL-TARGETS
100
AcDbPoint
 10
220.2205074639085
 20
406.5800423884139
 30
0.0
  0
POINT
  5
5D
330
1F
100
AcDbEntity
  8
SMALL-TARGETS
100
AcDbPoint
 10
201.51932887704
 20
392.2626739428756
 30
0.0
  0
POINT
  5
5E
330
1F
100
AcDbEntity
  8
SMALL-TARGETS
100
AcDbPoint
 10
191.3523684654526
 20
386.4260855584457
 30
0.0
  0
POINT
  5
5F
330
1F
100
AcDbEntity
  8
SMALL-TARGETS
100
AcDbPoint
 10
183.6330096344325
 20
381.71915944197
 30
0.0
  0
POINT
  5
60
330
1F
100
AcDbEntity
  8
SMALL-TARGETS
100
AcDbPoint
 10
170.8515203915058
 20
373.2330853989205
 30
0.0
  0
POINT
  5
61
330
1F
100
AcDbEntity
  8
SMALL-TARGETS
100
AcDbPoint
 10
177.4818002566397
 20
362.5650681466815
 30
0.0
  0
POINT
  5
62
330
1F
100
AcDbEntity
  8
SMALL-TARGETS
100
AcDbPoint
 10
259.8480850424352
 20
430.6295811151184
 30
0.0
  0
POINT
  5
63
330
1F
100
AcDbEntity
  8
SMALL-TARGETS
100
AcDbPoint
 10
265.4963963822061
 20
419.7095125248949
 30
0.0
  0
POINT
  5
64
330
1F
100
AcDbEntity
  8
SMALL-TARGETS
100
AcDbPoint
 10
275.4750797491345
 20
407.6597816667172
 30
0.0
  0
POINT
  5
65
330
1F
100
AcDbEntity
  8
SMALL-TARGETS
100
AcDbPoint
 10
270.9822816056724
 20
381.4417000962187
 30
0.0
  0
POINT
  5
66
330
1F
100
AcDbEntity
  8
SMALL-TARGETS
100
AcDbPoint
 10
256.5709522614013
 20
402.1289309291241
 30
0.0
  0
POINT
  5
67
330
1F
100
AcDbEntity
  8
SMALL-TARGETS
100
AcDbPoint
 10
265.3670127719222
 20
369.6464324548463
 30
0.0
  0
POINT
  5
68
330
1F
100
AcDbEntity
  8
SMALL-TARGETS
100
AcDbPoint
 10
260.639376180534
 20
366.9013531437177
 30
0.0
  0
POINT
  5
69
330
1F
100
AcDbEntity
  8
SMALL-TARGETS
100
AcDbPoint
 10
250.7265897792363
 20
363.8512650202415
 30
0.0
  0
POINT
  5
6A
330
1F
100
AcDbEntity
  8
SMALL-TARGETS
100
AcDbPoint
 10
240.6612989717647
 20
360.4961680844176
 30
0.0
  0
POINT
  5
6B
330
1F
100
AcDbEntity
  8
SMALL-TARGETS
100
AcDbPoint
 10
222.9763658182625
 20
388.818290931294
 30
0.0
  0
POINT
  5
6C
330
1F
100
AcDbEntity
  8
SMALL-TARGETS
100
AcDbPoint
 10
306.8841564695601
 20
392.4058110246189
 30
0.0
  0
POINT
  5
6D
330
1F
100
AcDbEntity
  8
SMALL-TARGETS
100
AcDbPoint
 10
315.7331775685343
 20
398.4306764537077
 30
0.0
  0
POINT
  5
6E
330
1F
100
AcDbEntity
  8
SMALL-TARGETS
100
AcDbPoint
 10
327.782908426712
 20
383.1802358363265
 30
0.0
  0
POINT
  5
6F
330
1F
100
AcDbEntity
  8
SMALL-TARGETS
100
AcDbPoint
 10
319.4987184617149
 20
380.3560801664411
 30
0.0
  0
POINT
  5
70
330
1F
100
AcDbEntity
  8
SMALL-TARGETS
100
AcDbPoint
 10
315.5449005238753
 20
378.0967556305328
 30
0.0
  0
POINT
  5
71
330
1F
100
AcDbEntity
  8
SMALL-TARGETS
100
AcDbPoint
 10
308.7669269161503
 20
373.2015524693981
 30
0.0
  0
POINT
  5
72
330
1F
100
AcDbEntity
  8
SMALL-TARGETS
100
AcDbPoint
 10
304.146905290946
 20
369.9924723650443
 30
0.0
  0
POINT
  5
73
330
1F
100
AcDbEntity
  8
SMALL-TARGETS
100
AcDbPoint
 10
296.9822482889003
 20
365.545443881016
 30
0.0
  0
POINT
  5
74
330
1F
100
AcDbEntity
  8
SMALL-TARGETS
100
AcDbPoint
 10
205.5196103238242
 20
380.9000814903409
 30
0.0
  0
POINT
  5
75
330
1F
100
AcDbEntity
  8
SMALL-TARGETS
100
AcDbPoint
 10
212.2603934042091
 20
374.159298409956
 30
0.0
  0
POINT
  5
76
330
1F
100
AcDbEntity
  8
SMALL-TARGETS
100
AcDbPoint
 10
218.6039797930759
 20
364.6610801630562
 30
0.0
  0
POINT
  5
77
330
1F
100
AcDbEntity
  8
SMALL-TARGETS
100
AcDbPoint
 10
226.8174529000991
 20
353.4692524865718
 30
0.0
  0
POINT
  5
78
330
1F
100
AcDbEntity
  8
SMALL-TARGETS
100
AcDbPoint
 10
229.1987013309315
 20
342.7804378660292
 30
0.0
  0
POINT
  5
79
330
1F
100
AcDbEntity
  8
SMALL-TARGETS
100
AcDbPoint
 10
224.6800522591149
 20
339.2031740175076
 30
0.0
  0
POINT
  5
7A
330
1F
100
AcDbEntity
  8
SMALL-TARGETS
100
AcDbPoint
 10
214.5130918475274
 20
333.9314167670549
 30
0.0
  0
POINT
  5
7B
330
1F
100
AcDbEntity
  8
SMALL-TARGETS
100
AcDbPoint
 10
209.2413345970747
 20
329.0362136059202
 30
0.0
  0
POINT
  5
7C
330
1F
100
AcDbEntity
  8
SMALL-TARGETS
100
AcDbPoint
 10
200.5805905427594
 20
326.7768890700119
 30
0.0
  0
POINT
  5
7D
330
1F
100
AcDbEntity
  8
SMALL-TARGETS
100
AcDbPoint
 10
195.3088332923067
 20
336.7555724369403
 30
0.0
  0
POINT
  5
7E
330
1F
100
AcDbEntity
  8
SMALL-TARGETS
100
AcDbPoint
 10
192.9241958672264
 20
342.0181532392535
 30
0.0
  0
POINT
  5
7F
330
1F
100
AcDbEntity
  8
SMALL-TARGETS
100
AcDbPoint
 10
189.1960295376413
 20
346.8809788865386
 30
0.0
  0
POINT
  5
80
330
1F
100
AcDbEntity
  8
SMALL-TARGETS
100
AcDbPoint
 10
186.3593812433917
 20
351.7438045338235
 30
0.0
  0
POINT
  5
81
330
1F
100
AcDbEntity
  8
SMALL-TARGETS
100
AcDbPoint
 10
182.5928963517024
 20
357.0879345445064
 30
0.0
  0
POINT
  5
82
330
1F
100
AcDbEntity
  8
SMALL-TARGETS
100
AcDbPoint
 10
189.3478421658901
 20
314.5605906211593
 30
0.0
  0
POINT
  5
83
330
1F
100
AcDbEntity
  8
SMALL-TARGETS
100
AcDbPoint
 10
185.3949279578649
 20
321.2311333472019
 30
0.0
  0
POINT
  5
84
330
1F
100
AcDbEntity
  8
SMALL-TARGETS
100
AcDbPoint
 10
181.0714280428374
 20
329.878133177257
 30
0.0
  0
POINT
  5
85
330
1F
100
AcDbEntity
  8
SMALL-TARGETS
100
AcDbPoint
 10
172.5782117406557
 20
341.6809549622201
 30
0.0
  0
POINT
  5
86
330
1F
100
AcDbEntity
  8
SMALL-TARGETS
100
AcDbPoint
 10
166.7681129980374
 20
351.6274791406653
 30
0.0
  0
POINT
  5
87
330
1F
100
AcDbEntity
  8
SMALL-TARGETS
100
AcDbPoint
 10
159.4479015016944
 20
362.9128051975274
 30
0.0
  0
POINT
  5
88
330
1F
100
AcDbEntity
  8
SMALL-TARGETS
100
AcDbPoint
 10
153.1952208485681
 20
363.217814009875
 30
0.0
  0
POINT
  5
89
330
1F
100
AcDbEntity
  8
SMALL-TARGETS
100
AcDbPoint
 10
148.3150798510061
 20
360.6252391049202
 30
0.0
  0
POINT
  5
8A
330
1F
100
AcDbEntity
  8
SMALL-TARGETS
100
AcDbPoint
 10
142.9774256349227
 20
357.8801597937916
 30
0.0
  0
POINT
  5
8B
330
1F
100
AcDbEntity
  8
SMALL-TARGETS
100
AcDbPoint
 10
135.6572141385797
 20
354.2200540456201
 30
0.0
  0
POINT
  5
8C
330
1F
100
AcDbEntity
  8
SMALL-TARGETS
100
AcDbPoint
 10
137.9447802311869
 20
331.1918887133746
 30
0.0
  0
POINT
  5
8D
330
1F
100
AcDbEntity
  8
SMALL-TARGETS
100
AcDbPoint
 10
143.7399476657918
 20
321.7366155305982
 30
0.0
  0
POINT
  5
8E
330
1F
100
AcDbEntity
  8
SMALL-TARGETS
100
AcDbPoint
 10
148.3150798510061
 20
315.6364392836458
 30
0.0
  0
POINT
  5
8F
330
1F
100
AcDbEntity
  8
SMALL-TARGETS
100
AcDbPoint
 10
151.2126635683086
 20
309.9937762552147
 30
0.0
  0
POINT
  5
90
330
1F
100
AcDbEntity
  8
SMALL-TARGETS
100
AcDbPoint
 10
155.9403001596967
 20
302.0635471341765
 30
0.0
  0
POINT
  5
91
330
1F
100
AcDbEntity
  8
SMALL-TARGETS
100
AcDbPoint
 10
160.3629279387373
 20
295.8108664810503
 30
0.0
  0
POINT
  5
92
330
1F
100
AcDbEntity
  8
SMALL-TARGETS
100
AcDbPoint
 10
167.6831394350802
 20
300.2334942600908
 30
0.0
  0
POINT
  5
93
330
1F
100
AcDbEntity
  8
SMALL-TARGETS
100
AcDbPoint
 10
173.0207936511636
 20
304.6561220391313
 30
0.0
  0
POINT
  5
94
330
1F
100
AcDbEntity
  8
SMALL-TARGETS
100
AcDbPoint
 10
180.798518366028
 20
308.926245411998
 30
0.0
  0
POINT
  5
95
330
1F
100
AcDbEntity
  8
SMALL-TARGETS
100
AcDbPoint
 10
114.2416333700579
 20
337.7920988083013
 30
0.0
  0
POINT
  5
96
330
1F
100
AcDbEntity
  8
SMALL-TARGETS
100
AcDbPoint
 10
118.206747930577
 20
331.539418155175
 30
0.0
  0
POINT
  5
97
330
1F
100
AcDbEntity
  8
SMALL-TARGETS
100
AcDbPoint
 10
120.7993228355318
 20
326.659277157613
 30
0.0
  0
POINT
  5
98
330
1F
100
AcDbEntity
  8
SMALL-TARGETS
100
AcDbPoint
 10
122.7818801157914
 20
322.6941625970939
 30
0.0
  0
POINT
  5
99
330
1F
100
AcDbEntity
  8
SMALL-TARGETS
100
AcDbPoint
 10
127.8145255195272
 20
316.4414819439676
 30
0.0
  0
POINT
  5
9A
330
1F
100
AcDbEntity
  8
SMALL-TARGETS
100
AcDbPoint
 10
135.2872414220439
 20
305.613669105627
 30
0.0
  0
POINT
  5
9B
330
1F
100
AcDbEntity
  8
SMALL-TARGETS
100
AcDbPoint
 10
145.0475234171679
 20
289.7532108635506
 30
0.0
  0
POINT
  5
9C
330
1F
100
AcDbEntity
  8
SMALL-TARGETS
100
AcDbPoint
 10
133.0117734424162
 20
278.4132600718021
 30
0.0
  0
POINT
  5
9D
330
1F
100
AcDbEntity
  8
SMALL-TARGETS
100
AcDbPoint
 10
109.8311037039968
 20
269.1104912951996
 30
0.0
  0
POINT
  5
9E
330
1F
100
AcDbEntity
  8
SMALL-TARGETS
100
AcDbPoint
 10
85.43465023937874
 20
298.55303567854
 30
0.0
  0
POINT
  5
9F
330
1F
100
AcDbEntity
  8
SMALL-TARGETS
100
AcDbPoint
 10
78.09184549767669
 20
314.5565844745573
 30
0.0
  0
POINT
  5
A0
330
1F
100
AcDbEntity
  8
SMALL-TARGETS
100
AcDbPoint
 10
96.91954996357939
 20
327.1711464667121
 30
0.0
  0
POINT
  5
A1
330
1F
100
AcDbEntity
  8
SMALL-TARGETS
100
AcDbPoint
 10
93.58211558739741
 20
255.5022924729666
 30
0.0
  0
POINT
  5
A2
330
1F
100
AcDbEntity
  8
SMALL-TARGETS
100
AcDbPoint
 10
84.11230538506867
 20
242.3019509788114
 30
0.0
  0
POINT
  5
A3
330
1F
100
AcDbEntity
  8
SMALL-TARGETS
100
AcDbPoint
 10
76.07731491036549
 20
235.9887441772589
 30
0.0
  0
POINT
  5
A4
330
1F
100
AcDbEntity
  8
SMALL-TARGETS
100
AcDbPoint
 10
62.59000947068517
 20
225.9450060838799
 30
0.0
  0
POINT
  5
A5
330
1F
100
AcDbEntity
  8
SMALL-TARGETS
100
AcDbPoint
 10
83.53837749401843
 20
270.9983455313227
 30
0.0
  0
POINT
  5
A6
330
1F
100
AcDbEntity
  8
SMALL-TARGETS
100
AcDbPoint
 10
78.94695436561663
 20
277.5985162784003
 30
0.0
  0
POINT
  5
A7
330
1F
100
AcDbEntity
  8
SMALL-TARGETS
100
AcDbPoint
 10
72.34678361853902
 20
285.9204706986286
 30
0.0
  0
POINT
  5
A8
330
1F
100
AcDbEntity
  8
SMALL-TARGETS
100
AcDbPoint
 10
65.4596489259363
 20
292.2336775001811
 30
0.0
  0
POINT
  5
A9
330
1F
100
AcDbEntity
  8
SMALL-TARGETS
100
AcDbPoint
 10
59.72037001543404
 20
299.4077761383089
 30
0.0
  0
POINT
  5
AA
330
1F
100
AcDbEntity
  8
SMALL-TARGETS
100
AcDbPoint
 10
67.65865230746319
 20
212.3072619528704
 30
0.0
  0
POINT
  5
AB
330
1F
100
AcDbEntity
  8
SMALL-TARGETS
100
AcDbPoint
 10
77.07250454041454
 20
220.2148978285496
 30
0.0
  0
POINT
  5
AC
330
1F
100
AcDbEntity
  8
SMALL-TARGETS
100
AcDbPoint
 10
90.25189766654641
 20
229.6287500615009
 30
0.0
  0
POINT
  5
AD
330
1F
100
AcDbEntity
  8
SMALL-TARGETS
100
AcDbPoint
 10
96.27676309563527
 20
232.2646286867273
 30
0.0
  0
POINT
  5
AE
330
1F
100
AcDbEntity
  8
SMALL-TARGETS
100
AcDbPoint
 10
79.41520406985099
 20
190.6740712452733
 30
0.0
  0
POINT
  5
AF
330
1F
100
AcDbEntity
  8
SMALL-TARGETS
100
AcDbPoint
 10
92.69468390076028
 20
167.7527634886529
 30
0.0
  0
POINT
  5
B0
330
1F
100
AcDbEntity
  8
SMALL-TARGETS
100
AcDbPoint
 10
97.96644115121303
 20
159.4685735236557
 30
0.0
  0
POINT
  5
B1
330
1F
100
AcDbEntity
  8
SMALL-TARGETS
100
AcDbPoint
 10
102.1085361337116
 20
151.3726606033175
 30
0.0
  0
POINT
  5
B2
330
1F
100
AcDbEntity
  8
SMALL-TARGETS
100
AcDbPoint
 10
106.4389081608692
 20
144.4064099509336
 30
0.0
  0
POINT
  5
B3
330
1F
100
AcDbEntity
  8
SMALL-TARGETS
100
AcDbPoint
 10
112.2754965452991
 20
134.2394495393461
 30
0.0
  0
POINT
  5
B4
330
1F
100
AcDbEntity
  8
SMALL-TARGETS
100
AcDbPoint
 10
117.3589767510928
 20
128.5911381995753
 30
0.0
  0
POINT
  5
B5
330
1F
100
AcDbEntity
  8
SMALL-TARGETS
100
AcDbPoint
 10
123.7603962694997
 20
131.9801250034378
 30
0.0
  0
POINT
  5
B6
330
1F
100
AcDbEntity
  8
SMALL-TARGETS
100
AcDbPoint
 10
90.62882620560728
 20
192.5629803394967
 30
0.0
  0
POINT
  5
B7
330
1F
100
AcDbEntity
  8
SMALL-TARGETS
100
AcDbPoint
 10
97.51596089821
 20
186.8237014289945
 30
0.0
  0
POINT
  5
B8
330
1F
100
AcDbEntity
  8
SMALL-TARGETS
100
AcDbPoint
 10
104.9770234818629
 20
176.4929993900904
 30
0.0
  0
POINT
  5
B9
330
1F
100
AcDbEntity
  8
SMALL-TARGETS
100
AcDbPoint
 10
115.8816534118172
 20
182.8062061916429
 30
0.0
  0
POINT
  5
BA
330
1F
100
AcDbEntity
  8
SMALL-TARGETS
100
AcDbPoint
 10
127.934139123872
 20
191.4151245573963
 30
0.0
  0
POINT
  5
BB
330
1F
100
AcDbEntity
  8
SMALL-TARGETS
100
AcDbPoint
 10
127.3602112328218
 20
199.7370789776245
 30
0.0
  0
POINT
  5
BC
330
1F
100
AcDbEntity
  8
SMALL-TARGETS
100
AcDbPoint
 10
122.76878810442
 20
210.928672853104
 30
0.0
  0
POINT
  5
BD
330
1F
100
AcDbEntity
  8
SMALL-TARGETS
100
AcDbPoint
 10
118.7512928670684
 20
218.1027714912318
 30
0.0
  0
POINT
  5
BE
330
1F
100
AcDbEntity
  8
SMALL-TARGETS
100
AcDbPoint
 10
113.8739891924739
 20
166.8796465112558
 30
0.0
  0
POINT
  5
BF
330
1F
100
AcDbEntity
  8
SMALL-TARGETS
100
AcDbPoint
 10
118.5809153089495
 20
158.7837335909176
 30
0.0
  0
POINT
  5
C0
330
1F
100
AcDbEntity
  8
SMALL-TARGETS
100
AcDbPoint
 10
121.969902112812
 20
152.5705911171697
 30
0.0
  0
POINT
  5
C1
330
1F
100
AcDbEntity
  8
SMALL-TARGETS
100
AcDbPoint
 10
125.1706118720155
 20
148.8050502239892
 30
0.0
  0
POINT
  5
C2
330
1F
100
AcDbEntity
  8
SMALL-TARGETS
100
AcDbPoint
 10
132.3251395690585
 20
140.144306169674
 30
0.0
  0
POINT
  5
C3
330
1F
100
AcDbEntity
  8
SMALL-TARGETS
100
AcDbPoint
 10
146.6341949631445
 20
146.9222797773989
 30
0.0
  0
POINT
  5
C4
330
1F
100
AcDbEntity
  8
SMALL-TARGETS
100
AcDbPoint
 10
154.9183849281417
 20
154.265084519101
 30
0.0
  0
POINT
  5
C5
330
1F
100
AcDbEntity
  8
SMALL-TARGETS
100
AcDbPoint
 10
151.7176751689383
 20
163.4906597073933
 30
0.0
  0
POINT
  5
C6
330
1F
100
AcDbEntity
  8
SMALL-TARGETS
100
AcDbPoint
 10
146.6341949631445
 20
170.8334644490953
 30
0.0
  0
POINT
  5
C7
330
1F
100
AcDbEntity
  8
SMALL-TARGETS
100
AcDbPoint
 10
142.3038229359869
 20
178.9293773694335
 30
0.0
  0
POINT
  5
C8
330
1F
100
AcDbEntity
  8
SMALL-TARGETS
100
AcDbPoint
 10
135.1492952389439
 20
178.9293773694335
 30
0.0
  0
POINT
  5
C9
330
1F
100
AcDbEntity
  8
SMALL-TARGETS
100
AcDbPoint
 10
127.9947675419009
 20
177.7997151014793
 30
0.0
  0
POINT
  5
CA
330
1F
100
AcDbEntity
  8
SMALL-TARGETS
100
AcDbPoint
 10
127.6834652709648
 20
238.8602300928659
 30
0.0
  0
POINT
  5
CB
330
1F
100
AcDbEntity
  8
SMALL-TARGETS
100
AcDbPoint
 10
125.9889718690336
 20
250.3451298170666
 30
0.0
  0
POINT
  5
CC
330
1F
100
AcDbEntity
  8
SMALL-TARGETS
100
AcDbPoint
 10
138.7918109058474
 20
262.2065836305853
 30
0.0
  0
POINT
  5
CD
330
1F
100
AcDbEntity
  8
SMALL-TARGETS
100
AcDbPoint
 10
144.4401222456182
 20
266.5369556577429
 30
0.0
  0
POINT
  5
CE
330
1F
100
AcDbEntity
  8
SMALL-TARGETS
100
AcDbPoint
 10
156.678130148455
 20
273.5032063101269
 30
0.0
  0
POINT
  5
CF
330
1F
100
AcDbEntity
  8
SMALL-TARGETS
100
AcDbPoint
 10
161.1967792202716
 20
256.9348263801325
 30
0.0
  0
POINT
  5
D0
330
1F
100
AcDbEntity
  8
SMALL-TARGETS
100
AcDbPoint
 10
163.0795496668619
 20
240.1781694054791
 30
0.0
  0
POINT
  5
D1
330
1F
100
AcDbEntity
  8
SMALL-TARGETS
100
AcDbPoint
 10
170.987185542541
 20
226.9987762793473
 30
0.0
  0
POINT
  5
D2
330
1F
100
AcDbEntity
  8
SMALL-TARGETS
100
AcDbPoint
 10
159.1257317290223
 20
209.6772881707168
 30
0.0
  0
POINT
  5
D3
330
1F
100
AcDbEntity
  8
SMALL-TARGETS
100
AcDbPoint
 10
149.3353254067529
 20
204.028976830946
 30
0.0
  0
POINT
  5
D4
330
1F
100
AcDbEntity
  8
SMALL-TARGETS
100
AcDbPoint
 10
138.9800879505065
 20
212.3131667959432
 30
0.0
  0
POINT
  5
D5
330
1F
100
AcDbEntity
  8
SMALL-TARGETS
100
AcDbPoint
 10
181.9916900502265
 20
230.6183939643593
 30
0.0
  0
POINT
  5
D6
330
1F
100
AcDbEntity
  8
SMALL-TARGETS
100
AcDbPoint
 10
175.6272773872957
 20
253.1032259708306
 30
0.0
  0
POINT
  5
D7
330
1F
100
AcDbEntity
  8
SMALL-TARGETS
100
AcDbPoint
 10
168.8372917041215
 20
279.7678494544385
 30
0.0
  0
POINT
  5
D8
330
1F
100
AcDbEntity
  8
SMALL-TARGETS
100
AcDbPoint
 10
187.2509745750734
 20
245.2644166277526
 30
0.0
  0
POINT
  5
D9
330
1F
100
AcDbEntity
  8
SMALL-TARGETS
100
AcDbPoint
 10
205.2252956303837
 20
239.1576664414273
 30
0.0
  0
POINT
  5
DA
330
1F
100
AcDbEntity
  8
SMALL-TARGETS
100
AcDbPoint
 10
194.6018386963159
 20
231.8694808703808
 30
0.0
  0
POINT
  5
DB
330
1F
100
AcDbEntity
  8
SMALL-TARGETS
100
AcDbPoint
 10
212.2944929166161
 20
244.7963884361642
 30
0.0
  0
POINT
  5
DC
330
1F
100
AcDbEntity
  8
SMALL-TARGETS
100
AcDbPoint
 10
227.170703852638
 20
252.9318162918012
 30
0.0
  0
POINT
  5
DD
330
1F
100
AcDbEntity
  8
SMALL-TARGETS
100
AcDbPoint
 10
215.5486640588709
 20
274.0839287164573
 30
0.0
  0
POINT
  5
DE
330
1F
100
AcDbEntity
  8
SMALL-TARGETS
100
AcDbPoint
 10
207.0482226701202
 20
287.3841953077621
 30
0.0
  0
POINT
  5
DF
330
1F
100
AcDbEntity
  8
SMALL-TARGETS
100
AcDbPoint
 10
198.3874786158049
 20
301.6932507018481
 30
0.0
  0
POINT
  5
E0
330
1F
100
AcDbEntity
  8
SMALL-TARGETS
100
AcDbPoint
 10
186.3377477576272
 20
292.6559525582148
 30
0.0
  0
POINT
  5
E1
330
1F
100
AcDbEntity
  8
SMALL-TARGETS
100
AcDbPoint
 10
180.1246052838793
 20
287.3841953077621
 30
0.0
  0
POINT
  5
E2
330
1F
100
AcDbEntity
  8
SMALL-TARGETS
100
AcDbPoint
 10
129.4216679999694
 20
363.8165842281219
 30
0.0
  0
POINT
  5
E3
330
1F
100
AcDbEntity
  8
SMALL-TARGETS
100
AcDbPoint
 10
121.517074869609
 20
358.7136190426993
 30
0.0
  0
POINT
  5
E4
330
1F
100
AcDbEntity
  8
SMALL-TARGETS
100
AcDbPoint
 10
110.4106212307482
 20
351.8096073212453
 30
0.0
  0
POINT
  5
E5
330
1F
100
AcDbEntity
  8
SMALL-TARGETS
100
AcDbPoint
 10
90.37459200293169
 20
340.0390150251354
 30
0.0
  0
POINT
  5
E6
330
1F
100
AcDbEntity
  8
SMALL-TARGETS
100
AcDbPoint
 10
76.90997798184584
 20
332.7508294540889
 30
0.0
  0
POINT
  5
E7
330
1F
100
AcDbEntity
  8
SMALL-TARGETS
100
AcDbPoint
 10
71.96883522181435
 20
357.8271289612488
 30
0.0
  0
POINT
  5
E8
330
1F
100
AcDbEntity
  8
SMALL-TARGETS
100
AcDbPoint
 10
77.2805636888482
 20
379.197571398385
 30
0.0
  0
POINT
  5
E9
330
1F
100
AcDbEntity
  8
SMALL-TARGETS
100
AcDbPoint
 10
79.97097657496833
 20
389.8790141526386
 30
0.0
  0
POINT
  5
EA
330
1F
100
AcDbEntity
  8
SMALL-TARGETS
100
AcDbPoint
 10
63.50148689372012
 20
399.7287009337319
 30
0.0
  0
POINT
  5
EB
330
1F
100
AcDbEntity
  8
SMALL-TARGETS
100
AcDbPoint
 10
59.56508160530979
 20
371.2991071841018
 30
0.0
  0
POINT
  5
EC
330
1F
100
AcDbEntity
  8
SMALL-TARGETS
100
AcDbPoint
 10
84.64126681642614
 20
111.7428023264735
 30
0.0
  0
POINT
  5
ED
330
1F
100
AcDbEntity
  8
SMALL-TARGETS
100
AcDbPoint
 10
96.8792747192629
 20
117.0145595769262
 30
0.0
  0
POINT
  5
EE
330
1F
100
AcDbEntity
  8
SMALL-TARGETS
100
AcDbPoint
 10
101.2096467464205
 20
122.0980397827199
 30
0.0
  0
POINT
  5
EF
330
1F
100
AcDbEntity
  8
SMALL-TARGETS
100
AcDbPoint
 10
98.57376812119414
 20
128.4994593011268
 30
0.0
  0
POINT
  5
F0
330
1F
100
AcDbEntity
  8
SMALL-TARGETS
100
AcDbPoint
 10
95.74961245130874
 20
132.6415542836254
 30
0.0
  0
POINT
  5
F1
330
1F
100
AcDbEntity
  8
SMALL-TARGETS
100
AcDbPoint
 10
91.98407155812819
 20
140.3609131146455
 30
0.0
  0
POINT
  5
F2
330
1F
100
AcDbEntity
  8
SMALL-TARGETS
100
AcDbPoint
 10
87.27714544165252
 20
146.0092244544163
 30
0.0
  0
POINT
  5
F3
330
1F
100
AcDbEntity
  8
SMALL-TARGETS
100
AcDbPoint
 10
83.13505045915393
 20
155.4230766873677
 30
0.0
  0
POINT
  5
F4
330
1F
100
AcDbEntity
  8
SMALL-TARGETS
100
AcDbPoint
 10
74.66258344949772
 20
168.2259157241815
 30
0.0
  0
POINT
  5
F5
330
1F
100
AcDbEntity
  8
SMALL-TARGETS
100
AcDbPoint
 10
66.56667052915957
 20
173.4976729746342
 30
0.0
  0
POINT
  5
F6
330
1F
100
AcDbEntity
  8
SMALL-TARGETS
100
AcDbPoint
 10
59.41214283211654
 20
160.3182798485024
 30
0.0
  0
POINT
  5
F7
330
1F
100
AcDbEntity
  8
SMALL-TARGETS
100
AcDbPoint
 10
54.8934937602999
 20
154.1051373747545
 30
0.0
  0
POINT
  5
F8
330
1F
100
AcDbEntity
  8
SMALL-TARGETS
100
AcDbPoint
 10
53.57555444768671
 20
147.3271637670295
 30
0.0
  0
POINT
  5
F9
330
1F
100
AcDbEntity
  8
SMALL-TARGETS
100
AcDbPoint
 10
60.35352805541167
 20
138.6664197127143
 30
0.0
  0
POINT
  5
FA
330
1F
100
AcDbEntity
  8
SMALL-TARGETS
100
AcDbPoint
 10
58.02481106903134
 20
93.53159684718898
 30
0.0
  0
POINT
  5
FB
330
1F
100
AcDbEntity
  8
SMALL-TARGETS
100
AcDbPoint
 10
64.62498181610894
 20
101.5665873218921
 30
0.0
  0
POINT
  5
FC
330
1F
100
AcDbEntity
  8
SMALL-TARGETS
100
AcDbPoint
 10
72.373008345287
 20
103.8622988860931
 30
0.0
  0
POINT
  5
FD
330
1F
100
AcDbEntity
  8
SMALL-TARGETS
100
AcDbPoint
 10
79.83407092893995
 20
83.48785875381002
 30
0.0
  0
POINT
  5
FE
330
1F
100
AcDbEntity
  8
SMALL-TARGETS
100
AcDbPoint
 10
84.37199364719385
 20
88.50133955740785
 30
0.0
  0
POINT
  5
FF
330
1F
100
AcDbEntity
  8
SMALL-TARGETS
100
AcDbPoint
 10
90.47216989414632
 20
92.77146293027458
 30
0.0
  0
POINT
  5
100
330
1F
100
AcDbEntity
  8
SMALL-TARGETS
100
AcDbPoint
 10
100.3849562954441
 20
99.4816568019223
 30
0.0
  0
POINT
  5
101
330
1F
100
AcDbEntity
  8
SMALL-TARGETS
100
AcDbPoint
 10
108.9252030411775
 20
105.429328642701
 30
0.0
  0
POINT
  5
102
330
1F
100
AcDbEntity
  8
SMALL-TARGETS
100
AcDbPoint
 10
116.3979189436943
 20
97.65160392783656
 30
0.0
  0
POINT
  5
103
330
1F
100
AcDbEntity
  8
SMALL-TARGETS
100
AcDbPoint
 10
121.5830687536039
 20
89.41636599445071
 30
0.0
  0
POINT
  5
104
330
1F
100
AcDbEntity
  8
SMALL-TARGETS
100
AcDbPoint
 10
128.7507758437731
 20
78.89356196845772
 30
0.0
  0
POINT
  5
105
330
1F
100
AcDbEntity
  8
SMALL-TARGETS
100
AcDbPoint
 10
120.2805302220192
 20
73.39850544557828
 30
0.0
  0
POINT
  5
106
330
1F
100
AcDbEntity
  8
SMALL-TARGETS
100
AcDbPoint
 10
181.7503412686084
 20
147.0677460116599
 30
0.0
  0
POINT
  5
107
330
1F
100
AcDbEntity
  8
SMALL-TARGETS
100
AcDbPoint
 10
156.7844780079236
 20
135.0152602996052
 30
0.0
  0
POINT
  5
108
330
1F
100
AcDbEntity
  8
SMALL-TARGETS
100
AcDbPoint
 10
145.3854801863382
 20
128.9193592529725
 30
0.0
  0
POINT
  5
109
330
1F
100
AcDbEntity
  8
SMALL-TARGETS
100
AcDbPoint
 10
133.9958811884464
 20
122.6434577643383
 30
0.0
  0
POINT
  5
10A
330
1F
100
AcDbEntity
  8
SMALL-TARGETS
100
AcDbPoint
 10
126.7902165163108
 20
117.5297602550807
 30
0.0
  0
POINT
  5
10B
330
1F
100
AcDbEntity
  8
SMALL-TARGETS
100
AcDbPoint
 10
132.6012364131944
 20
106.837483644815
 30
0.0
  0
POINT
  5
10C
330
1F
100
AcDbEntity
  8
SMALL-TARGETS
100
AcDbPoint
 10
142.3637498399587
 20
93.3559174840452
 30
0.0
  0
POINT
  5
10D
330
1F
100
AcDbEntity
  8
SMALL-TARGETS
100
AcDbPoint
 10
148.8720921244683
 20
90.5666279335411
 30
0.0
  0
POINT
  5
10E
330
1F
100
AcDbEntity
  8
SMALL-TARGETS
100
AcDbPoint
 10
153.5209080419751
 20
93.3559174840452
 30
0.0
  0
POINT
  5
10F
330
1F
100
AcDbEntity
  8
SMALL-TARGETS
100
AcDbPoint
 10
161.4238951017367
 20
96.61008862629997
 30
0.0
  0
POINT
  5
110
330
1F
100
AcDbEntity
  8
SMALL-TARGETS
100
AcDbPoint
 10
168.397118977997
 20
101.2589045438068
 30
0.0
  0
POINT
  5
111
330
1F
100
AcDbEntity
  8
SMALL-TARGETS
100
AcDbPoint
 10
176.3001060377586
 20
106.3726020530643
 30
0.0
  0
POINT
  5
112
330
1F
100
AcDbEntity
  8
SMALL-TARGETS
100
AcDbPoint
 10
184.9004154851463
 20
111.0214179705712
 30
0.0
  0
POINT
  5
113
330
1F
100
AcDbEntity
  8
SMALL-TARGETS
100
AcDbPoint
 10
192.3385209531572
 20
116.367556275704
 30
0.0
  0
POINT
  5
114
330
1F
100
AcDbEntity
  8
SMALL-TARGETS
100
AcDbPoint
 10
197.4522184624147
 20
119.1568458262081
 30
0.0
  0
POINT
  5
115
330
1F
100
AcDbEntity
  8
SMALL-TARGETS
100
AcDbPoint
 10
202.1010343799216
 20
124.0381025395903
 30
0.0
  0
POINT
  5
116
330
1F
100
AcDbEntity
  8
SMALL-TARGETS
100
AcDbPoint
 10
193.476053755032
 20
138.7910170199387
 30
0.0
  0
POINT
  5
117
330
1F
100
AcDbEntity
  8
SMALL-TARGETS
100
AcDbPoint
 10
267.5295944222245
 20
163.2730519120833
 30
0.0
  0
POINT
  5
118
330
1F
100
AcDbEntity
  8
SMALL-TARGETS
100
AcDbPoint
 10
265.8351010202933
 20
172.1220730110576
 30
0.0
  0
POINT
  5
119
330
1F
100
AcDbEntity
  8
SMALL-TARGETS
100
AcDbPoint
 10
256.7978028766599
 20
185.1131890925304
 30
0.0
  0
POINT
  5
11A
330
1F
100
AcDbEntity
  8
SMALL-TARGETS
100
AcDbPoint
 10
233.7934239185464
 20
116.5264604474811
 30
0.0
  0
POINT
  5
11B
330
1F
100
AcDbEntity
  8
SMALL-TARGETS
100
AcDbPoint
 10
253.0860099761998
 20
133.494638546381
 30
0.0
  0
POINT
  5
11C
330
1F
100
AcDbEntity
  8
SMALL-TARGETS
100
AcDbPoint
 10
266.800016932845
 20
140.7003032185166
 30
0.0
  0
POINT
  5
11D
330
1F
100
AcDbEntity
  8
SMALL-TARGETS
100
AcDbPoint
 10
276.7949711554847
 20
149.0681718700289
 30
0.0
  0
POINT
  5
11E
330
1F
100
AcDbEntity
  8
SMALL-TARGETS
100
AcDbPoint
 10
284.6979582152463
 20
140.9327440143919
 30
0.0
  0
POINT
  5
11F
330
1F
100
AcDbEntity
  8
SMALL-TARGETS
100
AcDbPoint
 10
290.2765373162545
 20
133.0297569546303
 30
0.0
  0
POINT
  5
120
330
1F
100
AcDbEntity
  8
SMALL-TARGETS
100
AcDbPoint
 10
293.5307084585093
 20
125.1267698948687
 30
0.0
  0
POINT
  5
121
330
1F
100
AcDbEntity
  8
SMALL-TARGETS
100
AcDbPoint
 10
273.5408000132299
 20
91.6552952888195
 30
0.0
  0
POINT
  5
122
330
1F
100
AcDbEntity
  8
SMALL-TARGETS
100
AcDbPoint
 10
281.4437870729915
 20
97.00143359395236
 30
0.0
  0
POINT
  5
123
330
1F
100
AcDbEntity
  8
SMALL-TARGETS
100
AcDbPoint
 10
256.2876259230613
 20
83.22384877814247
 30
0.0
  0
POINT
  5
124
330
1F
100
AcDbEntity
  8
SMALL-TARGETS
100
AcDbPoint
 10
250.548347012559
 20
93.84151476257165
 30
0.0
  0
POINT
  5
125
330
1F
100
AcDbEntity
  8
SMALL-TARGETS
100
AcDbPoint
 10
244.2351402110066
 20
99.86775761859903
 30
0.0
  0
POINT
  5
126
330
1F
100
AcDbEntity
  8
SMALL-TARGETS
100
AcDbPoint
 10
238.2088973549792
 20
109.6245317664529
 30
0.0
  0
POINT
  5
127
330
1F
100
AcDbEntity
  8
SMALL-TARGETS
100
AcDbPoint
 10
301.7606687901621
 20
161.1256253201579
 30
0.0
  0
POINT
  5
128
330
1F
100
AcDbEntity
  8
SMALL-TARGETS
100
AcDbPoint
 10
325.0047483776963
 20
178.6304259971898
 30
0.0
  0
POINT
  5
129
330
1F
100
AcDbEntity
  8
SMALL-TARGETS
100
AcDbPoint
 10
336.1963422531757
 20
183.7957770166418
 30
0.0
  0
POINT
  5
12A
330
1F
100
AcDbEntity
  8
SMALL-TARGETS
100
AcDbPoint
 10
274.4615868350742
 20
193.4153179984401
 30
0.0
  0
POINT
  5
12B
330
1F
100
AcDbEntity
  8
SMALL-TARGETS
100
AcDbPoint
 10
280.7747936366267
 20
183.9455077961114
 30
0.0
  0
POINT
  5
12C
330
1F
100
AcDbEntity
  8
SMALL-TARGETS
100
AcDbPoint
 10
276.2951541589233
 20
211.8030241431582
 30
0.0
  0
POINT
  5
12D
330
1F
100
AcDbEntity
  8
SMALL-TARGETS
100
AcDbPoint
 10
291.5042432717543
 20
219.8380146178614
 30
0.0
  0
POINT
  5
12E
330
1F
100
AcDbEntity
  8
SMALL-TARGETS
100
AcDbPoint
 10
321.6354575518911
 20
205.4898173416057
 30
0.0
  0
POINT
  5
12F
330
1F
100
AcDbEntity
  8
SMALL-TARGETS
100
AcDbPoint
 10
323.6442051705669
 20
197.1678629213774
 30
0.0
  0
POINT
  5
130
330
1F
100
AcDbEntity
  8
SMALL-TARGETS
100
AcDbPoint
 10
319.0527820421651
 20
194.2982234661263
 30
0.0
  0
POINT
  5
131
330
1F
100
AcDbEntity
  8
SMALL-TARGETS
100
AcDbPoint
 10
311.8786834040373
 20
190.2807282287747
 30
0.0
  0
POINT
  5
132
330
1F
100
AcDbEntity
  8
SMALL-TARGETS
100
AcDbPoint
 10
306.7133323845853
 20
187.1241248279985
 30
0.0
  0
POINT
  5
133
330
1F
100
AcDbEntity
  8
SMALL-TARGETS
100
AcDbPoint
 10
166.5312090627348
 20
163.1387591929364
 30
0.0
  0
POINT
  5
134
330
1F
100
AcDbEntity
  8
SMALL-TARGETS
100
AcDbPoint
 10
171.7194089607679
 20
161.0387735199231
 30
0.0
  0
POINT
  5
135
330
1F
100
AcDbEntity
  8
SMALL-TARGETS
100
AcDbPoint
 10
181.7252230498317
 20
166.3505019869569
 30
0.0
  0
POINT
  5
136
330
1F
100
AcDbEntity
  8
SMALL-TARGETS
100
AcDbPoint
 10
178.8840659628136
 20
187.22683014809
 30
0.0
  0
POINT
  5
137
330
1F
100
AcDbEntity
  8
SMALL-TARGETS
100
AcDbPoint
 10
161.8371234407049
 20
173.3916304200018
 30
0.0
  0
POINT
  5
138
330
1F
100
AcDbEntity
  8
SMALL-TARGETS
100
AcDbPoint
 10
198.8070621470598
 20
221.0491079779685
 30
0.0
  0
POINT
  5
139
330
1F
100
AcDbEntity
  8
SMALL-TARGETS
100
AcDbPoint
 10
208.2209143800111
 20
219.9194457100143
 30
0.0
  0
POINT
  5
13A
330
1F
100
AcDbEntity
  8
SMALL-TARGETS
100
AcDbPoint
 10
219.3292600148937
 20
208.4345459858137
 30
0.0
  0
POINT
  5
13B
330
1F
100
AcDbEntity
  8
SMALL-TARGETS
100
AcDbPoint
 10
223.8479090867103
 20
203.727619869338
 30
0.0
  0
POINT
  5
13C
330
1F
100
AcDbEntity
  8
SMALL-TARGETS
100
AcDbPoint
 10
228.366558158527
 20
197.3262003509311
 30
0.0
  0
POINT
  5
13D
330
1F
100
AcDbEntity
  8
SMALL-TARGETS
100
AcDbPoint
 10
220.8644990903231
 20
192.791773474495
 30
0.0
  0
POINT
  5
13E
330
1F
100
AcDbEntity
  8
SMALL-TARGETS
100
AcDbPoint
 10
212.5596733964001
 20
187.1885175846193
 30
0.0
  0
POINT
  5
13F
330
1F
100
AcDbEntity
  8
SMALL-TARGETS
100
AcDbPoint
 10
205.4954147725752
 20
182.3116529917196
 30
0.0
  0
POINT
  5
140
330
1F
100
AcDbEntity
  8
SMALL-TARGETS
100
AcDbPoint
 10
191.4778184812398
 20
193.4428694412771
 30
0.0
  0
POINT
  5
141
330
1F
100
AcDbEntity
  8
SMALL-TARGETS
100
AcDbPoint
 10
230.3423786939098
 20
239.159669530774
 30
0.0
  0
POINT
  5
142
330
1F
100
AcDbEntity
  8
SMALL-TARGETS
100
AcDbPoint
 10
238.814845703566
 20
238.9713924861149
 30
0.0
  0
POINT
  5
143
330
1F
100
AcDbEntity
  8
SMALL-TARGETS
100
AcDbPoint
 10
254.6301174549243
 20
214.3070996357824
 30
0.0
  0
POINT
  5
144
330
1F
100
AcDbEntity
  8
SMALL-TARGETS
100
AcDbPoint
 10
241.0741702394744
 20
207.5291260280574
 30
0.0
  0
POINT
  5
145
330
1F
100
AcDbEntity
  8
SMALL-TARGETS
100
AcDbPoint
 10
219.4223101036863
 20
232.569972967708
 30
0.0
  0
POINT
  5
146
330
1F
100
AcDbEntity
  8
SMALL-TARGETS
100
AcDbPoint
 10
285.1740325214433
 20
215.9773778578144
 30
0.0
  0
POINT
  5
147
330
1F
100
AcDbEntity
  8
SMALL-TARGETS
100
AcDbPoint
 10
294.8996838160133
 20
222.1369570110421
 30
0.0
  0
POINT
  5
148
330
1F
100
AcDbEntity
  8
SMALL-TARGETS
100
AcDbPoint
 10
306.0031357106474
 20
227.1618768465699
 30
0.0
  0
POINT
  5
149
330
1F
100
AcDbEntity
  8
SMALL-TARGETS
100
AcDbPoint
 10
313.8647038404249
 20
217.0309900813928
 30
0.0
  0
POINT
  5
14A
330
1F
100
AcDbEntity
  8
SMALL-TARGETS
100
AcDbPoint
 10
319.1665142034181
 20
237.0838772187371
 30
0.0
  0
POINT
  5
14B
330
1F
100
AcDbEntity
  8
SMALL-TARGETS
100
AcDbPoint
 10
325.7135283604599
 20
225.2251345946615
 30
0.0
  0
POINT
  5
14C
330
1F
100
AcDbEntity
  8
SMALL-TARGETS
100
AcDbPoint
 10
330.7781996894922
 20
217.1957776096103
 30
0.0
  0
POINT
  5
14D
330
1F
100
AcDbEntity
  8
SMALL-TARGETS
100
AcDbPoint
 10
336.5840424325292
 20
209.0428920555583
 30
0.0
  0
POINT
  5
14E
330
1F
100
AcDbEntity
  8
SMALL-TARGETS
100
AcDbPoint
 10
343.7300541705652
 20
254.3032581673999
 30
0.0
  0
POINT
  5
14F
330
1F
100
AcDbEntity
  8
SMALL-TARGETS
100
AcDbPoint
 10
211.040251416147
 20
310.6395683482251
 30
0.0
  0
POINT
  5
150
330
1F
100
AcDbEntity
  8
SMALL-TARGETS
100
AcDbPoint
 10
213.9094420031031
 20
303.311838070575
 30
0.0
  0
POINT
  5
151
330
1F
100
AcDbEntity
  8
SMALL-TARGETS
100
AcDbPoint
 10
222.1936319681002
 20
292.3917694803515
 30
0.0
  0
POINT
  5
152
330
1F
100
AcDbEntity
  8
SMALL-TARGETS
100
AcDbPoint
 10
226.3357269505989
 20
285.0489647386494
 30
0.0
  0
POINT
  5
153
330
1F
100
AcDbEntity
  8
SMALL-TARGETS
100
AcDbPoint
 10
231.6074842010516
 20
278.6475452202425
 30
0.0
  0
POINT
  5
154
330
1F
100
AcDbEntity
  8
SMALL-TARGETS
100
AcDbPoint
 10
236.5026873621863
 20
270.3633552552453
 30
0.0
  0
POINT
  5
155
330
1F
100
AcDbEntity
  8
SMALL-TARGETS
100
AcDbPoint
 10
240.8330593893439
 20
265.2798750494516
 30
0.0
  0
POINT
  5
156
330
1F
100
AcDbEntity
  8
SMALL-TARGETS
100
AcDbPoint
 10
246.2930936844557
 20
253.0418671466149
 30
0.0
  0
POINT
  5
157
330
1F
100
AcDbEntity
  8
SMALL-TARGETS
100
AcDbPoint
 10
251.8381762989387
 20
246.4182801415824
 30
0.0
  0
POINT
  5
158
330
1F
100
AcDbEntity
  8
SMALL-TARGETS
100
AcDbPoint
 10
257.4167553999469
 20
238.2828522859454
 30
0.0
  0
POINT
  5
159
330
1F
100
AcDbEntity
  8
SMALL-TARGETS
100
AcDbPoint
 10
266.0170648473345
 20
225.033726921051
 30
0.0
  0
POINT
  5
15A
330
1F
100
AcDbEntity
  8
SMALL-TARGETS
100
AcDbPoint
 10
275.5471374782235
 20
228.9852204509318
 30
0.0
  0
POINT
  5
15B
330
1F
100
AcDbEntity
  8
SMALL-TARGETS
100
AcDbPoint
 10
291.1206708018714
 20
240.6072602446989
 30
0.0
  0
POINT
  5
15C
330
1F
100
AcDbEntity
  8
SMALL-TARGETS
100
AcDbPoint
 10
297.1641314946303
 20
242.4667866117016
 30
0.0
  0
POINT
  5
15D
330
1F
100
AcDbEntity
  8
SMALL-TARGETS
100
AcDbPoint
 10
284.2340908321155
 20
259.0330938212049
 30
0.0
  0
POINT
  5
15E
330
1F
100
AcDbEntity
  8
SMALL-TARGETS
100
AcDbPoint
 10
280.2802728942759
 20
267.5055608308612
 30
0.0
  0
POINT
  5
15F
330
1F
100
AcDbEntity
  8
SMALL-TARGETS
100
AcDbPoint
 10
277.4561172243905
 20
276.3545819298354
 30
0.0
  0
POINT
  5
160
330
1F
100
AcDbEntity
  8
SMALL-TARGETS
100
AcDbPoint
 10
271.0546977059836
 20
285.7684341627868
 30
0.0
  0
POINT
  5
161
330
1F
100
AcDbEntity
  8
SMALL-TARGETS
100
AcDbPoint
 10
265.5946634108718
 20
292.3581307258527
 30
0.0
  0
POINT
  5
162
330
1F
100
AcDbEntity
  8
SMALL-TARGETS
100
AcDbPoint
 10
257.6870275351927
 20
303.2781993160763
 30
0.0
  0
POINT
  5
163
330
1F
100
AcDbEntity
  8
SMALL-TARGETS
100
AcDbPoint
 10
253.7332095973532
 20
312.3154974597095
 30
0.0
  0
POINT
  5
164
330
1F
100
AcDbEntity
  8
SMALL-TARGETS
100
AcDbPoint
 10
245.117361641796
 20
325.1352496277811
 30
0.0
  0
POINT
  5
165
330
1F
100
AcDbEntity
  8
SMALL-TARGETS
100
AcDbPoint
 10
236.8409475187432
 20
325.6293639037843
 30
0.0
  0
POINT
  5
166
330
1F
100
AcDbEntity
  8
SMALL-TARGETS
100
AcDbPoint
 10
228.9351191026928
 20
321.5529211267583
 30
0.0
  0
POINT
  5
167
330
1F
100
AcDbEntity
  8
SMALL-TARGETS
100
AcDbPoint
 10
221.2763478246439
 20
316.6117783667268
 30
0.0
  0
POINT
  5
168
330
1F
100
AcDbEntity
  8
SMALL-TARGETS
100
AcDbPoint
 10
256.9420393699136
 20
338.5484744755108
 30
0.0
  0
POINT
  5
169
330
1F
100
AcDbEntity
  8
SMALL-TARGETS
100
AcDbPoint
 10
259.2296054625208
 20
330.0082277297774
 30
0.0
  0
POINT
  5
16A
330
1F
100
AcDbEntity
  8
SMALL-TARGETS
100
AcDbPoint
 10
266.2448081465162
 20
320.5529545470011
 30
0.0
  0
POINT
  5
16B
330
1F
100
AcDbEntity
  8
SMALL-TARGETS
100
AcDbPoint
 10
275.5475769231187
 20
306.827557991358
 30
0.0
  0
POINT
  5
16C
330
1F
100
AcDbEntity
  8
SMALL-TARGETS
100
AcDbPoint
 10
285.1514087272849
 20
290.0623002888638
 30
0.0
  0
POINT
  5
16D
330
1F
100
AcDbEntity
  8
SMALL-TARGETS
100
AcDbPoint
 10
292.4194475399528
 20
278.57388399192
 30
0.0
  0
POINT
  5
16E
330
1F
100
AcDbEntity
  8
SMALL-TARGETS
100
AcDbPoint
 10
298.2183775007399
 20
271.154391751997
 30
0.0
  0
POINT
  5
16F
330
1F
100
AcDbEntity
  8
SMALL-TARGETS
100
AcDbPoint
 10
311.9125553857098
 20
254.2456065019181
 30
0.0
  0
POINT
  5
170
330
1F
100
AcDbEntity
  8
SMALL-TARGETS
100
AcDbPoint
 10
328.0219160691025
 20
264.7517112954351
 30
0.0
  0
POINT
  5
171
330
1F
100
AcDbEntity
  8
SMALL-TARGETS
100
AcDbPoint
 10
335.25169307785
 20
282.5053942041466
 30
0.0
  0
POINT
  5
172
330
1F
100
AcDbEntity
  8
SMALL-TARGETS
100
AcDbPoint
 10
328.347681356396
 20
292.3110920114291
 30
0.0
  0
POINT
  5
173
330
1F
100
AcDbEntity
  8
SMALL-TARGETS
100
AcDbPoint
 10
322.7444254665203
 20
299.6153362964456
 30
0.0
  0
POINT
  5
174
330
1F
100
AcDbEntity
  8
SMALL-TARGETS
100
AcDbPoint
 10
314.397169657813
 20
312.7274348764442
 30
0.0
  0
POINT
  5
175
330
1F
100
AcDbEntity
  8
SMALL-TARGETS
100
AcDbPoint
 10
308.6632299181313
 20
320.7304895583566
 30
0.0
  0
POINT
  5
176
330
1F
100
AcDbEntity
  8
SMALL-TARGETS
100
AcDbPoint
 10
304.7601174735262
 20
330.8965995350736
 30
0.0
  0
POINT
  5
177
330
1F
100
AcDbEntity
  8
SMALL-TARGETS
100
AcDbPoint
 10
297.7449147895309
 20
339.5893506869809
 30
0.0
  0
POINT
  5
178
330
1F
100
AcDbEntity
  8
SMALL-TARGETS
100
AcDbPoint
 10
294.2766877848719
 20
348.4651058217781
 30
0.0
  0
POINT
  5
179
330
1F
100
AcDbEntity
  8
SMALL-TARGETS
100
AcDbPoint
 10
274.3350133778562
 20
351.8456252421112
 30
0.0
  0
POINT
  5
17A
330
1F
100
AcDbEntity
  8
SMALL-TARGETS
100
AcDbPoint
 10
266.4304202474958
 20
346.4424856340167
 30
0.0
  0
POINT
  5
17B
330
1F
100
AcDbEntity
  8
SMALL-TARGETS
100
AcDbPoint
 10
305.3596191351903
 20
354.5563907441665
 30
0.0
  0
POINT
  5
17C
330
1F
100
AcDbEntity
  8
SMALL-TARGETS
100
AcDbPoint
 10
310.9381982361985
 20
347.5831668679063
 30
0.0
  0
POINT
  5
17D
330
1F
100
AcDbEntity
  8
SMALL-TARGETS
100
AcDbPoint
 10
314.4248101743286
 20
342.4694693586488
 30
0.0
  0
POINT
  5
17E
330
1F
100
AcDbEntity
  8
SMALL-TARGETS
100
AcDbPoint
 10
316.9816589289574
 20
337.1233310535159
 30
0.0
  0
POINT
  5
17F
330
1F
100
AcDbEntity
  8
SMALL-TARGETS
100
AcDbPoint
 10
322.0953564382149
 20
330.8474295648817
 30
0.0
  0
POINT
  5
180
330
1F
100
AcDbEntity
  8
SMALL-TARGETS
100
AcDbPoint
 10
326.9766131515971
 20
323.1768833009954
 30
0.0
  0
POINT
  5
181
330
1F
100
AcDbEntity
  8
SMALL-TARGETS
100
AcDbPoint
 10
330.2307842938519
 20
318.0631857917379
 30
0.0
  0
POINT
  5
182
330
1F
100
AcDbEntity
  8
SMALL-TARGETS
100
AcDbPoint
 10
333.4849554361066
 20
314.1116922618571
 30
0.0
  0
POINT
  5
183
330
1F
100
AcDbEntity
  8
SMALL-TARGETS
100
AcDbPoint
 10
338.3662121494888
 20
305.2789420185941
 30
0.0
  0
POINT
  5
184
330
1F
100
AcDbEntity
  8
SMALL-TARGETS
100
AcDbPoint
 10
307.4802663867995
 20
449.451949730537
 30
0.0
  0
POINT
  5
185
330
1F
100
AcDbEntity
  8
SMALL-TARGETS
100
AcDbPoint
 10
312.1290823043063
 20
442.013844262526
 30
0.0
  0
POINT
  5
186
330
1F
100
AcDbEntity
  8
SMALL-TARGETS
100
AcDbPoint
 10
317.7076614053145
 20
433.8784164068891
 30
0.0
  0
POINT
  5
187
330
1F
100
AcDbEntity
  8
SMALL-TARGETS
100
AcDbPoint
 10
325.6106484650761
 20
424.3483437760001
 30
0.0
  0
POINT
  5
188
330
1F
100
AcDbEntity
  8
SMALL-TARGETS
100
AcDbPoint
 10
332.351431545461
 20
410.4018960234796
 30
0.0
  0
POINT
  5
189
330
1F
100
AcDbEntity
  8
SMALL-TARGETS
100
AcDbPoint
 10
291.4096967266817
 20
389.5463795380834
 30
0.0
  0
POINT
  5
18A
330
1F
100
AcDbEntity
  8
SMALL-TARGETS
100
AcDbPoint
 10
313.2189565865904
 20
412.5034951800924
 30
0.0
  0
POINT
  5
18B
330
1F
100
AcDbEntity
  8
SMALL-TARGETS
100
AcDbPoint
 10
227.9867506539968
 20
90.96725961241036
 30
0.0
  0
POINT
  5
18C
330
1F
100
AcDbEntity
  8
SMALL-TARGETS
100
AcDbPoint
 10
165.9352786065737
 20
387.2696605461577
 30
0.0
  0
POINT
  5
18D
330
1F
100
AcDbEntity
  8
SMALL-TARGETS
100
AcDbPoint
 10
182.238146222631
 20
437.9651961294538
 30
0.0
  0
POINT
  5
18E
330
1F
100
AcDbEntity
  8
SMALL-TARGETS
100
AcDbPoint
 10
205.1514604865871
 20
433.762754212047
 30
0.0
  0
POINT
  5
18F
330
1F
100
AcDbEntity
  8
SMALL-TARGETS
100
AcDbPoint
 10
226.5537634287135
 20
426.682226356619
 30
0.0
  0
POINT
  5
190
330
1F
100
AcDbEntity
  8
SMALL-TARGETS
100
AcDbPoint
 10
265.9075295786258
 20
206.1992305578512
 30
0.0
  0
POINT
  5
191
330
1F
100
AcDbEntity
  8
SMALL-TARGETS
100
AcDbPoint
 10
335.6862068926952
 20
371.9047896665847
 30
0.0
  0
ENDSEC
  0
SECTION
  2
OBJECTS
  0
DICTIONARY
  5
C
330
0
100
AcDbDictionary
281
     1
  3
ACAD_GROUP
350
D
  3
ACAD_LAYOUT
350
1A
  3
ACAD_MLEADERSTYLE
350
193
  3
ACAD_MLINESTYLE
350
17
  3
ACAD_PLOTSETTINGS
350
19
  3
ACAD_PLOTSTYLENAME
350
E
  3
ACAD_TABLESTYLE
350
192
  3
ACAD_VISUALSTYLE
350
2A
  0
DICTIONARY
  5
D
102
{ACAD_REACTORS
330
C
102
}
330
C
100
AcDbDictionary
281
     1
  0
DICTIONARY
  5
1A
102
{ACAD_REACTORS
330
C
102
}
330
C
100
AcDbDictionary
281
     1
  3
Layout1
350
1E
  3
Layout2
350
26
  3
Model
350
22
  0
DICTIONARY
  5
193
102
{ACAD_REACTORS
330
C
102
}
330
C
100
AcDbDictionary
281
     1
  0
DICTIONARY
  5
17
102
{ACAD_REACTORS
330
C
102
}
330
C
100
AcDbDictionary
281
     1
  3
Standard
350
18
  0
DICTIONARY
  5
19
102
{ACAD_REACTORS
330
C
102
}
330
C
100
AcDbDictionary
281
     1
  0
ACDBDICTIONARYWDFLT
  5
E
102
{ACAD_REACTORS
330
C
102
}
330
C
100
AcDbDictionary
281
     1
  3
Normal
350
F
100
AcDbDictionaryWithDefault
340
F
  0
DICTIONARY
  5
192
102
{ACAD_REACTORS
330
C
102
}
330
C
100
AcDbDictionary
281
     1
  0
DICTIONARY
  5
2A
102
{ACAD_REACTORS
330
C
102
}
330
C
100
AcDbDictionary
281
     1
  3
2dWireframe
350
2F
  3
3D Hidden
350
31
  3
3dWireframe
350
30
  3
Basic
350
32
  3
Brighten
350
36
  3
ColorChange
350
3A
  3
Conceptual
350
34
  3
Dim
350
35
  3
Facepattern
350
39
  3
Flat
350
2B
  3
FlatWithEdges
350
2C
  3
Gouraud
350
2D
  3
GouraudWithEdges
350
2E
  3
Linepattern
350
38
  3
Realistic
350
33
  3
Thicken
350
37
  0
LAYOUT
  5
1E
102
{ACAD_REACTORS
330
1A
102
}
330
1A
100
AcDbPlotSettings
  1

  2
none_device
  4

  6

 40
0.0
 41
0.0
 42
0.0
 43
0.0
 44
0.0
 45
0.0
 46
0.0
 47
0.0
 48
0.0
 49
0.0
140
0.0
141
0.0
142
1.0
143
1.0
 70
   688
 72
     0
 73
     0
 74
     5
  7

 75
    16
 76
     0
 77
     2
 78
   300
147
1.0
148
0.0
149
0.0
100
AcDbLayout
  1
Layout1
 70
     1
 71
     1
 10
0.0
 20
0.0
 11
12.0
 21
9.0
 12
0.0
 22
0.0
 32
0.0
 14
1.000000000000000E+20
 24
1.000000000000000E+20
 34
1.000000000000000E+20
 15
-1.000000000000000E+20
 25
-1.000000000000000E+20
 35
-1.000000000000000E+20
146
0.0
 13
0.0
 23
0.0
 33
0.0
 16
1.0
 26
0.0
 36
0.0
 17
0.0
 27
1.0
 37
0.0
 76
     0
330
1B
  0
LAYOUT
  5
26
102
{ACAD_REACTORS
330
1A
102
}
330
1A
100
AcDbPlotSettings
  1

  2
none_device
  4

  6

 40
0.0
 41
0.0
 42
0.0
 43
0.0
 44
0.0
 45
0.0
 46
0.0
 47
0.0
 48
0.0
 49
0.0
140
0.0
141
0.0
142
1.0
143
1.0
 70
   688
 72
     0
 73
     0
 74
     5
  7

 75
    16
 76
     0
 77
     2
 78
   300
147
1.0
148
0.0
149
0.0
100
AcDbLayout
  1
Layout2
 70
     1
 71
     2
 10
0.0
 20
0.0
 11
0.0
 21
0.0
 12
0.0
 22
0.0
 32
0.0
 14
0.0
 24
0.0
 34
0.0
 15
0.0
 25
0.0
 35
0.0
146
0.0
 13
0.0
 23
0.0
 33
0.0
 16
1.0
 26
0.0
 36
0.0
 17
0.0
 27
1.0
 37
0.0
 76
     0
330
23
  0
LAYOUT
  5
22
102
{ACAD_REACTORS
330
1A
102
}
330
1A
100
AcDbPlotSettings
  1

  2
none_device
  4

  6

 40
0.0
 41
0.0
 42
0.0
 43
0.0
 44
0.0
 45
0.0
 46
0.0
 47
0.0
 48
0.0
 49
0.0
140
0.0
141
0.0
142
1.0
143
1.0
 70
  1712
 72
     0
 73
     0
 74
     0
  7

 75
     0
 76
     0
 77
     2
 78
   300
147
1.0
148
0.0
149
0.0
100
AcDbLayout
  1
Model
 70
     1
 71
     0
 10
0.0
 20
0.0
 11
12.0
 21
9.0
 12
0.0
 22
0.0
 32
0.0
 14
53.57555444768671
 24
73.39850544557828
 34
0.0
 15
343.7300541705652
 25
467.3629998999663
 35
0.0
146
0.0
 13
0.0
 23
0.0
 33
0.0
 16
1.0
 26
0.0
 36
0.0
 17
0.0
 27
1.0
 37
0.0
 76
     0
330
1F
331
29
  0
MLINESTYLE
  5
18
102
{ACAD_REACTORS
330
17
102
}
330
17
100
AcDbMlineStyle
  2
Standard
 70
     0
  3

 62
   256
 51
90.0
 52
90.0
 71
     2
 49
0.5
 62
   256
  6
BYLAYER
 49
-0.5
 62
   256
  6
BYLAYER
  0
ACDBPLACEHOLDER
  5
F
102
{ACAD_REACTORS
330
E
102
}
330
E
  0
VISUALSTYLE
  5
2F
102
{ACAD_REACTORS
330
2A
102
}
330
2A
100
AcDbVisualStyle
  2
2dWireframe
 70
     4
 71
     0
 72
     2
 73
     0
 90
        0
 40
-0.6
 41
-30.0
 62
     5
 63
     7
421
 16777215
 74
     1
 91
        4
 64
     7
 65
   257
 75
     1
175
     1
 42
1.0
 92
        0
 66
   257
 43
1.0
 76
     1
 77
     6
 78
     2
 67
     7
 79
     5
170
     0
171
     0
290
     0
174
     0
 93
        1
 44
0.0
173
     0
291
     0
 45
0.0
1001
ACAD
1000
AcDbSavedByObjectVersion
1070
     0
  0
VISUALSTYLE
  5
31
102
{ACAD_REACTORS
330
2A
102
}
330
2A
100
AcDbVisualStyle
  2
3D Hidden
 70
     6
 71
     1
 72
     2
 73
     2
 90
        0
 40
-0.6
 41
-30.0
 62
     5
 63
     7
421
 16777215
 74
     2
 91
        2
 64
     7
 65
   257
 75
     2
175
     1
 42
40.0
 92
        0
 66
   257
 43
1.0
 76
     1
 77
     6
 78
     2
 67
     7
 79
     3
170
     0
171
     0
290
     0
174
     0
 93
        1
 44
0.0
173
     0
291
     0
 45
0.0
1001
ACAD
1000
AcDbSavedByObjectVersion
1070
     0
  0
VISUALSTYLE
  5
30
102
{ACAD_REACTORS
330
2A
102
}
330
2A
100
AcDbVisualStyle
  2
3dWireframe
 70
     5
 71
     0
 72
     2
 73
     0
 90
        0
 40
-0.6
 41
-30.0
 62
     5
 63
     7
421
 16777215
 74
     1
 91
        4
 64
     7
 65
   257
 75
     1
175
     1
 42
1.0
 92
        0
 66
   257
 43
1.0
 76
     1
 77
     6
 78
     2
 67
     7
 79
     5
170
     0
171
     0
290
     0
174
     0
 93
        1
 44
0.0
173
     0
291
     0
 45
0.0
1001
ACAD
1000
AcDbSavedByObjectVersion
1070
     0
  0
VISUALSTYLE
  5
32
102
{ACAD_REACTORS
330
2A
102
}
330
2A
100
AcDbVisualStyle
  2
Basic
 70
     7
 71
     1
 72
     0
 73
     1
 90
        0
 40
-0.6
 41
-30.0
 62
     5
 63
     7
421
 16777215
 74
     0
 91
        4
 64
     7
 65
   257
 75
     1
175
     1
 42
1.0
 92
        8
 66
     7
 43
1.0
 76
     1
 77
     6
 78
     2
 67
     7
 79
     5
170
     0
171
     0
290
     0
174
     0
 93
        1
 44
0.0
173
     0
291
     1
 45
0.0
1001
ACAD
1000
AcDbSavedByObjectVersion
1070
     0
  0
VISUALSTYLE
  5
36
102
{ACAD_REACTORS
330
2A
102
}
330
2A
100
AcDbVisualStyle
  2
Brighten
 70
    12
 71
     2
 72
     2
 73
     0
 90
        0
 40
-0.6
 41
-30.0
 62
     5
 63
     7
421
 16777215
 74
     1
 91
        4
 64
     7
 65
   257
 75
     1
175
     1
 42
1.0
 92
        8
 66
     7
 43
1.0
 76
     1
 77
     6
 78
     2
 67
     7
 79
     5
170
     0
171
     0
290
     0
174
     0
 93
        1
 44
50.0
173
     0
291
     1
 45
0.0
1001
ACAD
1000
AcDbSavedByObjectVersion
1070
     0
  0
VISUALSTYLE
  5
3A
102
{ACAD_REACTORS
330
2A
102
}
330
2A
100
AcDbVisualStyle
  2
ColorChange
 70
    16
 71
     2
 72
     2
 73
     3
 90
        0
 40
-0.6
 41
-30.0
 62
     5
 63
     8
421
  8421504
 74
     1
 91
        4
 64
     7
 65
   257
 75
     1
175
     1
 42
1.0
 92
        8
 66
     8
424
  8421504
 43
1.0
 76
     1
 77
     6
 78
     2
 67
     7
 79
     5
170
     0
171
     0
290
     0
174
     0
 93
        1
 44
0.0
173
     0
291
     1
 45
0.0
1001
ACAD
1000
AcDbSavedByObjectVersion
1070
     0
  0
VISUALSTYLE
  5
34
102
{ACAD_REACTORS
330
2A
102
}
330
2A
100
AcDbVisualStyle
  2
Conceptual
 70
     9
 71
     3
 72
     2
 73
     0
 90
        0
 40
-0.6
 41
-30.0
 62
     5
 63
     7
421
 16777215
 74
     2
 91
        2
 64
     7
 65
   257
 75
     1
175
     1
 42
40.0
 92
        8
 66
     7
 43
1.0
 76
     1
 77
     6
 78
     2
 67
     7
 79
     3
170
     0
171
     0
290
     0
174
     0
 93
        1
 44
0.0
173
     0
291
     0
 45
0.0
1001
ACAD
1000
AcDbSavedByObjectVersion
1070
     0
  0
VISUALSTYLE
  5
35
102
{ACAD_REACTORS
330
2A
102
}
330
2A
100
AcDbVisualStyle
  2
Dim
 70
    11
 71
     2
 72
     2
 73
     0
 90
        0
 40
-0.6
 41
-30.0
 62
     5
 63
     7
421
 16777215
 74
     1
 91
        4
 64
     7
 65
   257
 75
     1
175
     1
 42
1.0
 92
        8
 66
     7
 43
1.0
 76
     1
 77
     6
 78
     2
 67
     7
 79
     5
170
     0
171
     0
290
     0
174
     0
 93
        1
 44
-50.0
173
     0
291
     1
 45
0.0
1001
ACAD
1000
AcDbSavedByObjectVersion
1070
     0
  0
VISUALSTYLE
  5
39
102
{ACAD_REACTORS
330
2A
102
}
330
2A
100
AcDbVisualStyle
  2
Facepattern
 70
    15
 71
     2
 72
     2
 73
     0
 90
        0
 40
-0.6
 41
-30.0
 62
     5
 63
     7
421
 16777215
 74
     1
 91
        4
 64
     7
 65
   257
 75
     1
175
     1
 42
1.0
 92
        8
 66
     7
 43
1.0
 76
     1
 77
     6
 78
     2
 67
     7
 79
     5
170
     0
171
     0
290
     0
174
     0
 93
        1
 44
0.0
173
     0
291
     1
 45
0.0
1001
ACAD
1000
AcDbSavedByObjectVersion
1070
     0
  0
VISUALSTYLE
  5
2B
102
{ACAD_REACTORS
330
2A
102
}
330
2A
100
AcDbVisualStyle
  2
Flat
 70
     0
 71
     2
 72
     1
 73
     1
 90
        2
 40
-0.6
 41
30.0
 62
     5
 63
     7
421
 16777215
 74
     0
 91
        4
 64
     7
 65
   257
 75
     1
175
     1
 42
1.0
 92
        8
 66
     7
 43
1.0
 76
     1
 77
     6
 78
     2
 67
     7
 79
     5
170
     0
171
     0
290
     0
174
     0
 93
       13
 44
0.0
173
     0
291
     1
 45
0.0
1001
ACAD
1000
AcDbSavedByObjectVersion
1070
     0
  0
VISUALSTYLE
  5
2C
102
{ACAD_REACTORS
330
2A
102
}
330
2A
100
AcDbVisualStyle
  2
FlatWithEdges
 70
     1
 71
     2
 72
     1
 73
     1
 90
        2
 40
-0.6
 41
30.0
 62
     5
 63
     7
421
 16777215
 74
     1
 91
        4
 64
     7
 65
   257
 75
     1
175
     1
 42
1.0
 92
        0
 66
   257
 43
1.0
 76
     1
 77
     6
 78
     2
 67
     7
 79
     5
170
     0
171
     0
290
     0
174
     0
 93
       13
 44
0.0
173
     0
291
     1
 45
0.0
1001
ACAD
1000
AcDbSavedByObjectVersion
1070
     0
  0
VISUALSTYLE
  5
2D
102
{ACAD_REACTORS
330
2A
102
}
330
2A
100
AcDbVisualStyle
  2
Gouraud
 70
     2
 71
     2
 72
     2
 73
     1
 90
        2
 40
-0.6
 41
30.0
 62
     5
 63
     7
421
 16777215
 74
     0
 91
        4
 64
     7
 65
   257
 75
     1
175
     1
 42
1.0
 92
        0
 66
     7
 43
1.0
 76
     1
 77
     6
 78
     2
 67
     7
 79
     5
170
     0
171
     0
290
     0
174
     0
 93
       13
 44
0.0
173
     0
291
     1
 45
0.0
1001
ACAD
1000
AcDbSavedByObjectVersion
1070
     0
  0
VISUALSTYLE
  5
2E
102
{ACAD_REACTORS
330
2A
102
}
330
2A
100
AcDbVisualStyle
  2
GouraudWithEdges
 70
     3
 71
     2
 72
     2
 73
     1
 90
        2
 40
-0.6
 41
30.0
 62
     5
 63
     7
421
 16777215
 74
     1
 91
        4
 64
     7
 65
   257
 75
     1
175
     1
 42
1.0
 92
        0
 66
   257
 43
1.0
 76
     1
 77
     6
 78
     2
 67
     7
 79
     5
170
     0
171
     0
290
     0
174
     0
 93
       13
 44
0.0
173
     0
291
     1
 45
0.0
1001
ACAD
1000
AcDbSavedByObjectVersion
1070
     0
  0
VISUALSTYLE
  5
38
102
{ACAD_REACTORS
330
2A
102
}
330
2A
100
AcDbVisualStyle
  2
Linepattern
 70
    14
 71
     2
 72
     2
 73
     0
 90
        0
 40
-0.6
 41
-30.0
 62
     5
 63
     7
421
 16777215
 74
     1
 91
        4
 64
     7
 65
   257
 75
     7
175
     7
 42
1.0
 92
        8
 66
     7
 43
1.0
 76
     1
 77
     6
 78
     2
 67
     7
 79
     5
170
     0
171
     0
290
     0
174
     0
 93
        1
 44
0.0
173
     0
291
     1
 45
0.0
1001
ACAD
1000
AcDbSavedByObjectVersion
1070
     0
  0
VISUALSTYLE
  5
33
102
{ACAD_REACTORS
330
2A
102
}
330
2A
100
AcDbVisualStyle
  2
Realistic
 70
     8
 71
     2
 72
     2
 73
     0
 90
        0
 40
-0.6
 41
-30.0
 62
     5
 63
     7
421
 16777215
 74
     1
 91
        0
 64
     7
 65
   257
 75
     1
175
     1
 42
1.0
 92
        8
 66
     8
424
  7895160
 43
1.0
 76
     1
 77
     6
 78
     2
 67
     7
 79
     5
170
     0
171
     0
290
     0
174
     0
 93
       13
 44
0.0
173
     0
291
     0
 45
0.0
1001
ACAD
1000
AcDbSavedByObjectVersion
1070
     0
  0
VISUALSTYLE
  5
37
102
{ACAD_REACTORS
330
2A
102
}
330
2A
100
AcDbVisualStyle
  2
Thicken
 70
    13
 71
     2
 72
     2
 73
     0
 90
        0
 40
-0.6
 41
-30.0
 62
     5
 63
     7
421
 16777215
 74
     1
 91
        4
 64
     7
 65
   257
 75
     1
175
     1
 42
1.0
 92
       12
 66
     7
 43
1.0
 76
     1
 77
     6
 78
     2
 67
     7
 79
     5
170
     0
171
     0
290
     0
174
     0
 93
        1
 44
0.0
173
     0
291
     1
 45
0.0
1001
ACAD
1000
AcDbSavedByObjectVersion
1070
     0
  0
ENDSEC
  0
EOF
