<?xml version="1.0" encoding="UTF-8" standalone="no"?>
<svg
   xmlns:dc="http://purl.org/dc/elements/1.1/"
   xmlns:cc="http://creativecommons.org/ns#"
   xmlns:rdf="http://www.w3.org/1999/02/22-rdf-syntax-ns#"
   xmlns:svg="http://www.w3.org/2000/svg"
   xmlns="http://www.w3.org/2000/svg"
   xmlns:sodipodi="http://sodipodi.sourceforge.net/DTD/sodipodi-0.dtd"
   xmlns:inkscape="http://www.inkscape.org/namespaces/inkscape"
   width="744.094488189"
   height="1052.36220472"
   id="svg2"
   version="1.1"
   inkscape:version="0.48.4 r9939"
   sodipodi:docname="Small_targets_attractors.dxf">
  <metadata
     id="metadata711">
    <rdf:RDF>
      <cc:Work
         rdf:about="">
        <dc:format>image/svg+xml</dc:format>
        <dc:type
           rdf:resource="http://purl.org/dc/dcmitype/StillImage" />
        <dc:title></dc:title>
      </cc:Work>
    </rdf:RDF>
  </metadata>
  <sodipodi:namedview
     pagecolor="#ffffff"
     bordercolor="#666666"
     borderopacity="1"
     objecttolerance="10"
     gridtolerance="10"
     guidetolerance="10"
     inkscape:pageopacity="0"
     inkscape:pageshadow="2"
     inkscape:window-width="640"
     inkscape:window-height="480"
     id="namedview709"
     showgrid="false"
     inkscape:zoom="0.22425739"
     inkscape:cx="372.04724"
     inkscape:cy="882.91403"
     inkscape:window-x="0"
     inkscape:window-y="0"
     inkscape:window-maximized="0"
     inkscape:current-layer="g23" />
  <desc
     id="desc4">C:\Users\nek\Desktop\simulationProc2\Swarm_Eksarxeia2\map\Small_targets_attractors.dxf - scale = 1.000000</desc>
  <defs
     id="defs6">
    <marker
       refY="0.0"
       refX="0.0"
       style="overflow:visible"
       id="DistanceX"
       orient="auto">
      <path
         style="stroke:#000000; stroke-width:0.5"
         d="M 3,-3 L -3,3 M 0,-5 L  0,5"
         id="path9" />
    </marker>
    <pattern
       height="8"
       width="8"
       patternUnits="userSpaceOnUse"
       y="0"
       x="0"
       id="Hatch">
      <path
         linecap="square"
         stroke="#000000"
         stroke-width="0.25"
         d="M8 4 l-4,4"
         id="path12" />
      <path
         linecap="square"
         stroke="#000000"
         stroke-width="0.25"
         d="M6 2 l-4,4"
         id="path14" />
      <path
         linecap="square"
         stroke="#000000"
         stroke-width="0.25"
         d="M4 0 l-4,4"
         id="path16" />
    </pattern>
    <symbol
       id="*Model_Space" />
    <symbol
       id="*Paper_Space" />
    <symbol
       id="*Paper_Space0" />
  </defs>
  <g
     inkscape:label="0"
     inkscape:groupmode="layer"
     id="g21" />
  <g
     inkscape:label="SMALL-TARGETS"
     inkscape:groupmode="layer"
     id="g23">
    <path
       inkscape:dxfpoint="1"
       style="stroke:#ff0000;fill:#ff0000"
       d="m 346.689237866,-546.853476115 2.9375,-6.34375 0.8125,1.90625 6.84375,-6.84375 0,0 0.6875,0.6875 -6.84375,6.84375 1.90625,0.8125 z"
       id="path25" />
    <path
       inkscape:dxfpoint="1"
       style="stroke:#ff0000;fill:#ff0000"
       d="m 408.064589432,-536.17950193 2.9375,-6.34375 0.8125,1.90625 6.84375,-6.84375 0,0 0.6875,0.6875 -6.84375,6.84375 1.90625,0.8125 z"
       id="path27" />
    <path
       inkscape:dxfpoint="1"
       style="stroke:#ff0000;fill:#ff0000"
       d="m 438.752265215,-530.842514837 2.9375,-6.34375 0.8125,1.90625 6.84375,-6.84375 0,0 0.6875,0.6875 -6.84375,6.84375 1.90625,0.8125 z"
       id="path29" />
    <path
       inkscape:dxfpoint="1"
       style="stroke:#ff0000;fill:#ff0000"
       d="m 514.1372079,-516.165800332 2.9375,-6.34375 0.8125,1.90625 6.84375,-6.84375 0,0 0.6875,0.6875 -6.84375,6.84375 1.90625,0.8125 z"
       id="path31" />
    <path
       inkscape:dxfpoint="1"
       style="stroke:#ff0000;fill:#ff0000"
       d="m 550.161870776,-509.494566466 2.9375,-6.34375 0.8125,1.90625 6.84375,-6.84375 0,0 0.6875,0.6875 -6.84375,6.84375 1.90625,0.8125 z"
       id="path33" />
    <path
       inkscape:dxfpoint="1"
       style="stroke:#ff0000;fill:#ff0000"
       d="m 542.823513523,-452.789078606 2.9375,-6.34375 0.8125,1.90625 6.84375,-6.84375 0,0 0.6875,0.6875 -6.84375,6.84375 1.90625,0.8125 z"
       id="path35" />
    <path
       inkscape:dxfpoint="1"
       style="stroke:#ff0000;fill:#ff0000"
       d="m 532.816662724,-399.419207679 2.9375,-6.34375 0.8125,1.90625 6.84375,-6.84375 0,0 0.6875,0.6875 -6.84375,6.84375 1.90625,0.8125 z"
       id="path37" />
    <path
       inkscape:dxfpoint="1"
       style="stroke:#ff0000;fill:#ff0000"
       d="m 508.133097421,-382.741123015 2.9375,-6.34375 0.8125,1.90625 6.84375,-6.84375 0,0 0.6875,0.6875 -6.84375,6.84375 1.90625,0.8125 z"
       id="path39" />
    <path
       inkscape:dxfpoint="1"
       style="stroke:#ff0000;fill:#ff0000"
       d="m 349.687122337,-407.094628313 2.9375,-6.34375 0.8125,1.90625 6.84375,-6.84375 0,0 0.6875,0.6875 -6.84375,6.84375 1.90625,0.8125 z"
       id="path41" />
    <path
       inkscape:dxfpoint="1"
       style="stroke:#ff0000;fill:#ff0000"
       d="m 311.661089302,-415.767232339 2.9375,-6.34375 0.8125,1.90625 6.84375,-6.84375 0,0 0.6875,0.6875 -6.84375,6.84375 1.90625,0.8125 z"
       id="path43" />
    <path
       inkscape:dxfpoint="1"
       style="stroke:#ff0000;fill:#ff0000"
       d="m 330.340544126,-490.485051637 2.9375,-6.34375 0.8125,1.90625 6.84375,-6.84375 0,0 0.6875,0.6875 -6.84375,6.84375 1.90625,0.8125 z"
       id="path45" />
    <path
       inkscape:dxfpoint="1"
       style="stroke:#ff0000;fill:#ff0000"
       d="m 518.446577554,-310.405990883 2.9375,-6.34375 0.8125,1.90625 6.84375,-6.84375 0,0 0.6875,0.6875 -6.84375,6.84375 1.90625,0.8125 z"
       id="path47" />
    <path
       inkscape:dxfpoint="1"
       style="stroke:#ff0000;fill:#ff0000"
       d="m 392.540380803,-333.641898437 2.9375,-6.34375 0.8125,1.90625 6.84375,-6.84375 0,0 0.6875,0.6875 -6.84375,6.84375 1.90625,0.8125 z"
       id="path49" />
    <path
       inkscape:dxfpoint="1"
       style="stroke:#ff0000;fill:#ff0000"
       d="m 348.230045466,-342.828187471 2.9375,-6.34375 0.8125,1.90625 6.84375,-6.84375 0,0 0.6875,0.6875 -6.84375,6.84375 1.90625,0.8125 z"
       id="path51" />
    <path
       inkscape:dxfpoint="1"
       style="stroke:#ff0000;fill:#ff0000"
       d="m 584.326288595,-587.736773093 2.9375,-6.34375 0.8125,1.90625 6.84375,-6.84375 0,0 0.6875,0.6875 -6.84375,6.84375 1.90625,0.8125 z"
       id="path53" />
    <path
       inkscape:dxfpoint="1"
       style="stroke:#ff0000;fill:#ff0000"
       d="m 557.930154415,-593.581332802 2.9375,-6.34375 0.8125,1.90625 6.84375,-6.84375 0,0 0.6875,0.6875 -6.84375,6.84375 1.90625,0.8125 z"
       id="path55" />
    <path
       inkscape:dxfpoint="1"
       style="stroke:#ff0000;fill:#ff0000"
       d="m 534.732072756,-597.958329341 2.9375,-6.34375 0.8125,1.90625 6.84375,-6.84375 0,0 0.6875,0.6875 -6.84375,6.84375 1.90625,0.8125 z"
       id="path57" />
    <path
       inkscape:dxfpoint="1"
       style="stroke:#ff0000;fill:#ff0000"
       d="m 507.594694212,-603.648424842 2.9375,-6.34375 0.8125,1.90625 6.84375,-6.84375 0,0 0.6875,0.6875 -6.84375,6.84375 1.90625,0.8125 z"
       id="path59" />
    <path
       inkscape:dxfpoint="1"
       style="stroke:#ff0000;fill:#ff0000"
       d="m 662.835353192,-574.789638794 2.9375,-6.34375 0.8125,1.90625 6.84375,-6.84375 0,0 0.6875,0.6875 -6.84375,6.84375 1.90625,0.8125 z"
       id="path61" />
    <path
       inkscape:dxfpoint="1"
       style="stroke:#ff0000;fill:#ff0000"
       d="m 695.524399134,-566.117034768 2.9375,-6.34375 0.8125,1.90625 6.84375,-6.84375 0,0 0.6875,0.6875 -6.84375,6.84375 1.90625,0.8125 z"
       id="path63" />
    <path
       inkscape:dxfpoint="1"
       style="stroke:#ff0000;fill:#ff0000"
       d="m 774.642506241,-551.156920638 2.9375,-6.34375 0.8125,1.90625 6.84375,-6.84375 0,0 0.6875,0.6875 -6.84375,6.84375 1.90625,0.8125 z"
       id="path65" />
    <path
       inkscape:dxfpoint="1"
       style="stroke:#ff0000;fill:#ff0000"
       d="m 816.331362894,-544.039310966 2.9375,-6.34375 0.8125,1.90625 6.84375,-6.84375 0,0 0.6875,0.6875 -6.84375,6.84375 1.90625,0.8125 z"
       id="path67" />
    <path
       inkscape:dxfpoint="1"
       style="stroke:#ff0000;fill:#ff0000"
       d="m 902.325771578,-534.723399356 2.9375,-6.34375 0.8125,1.90625 6.84375,-6.84375 0,0 0.6875,0.6875 -6.84375,6.84375 1.90625,0.8125 z"
       id="path69" />
    <path
       inkscape:dxfpoint="1"
       style="stroke:#ff0000;fill:#ff0000"
       d="m 946.79411121,-562.979481433 2.9375,-6.34375 0.8125,1.90625 6.84375,-6.84375 0,0 0.6875,0.6875 -6.84375,6.84375 1.90625,0.8125 z"
       id="path71" />
    <path
       inkscape:dxfpoint="1"
       style="stroke:#ff0000;fill:#ff0000"
       d="m 973.391810951,-576.589337555 2.9375,-6.34375 0.8125,1.90625 6.84375,-6.84375 0,0 0.6875,0.6875 -6.84375,6.84375 1.90625,0.8125 z"
       id="path73" />
    <path
       inkscape:dxfpoint="1"
       style="stroke:#ff0000;fill:#ff0000"
       d="m 1001.06911714,-597.712617449 2.9375,-6.34375 0.8125,1.90625 6.84375,-6.84375 0,0 0.6875,0.6875 -6.84375,6.84375 1.90625,0.8125 z"
       id="path75" />
    <path
       inkscape:dxfpoint="1"
       style="stroke:#ff0000;fill:#ff0000"
       d="m 1067.81635897,-579.628053872 2.9375,-6.34375 0.8125,1.90625 6.84375,-6.84375 0,0 0.6875,0.6875 -6.84375,6.84375 1.90625,0.8125 z"
       id="path77" />
    <path
       inkscape:dxfpoint="1"
       style="stroke:#ff0000;fill:#ff0000"
       d="m 1027.53344172,-552.848170512 2.9375,-6.34375 0.8125,1.90625 6.84375,-6.84375 0,0 0.6875,0.6875 -6.84375,6.84375 1.90625,0.8125 z"
       id="path79" />
    <path
       inkscape:dxfpoint="1"
       style="stroke:#ff0000;fill:#ff0000"
       d="m 1005.37827405,-539.879291877 2.9375,-6.34375 0.8125,1.90625 6.84375,-6.84375 0,0 0.6875,0.6875 -6.84375,6.84375 1.90625,0.8125 z"
       id="path81" />
    <path
       inkscape:dxfpoint="1"
       style="stroke:#ff0000;fill:#ff0000"
       d="m 970.25422775,-512.86079472 2.9375,-6.34375 0.8125,1.90625 6.84375,-6.84375 0,0 0.6875,0.6875 -6.84375,6.84375 1.90625,0.8125 z"
       id="path83" />
    <path
       inkscape:dxfpoint="1"
       style="stroke:#ff0000;fill:#ff0000"
       d="m 866.227705673,-424.480526936 2.9375,-6.34375 0.8125,1.90625 6.84375,-6.84375 0,0 0.6875,0.6875 -6.84375,6.84375 1.90625,0.8125 z"
       id="path85" />
    <path
       inkscape:dxfpoint="1"
       style="stroke:#ff0000;fill:#ff0000"
       d="m 819.21552062,-399.623509552 2.9375,-6.34375 0.8125,1.90625 6.84375,-6.84375 0,0 0.6875,0.6875 -6.84375,6.84375 1.90625,0.8125 z"
       id="path87" />
    <path
       inkscape:dxfpoint="1"
       style="stroke:#ff0000;fill:#ff0000"
       d="m 780.308884715,-388.275740746 2.9375,-6.34375 0.8125,1.90625 6.84375,-6.84375 0,0 0.6875,0.6875 -6.84375,6.84375 1.90625,0.8125 z"
       id="path89" />
    <path
       inkscape:dxfpoint="1"
       style="stroke:#ff0000;fill:#ff0000"
       d="m 714.0448661,-337.544907672 2.9375,-6.34375 0.8125,1.90625 6.84375,-6.84375 0,0 0.6875,0.6875 -6.84375,6.84375 1.90625,0.8125 z"
       id="path91" />
    <path
       inkscape:dxfpoint="1"
       style="stroke:#ff0000;fill:#ff0000"
       d="m 678.020203224,-316.864082687 2.9375,-6.34375 0.8125,1.90625 6.84375,-6.84375 0,0 0.6875,0.6875 -6.84375,6.84375 1.90625,0.8125 z"
       id="path93" />
    <path
       inkscape:dxfpoint="1"
       style="stroke:#ff0000;fill:#ff0000"
       d="m 650.668144374,-300.185998023 2.9375,-6.34375 0.8125,1.90625 6.84375,-6.84375 0,0 0.6875,0.6875 -6.84375,6.84375 1.90625,0.8125 z"
       id="path95" />
    <path
       inkscape:dxfpoint="1"
       style="stroke:#ff0000;fill:#ff0000"
       d="m 605.379402962,-270.117231728 2.9375,-6.34375 0.8125,1.90625 6.84375,-6.84375 0,0 0.6875,0.6875 -6.84375,6.84375 1.90625,0.8125 z"
       id="path97" />
    <path
       inkscape:dxfpoint="1"
       style="stroke:#ff0000;fill:#ff0000"
       d="m 628.872520594,-232.317170598 2.9375,-6.34375 0.8125,1.90625 6.84375,-6.84375 0,0 0.6875,0.6875 -6.84375,6.84375 1.90625,0.8125 z"
       id="path99" />
    <path
       inkscape:dxfpoint="1"
       style="stroke:#ff0000;fill:#ff0000"
       d="m 920.721561174,-473.490641746 2.9375,-6.34375 0.8125,1.90625 6.84375,-6.84375 0,0 0.6875,0.6875 -6.84375,6.84375 1.90625,0.8125 z"
       id="path101" />
    <path
       inkscape:dxfpoint="1"
       style="stroke:#ff0000;fill:#ff0000"
       d="m 940.735262772,-434.797485324 2.9375,-6.34375 0.8125,1.90625 6.84375,-6.84375 0,0 0.6875,0.6875 -6.84375,6.84375 1.90625,0.8125 z"
       id="path103" />
    <path
       inkscape:dxfpoint="1"
       style="stroke:#ff0000;fill:#ff0000"
       d="m 976.092802261,-392.101588583 2.9375,-6.34375 0.8125,1.90625 6.84375,-6.84375 0,0 0.6875,0.6875 -6.84375,6.84375 1.90625,0.8125 z"
       id="path105" />
    <path
       inkscape:dxfpoint="1"
       style="stroke:#ff0000;fill:#ff0000"
       d="m 960.17343876,-299.202874357 2.9375,-6.34375 0.8125,1.90625 6.84375,-6.84375 0,0 0.6875,0.6875 -6.84375,6.84375 1.90625,0.8125 z"
       id="path107" />
    <path
       inkscape:dxfpoint="1"
       style="stroke:#ff0000;fill:#ff0000"
       d="m 909.109673367,-372.504085969 2.9375,-6.34375 0.8125,1.90625 6.84375,-6.84375 0,0 0.6875,0.6875 -6.84375,6.84375 1.90625,0.8125 z"
       id="path109" />
    <path
       inkscape:dxfpoint="1"
       style="stroke:#ff0000;fill:#ff0000"
       d="m 940.276816908,-257.408618934 2.9375,-6.34375 0.8125,1.90625 6.84375,-6.84375 0,0 0.6875,0.6875 -6.84375,6.84375 1.90625,0.8125 z"
       id="path111" />
    <path
       inkscape:dxfpoint="1"
       style="stroke:#ff0000;fill:#ff0000"
       d="m 923.525348671,-247.681959958 2.9375,-6.34375 0.8125,1.90625 6.84375,-6.84375 0,0 0.6875,0.6875 -6.84375,6.84375 1.90625,0.8125 z"
       id="path113" />
    <path
       inkscape:dxfpoint="1"
       style="stroke:#ff0000;fill:#ff0000"
       d="m 888.401302367,-236.874561095 2.9375,-6.34375 0.8125,1.90625 6.84375,-6.84375 0,0 0.6875,0.6875 -6.84375,6.84375 1.90625,0.8125 z"
       id="path115" />
    <path
       inkscape:dxfpoint="1"
       style="stroke:#ff0000;fill:#ff0000"
       d="m 852.73688612,-224.986422346 2.9375,-6.34375 0.8125,1.90625 6.84375,-6.84375 0,0 0.6875,0.6875 -6.84375,6.84375 1.90625,0.8125 z"
       id="path117" />
    <path
       inkscape:dxfpoint="1"
       style="stroke:#ff0000;fill:#ff0000"
       d="m 790.073737151,-325.340400938 2.9375,-6.34375 0.8125,1.90625 6.84375,-6.84375 0,0 0.6875,0.6875 -6.84375,6.84375 1.90625,0.8125 z"
       id="path119" />
    <path
       inkscape:dxfpoint="1"
       style="stroke:#ff0000;fill:#ff0000"
       d="m 1087.38480639,-338.052086308 2.9375,-6.34375 0.8125,1.90625 6.84375,-6.84375 0,0 0.6875,0.6875 -6.84375,6.84375 1.90625,0.8125 z"
       id="path121" />
    <path
       inkscape:dxfpoint="1"
       style="stroke:#ff0000;fill:#ff0000"
       d="m 1118.73960556,-359.400034678 2.9375,-6.34375 0.8125,1.90625 6.84375,-6.84375 0,0 0.6875,0.6875 -6.84375,6.84375 1.90625,0.8125 z"
       id="path123" />
    <path
       inkscape:dxfpoint="1"
       style="stroke:#ff0000;fill:#ff0000"
       d="m 1161.4355023,-305.363040365 2.9375,-6.34375 0.8125,1.90625 6.84375,-6.84375 0,0 0.6875,0.6875 -6.84375,6.84375 1.90625,0.8125 z"
       id="path125" />
    <path
       inkscape:dxfpoint="1"
       style="stroke:#ff0000;fill:#ff0000"
       d="m 1132.08207329,-295.356189566 2.9375,-6.34375 0.8125,1.90625 6.84375,-6.84375 0,0 0.6875,0.6875 -6.84375,6.84375 1.90625,0.8125 z"
       id="path127" />
    <path
       inkscape:dxfpoint="1"
       style="stroke:#ff0000;fill:#ff0000"
       d="m 1118.07248217,-287.350708927 2.9375,-6.34375 0.8125,1.90625 6.84375,-6.84375 0,0 0.6875,0.6875 -6.84375,6.84375 1.90625,0.8125 z"
       id="path129" />
    <path
       inkscape:dxfpoint="1"
       style="stroke:#ff0000;fill:#ff0000"
       d="m 1094.05604025,-270.005500876 2.9375,-6.34375 0.8125,1.90625 6.84375,-6.84375 0,0 0.6875,0.6875 -6.84375,6.84375 1.90625,0.8125 z"
       id="path131" />
    <path
       inkscape:dxfpoint="1"
       style="stroke:#ff0000;fill:#ff0000"
       d="m 1077.68588489,-258.634744601 2.9375,-6.34375 0.8125,1.90625 6.84375,-6.84375 0,0 0.6875,0.6875 -6.84375,6.84375 1.90625,0.8125 z"
       id="path133" />
    <path
       inkscape:dxfpoint="1"
       style="stroke:#ff0000;fill:#ff0000"
       d="m 1052.29930496,-242.877557059 2.9375,-6.34375 0.8125,1.90625 6.84375,-6.84375 0,0 0.6875,0.6875 -6.84375,6.84375 1.90625,0.8125 z"
       id="path135" />
    <path
       inkscape:dxfpoint="1"
       style="stroke:#ff0000;fill:#ff0000"
       d="m 728.219091699,-297.283753312 2.9375,-6.34375 0.8125,1.90625 6.84375,-6.84375 0,0 0.6875,0.6875 -6.84375,6.84375 1.90625,0.8125 z"
       id="path137" />
    <path
       inkscape:dxfpoint="1"
       style="stroke:#ff0000;fill:#ff0000"
       d="m 752.103756157,-273.399088854 2.9375,-6.34375 0.8125,1.90625 6.84375,-6.84375 0,0 0.6875,0.6875 -6.84375,6.84375 1.90625,0.8125 z"
       id="path139" />
    <path
       inkscape:dxfpoint="1"
       style="stroke:#ff0000;fill:#ff0000"
       d="m 774.581030763,-239.74398483 2.9375,-6.34375 0.8125,1.90625 6.84375,-6.84375 0,0 0.6875,0.6875 -6.84375,6.84375 1.90625,0.8125 z"
       id="path141" />
    <path
       inkscape:dxfpoint="1"
       style="stroke:#ff0000;fill:#ff0000"
       d="m 803.683888229,-200.087902511 2.9375,-6.34375 0.8125,1.90625 6.84375,-6.84375 0,0 0.6875,0.6875 -6.84375,6.84375 1.90625,0.8125 z"
       id="path143" />
    <path
       inkscape:dxfpoint="1"
       style="stroke:#ff0000;fill:#ff0000"
       d="m 812.121382669,-162.214149919 2.9375,-6.34375 0.8125,1.90625 6.84375,-6.84375 0,0 0.6875,0.6875 -6.84375,6.84375 1.90625,0.8125 z"
       id="path145" />
    <path
       inkscape:dxfpoint="1"
       style="stroke:#ff0000;fill:#ff0000"
       d="m 796.110421391,-149.538805574 2.9375,-6.34375 0.8125,1.90625 6.84375,-6.84375 0,0 0.6875,0.6875 -6.84375,6.84375 1.90625,0.8125 z"
       id="path147" />
    <path
       inkscape:dxfpoint="1"
       style="stroke:#ff0000;fill:#ff0000"
       d="m 760.085758515,-130.859350749 2.9375,-6.34375 0.8125,1.90625 6.84375,-6.84375 0,0 0.6875,0.6875 -6.84375,6.84375 1.90625,0.8125 z"
       id="path149" />
    <path
       inkscape:dxfpoint="1"
       style="stroke:#ff0000;fill:#ff0000"
       d="m 741.40630369,-113.514142698 2.9375,-6.34375 0.8125,1.90625 6.84375,-6.84375 0,0 0.6875,0.6875 -6.84375,6.84375 1.90625,0.8125 z"
       id="path151" />
    <path
       inkscape:dxfpoint="1"
       style="stroke:#ff0000;fill:#ff0000"
       d="m 710.718627907,-105.508662059 2.9375,-6.34375 0.8125,1.90625 6.84375,-6.84375 0,0 0.6875,0.6875 -6.84375,6.84375 1.90625,0.8125 z"
       id="path153" />
    <path
       inkscape:dxfpoint="1"
       style="stroke:#ff0000;fill:#ff0000"
       d="m 692.039173083,-140.866201548 2.9375,-6.34375 0.8125,1.90625 6.84375,-6.84375 0,0 0.6875,0.6875 -6.84375,6.84375 1.90625,0.8125 z"
       id="path155" />
    <path
       inkscape:dxfpoint="1"
       style="stroke:#ff0000;fill:#ff0000"
       d="m 683.589670396,-159.513141399 2.9375,-6.34375 0.8125,1.90625 6.84375,-6.84375 0,0 0.6875,0.6875 -6.84375,6.84375 1.90625,0.8125 z"
       id="path157" />
    <path
       inkscape:dxfpoint="1"
       style="stroke:#ff0000;fill:#ff0000"
       d="m 670.37963222,-176.743625976 2.9375,-6.34375 0.8125,1.90625 6.84375,-6.84375 0,0 0.6875,0.6875 -6.84375,6.84375 1.90625,0.8125 z"
       id="path159" />
    <path
       inkscape:dxfpoint="1"
       style="stroke:#ff0000;fill:#ff0000"
       d="m 660.328516217,-193.974110553 2.9375,-6.34375 0.8125,1.90625 6.84375,-6.84375 0,0 0.6875,0.6875 -6.84375,6.84375 1.90625,0.8125 z"
       id="path161" />
    <path
       inkscape:dxfpoint="1"
       style="stroke:#ff0000;fill:#ff0000"
       d="m 646.982703608,-212.910004292 2.9375,-6.34375 0.8125,1.90625 6.84375,-6.84375 0,0 0.6875,0.6875 -6.84375,6.84375 1.90625,0.8125 z"
       id="path163" />
    <path
       inkscape:dxfpoint="1"
       style="stroke:#ff0000;fill:#ff0000"
       d="m 670.917550982,-62.2225651931 2.9375,-6.34375 0.8125,1.90625 6.84375,-6.84375 0,0 0.6875,0.6875 -6.84375,6.84375 1.90625,0.8125 z"
       id="path165" />
    <path
       inkscape:dxfpoint="1"
       style="stroke:#ff0000;fill:#ff0000"
       d="m 656.911162055,-85.8583465058 2.9375,-6.34375 0.8125,1.90625 6.84375,-6.84375 0,0 0.6875,0.6875 -6.84375,6.84375 1.90625,0.8125 z"
       id="path167" />
    <path
       inkscape:dxfpoint="1"
       style="stroke:#ff0000;fill:#ff0000"
       d="m 641.591674168,-116.497322282 2.9375,-6.34375 0.8125,1.90625 6.84375,-6.84375 0,0 0.6875,0.6875 -6.84375,6.84375 1.90625,0.8125 z"
       id="path169" />
    <path
       inkscape:dxfpoint="1"
       style="stroke:#ff0000;fill:#ff0000"
       d="m 611.497600656,-158.318344354 2.9375,-6.34375 0.8125,1.90625 6.84375,-6.84375 0,0 0.6875,0.6875 -6.84375,6.84375 1.90625,0.8125 z"
       id="path171" />
    <path
       inkscape:dxfpoint="1"
       style="stroke:#ff0000;fill:#ff0000"
       d="m 590.910636607,-193.561933963 2.9375,-6.34375 0.8125,1.90625 6.84375,-6.84375 0,0 0.6875,0.6875 -6.84375,6.84375 1.90625,0.8125 z"
       id="path173" />
    <path
       inkscape:dxfpoint="1"
       style="stroke:#ff0000;fill:#ff0000"
       d="m 564.972879337,-233.549309755 2.9375,-6.34375 0.8125,1.90625 6.84375,-6.84375 0,0 0.6875,0.6875 -6.84375,6.84375 1.90625,0.8125 z"
       id="path175" />
    <path
       inkscape:dxfpoint="1"
       style="stroke:#ff0000;fill:#ff0000"
       d="m 542.817711668,-234.630049641 2.9375,-6.34375 0.8125,1.90625 6.84375,-6.84375 0,0 0.6875,0.6875 -6.84375,6.84375 1.90625,0.8125 z"
       id="path177" />
    <path
       inkscape:dxfpoint="1"
       style="stroke:#ff0000;fill:#ff0000"
       d="m 525.525873488,-225.443760608 2.9375,-6.34375 0.8125,1.90625 6.84375,-6.84375 0,0 0.6875,0.6875 -6.84375,6.84375 1.90625,0.8125 z"
       id="path179" />
    <path
       inkscape:dxfpoint="1"
       style="stroke:#ff0000;fill:#ff0000"
       d="m 506.612925478,-215.717101632 2.9375,-6.34375 0.8125,1.90625 6.84375,-6.84375 0,0 0.6875,0.6875 -6.84375,6.84375 1.90625,0.8125 z"
       id="path181" />
    <path
       inkscape:dxfpoint="1"
       style="stroke:#ff0000;fill:#ff0000"
       d="m 480.675168208,-202.748222996 2.9375,-6.34375 0.8125,1.90625 6.84375,-6.84375 0,0 0.6875,0.6875 -6.84375,6.84375 1.90625,0.8125 z"
       id="path183" />
    <path
       inkscape:dxfpoint="1"
       style="stroke:#ff0000;fill:#ff0000"
       d="m 488.780717355,-121.152361583 2.9375,-6.34375 0.8125,1.90625 6.84375,-6.84375 0,0 0.6875,0.6875 -6.84375,6.84375 1.90625,0.8125 z"
       id="path185" />
    <path
       inkscape:dxfpoint="1"
       style="stroke:#ff0000;fill:#ff0000"
       d="m 509.314775194,-87.6494251084 2.9375,-6.34375 0.8125,1.90625 6.84375,-6.84375 0,0 0.6875,0.6875 -6.84375,6.84375 1.90625,0.8125 z"
       id="path187" />
    <path
       inkscape:dxfpoint="1"
       style="stroke:#ff0000;fill:#ff0000"
       d="m 525.525873488,-66.034627383 2.9375,-6.34375 0.8125,1.90625 6.84375,-6.84375 0,0 0.6875,0.6875 -6.84375,6.84375 1.90625,0.8125 z"
       id="path189" />
    <path
       inkscape:dxfpoint="1"
       style="stroke:#ff0000;fill:#ff0000"
       d="m 535.792902407,-46.040939487 2.9375,-6.34375 0.8125,1.90625 6.84375,-6.84375 0,0 0.6875,0.6875 -6.84375,6.84375 1.90625,0.8125 z"
       id="path191" />
    <path
       inkscape:dxfpoint="1"
       style="stroke:#ff0000;fill:#ff0000"
       d="m 552.544370645,-17.9417024439 2.9375,-6.34375 0.8125,1.90625 6.84375,-6.84375 0,0 0.6875,0.6875 -6.84375,6.84375 1.90625,0.8125 z"
       id="path193" />
    <path
       inkscape:dxfpoint="1"
       style="stroke:#ff0000;fill:#ff0000"
       d="m 568.215098996,4.21346522462 2.9375,-6.34375 0.8125,1.90625 6.84375,-6.84375 0,0 0.6875,0.6875 -6.84375,6.84375 1.90625,0.8125 z"
       id="path195" />
    <path
       inkscape:dxfpoint="1"
       style="stroke:#ff0000;fill:#ff0000"
       d="m 594.152856266,-11.4572631263 2.9375,-6.34375 0.8125,1.90625 6.84375,-6.84375 0,0 0.6875,0.6875 -6.84375,6.84375 1.90625,0.8125 z"
       id="path197" />
    <path
       inkscape:dxfpoint="1"
       style="stroke:#ff0000;fill:#ff0000"
       d="m 613.065804276,-27.1279914772 2.9375,-6.34375 0.8125,1.90625 6.84375,-6.84375 0,0 0.6875,0.6875 -6.84375,6.84375 1.90625,0.8125 z"
       id="path199" />
    <path
       inkscape:dxfpoint="1"
       style="stroke:#ff0000;fill:#ff0000"
       d="m 640.624671376,-42.258349885 2.9375,-6.34375 0.8125,1.90625 6.84375,-6.84375 0,0 0.6875,0.6875 -6.84375,6.84375 1.90625,0.8125 z"
       id="path201" />
    <path
       inkscape:dxfpoint="1"
       style="stroke:#ff0000;fill:#ff0000"
       d="m 404.793189107,-144.538932785 2.9375,-6.34375 0.8125,1.90625 6.84375,-6.84375 0,0 0.6875,0.6875 -6.84375,6.84375 1.90625,0.8125 z"
       id="path203" />
    <path
       inkscape:dxfpoint="1"
       style="stroke:#ff0000;fill:#ff0000"
       d="m 418.842807628,-122.383765117 2.9375,-6.34375 0.8125,1.90625 6.84375,-6.84375 0,0 0.6875,0.6875 -6.84375,6.84375 1.90625,0.8125 z"
       id="path205" />
    <path
       inkscape:dxfpoint="1"
       style="stroke:#ff0000;fill:#ff0000"
       d="m 428.029096661,-105.091926936 2.9375,-6.34375 0.8125,1.90625 6.84375,-6.84375 0,0 0.6875,0.6875 -6.84375,6.84375 1.90625,0.8125 z"
       id="path207" />
    <path
       inkscape:dxfpoint="1"
       style="stroke:#ff0000;fill:#ff0000"
       d="m 435.053905922,-91.0423084149 2.9375,-6.34375 0.8125,1.90625 6.84375,-6.84375 0,0 0.6875,0.6875 -6.84375,6.84375 1.90625,0.8125 z"
       id="path209" />
    <path
       inkscape:dxfpoint="1"
       style="stroke:#ff0000;fill:#ff0000"
       d="m 452.886114046,-68.8871407463 2.9375,-6.34375 0.8125,1.90625 6.84375,-6.84375 0,0 0.6875,0.6875 -6.84375,6.84375 1.90625,0.8125 z"
       id="path211" />
    <path
       inkscape:dxfpoint="1"
       style="stroke:#ff0000;fill:#ff0000"
       d="m 479.364241259,-30.5208747837 2.9375,-6.34375 0.8125,1.90625 6.84375,-6.84375 0,0 0.6875,0.6875 -6.84375,6.84375 1.90625,0.8125 z"
       id="path213" />
    <path
       inkscape:dxfpoint="1"
       style="stroke:#ff0000;fill:#ff0000"
       d="m 513.94791762,25.6775993024 2.9375,-6.34375 0.8125,1.90625 6.84375,-6.84375 0,0 0.6875,0.6875 -6.84375,6.84375 1.90625,0.8125 z"
       id="path215" />
    <path
       inkscape:dxfpoint="1"
       style="stroke:#ff0000;fill:#ff0000"
       d="m 471.301559442,65.8585273046 2.9375,-6.34375 0.8125,1.90625 6.84375,-6.84375 0,0 0.6875,0.6875 -6.84375,6.84375 1.90625,0.8125 z"
       id="path217" />
    <path
       inkscape:dxfpoint="1"
       style="stroke:#ff0000;fill:#ff0000"
       d="m 389.165328085,98.8210938359 2.9375,-6.34375 0.8125,1.90625 6.84375,-6.84375 0,0 0.6875,0.6875 -6.84375,6.84375 1.90625,0.8125 z"
       id="path219" />
    <path
       inkscape:dxfpoint="1"
       style="stroke:#ff0000;fill:#ff0000"
       d="m 302.721201636,-5.50288232554 2.9375,-6.34375 0.8125,1.90625 6.84375,-6.84375 0,0 0.6875,0.6875 -6.84375,6.84375 1.90625,0.8125 z"
       id="path221" />
    <path
       inkscape:dxfpoint="1"
       style="stroke:#ff0000;fill:#ff0000"
       d="m 276.703389559,-62.2083701854 2.9375,-6.34375 0.8125,1.90625 6.84375,-6.84375 0,0 0.6875,0.6875 -6.84375,6.84375 1.90625,0.8125 z"
       id="path223" />
    <path
       inkscape:dxfpoint="1"
       style="stroke:#ff0000;fill:#ff0000"
       d="m 343.415728217,-106.905637087 2.9375,-6.34375 0.8125,1.90625 6.84375,-6.84375 0,0 0.6875,0.6875 -6.84375,6.84375 1.90625,0.8125 z"
       id="path225" />
    <path
       inkscape:dxfpoint="1"
       style="stroke:#ff0000;fill:#ff0000"
       d="m 331.590173341,147.039121159 2.9375,-6.34375 0.8125,1.90625 6.84375,-6.84375 0,0 0.6875,0.6875 -6.84375,6.84375 1.90625,0.8125 z"
       id="path227" />
    <path
       inkscape:dxfpoint="1"
       style="stroke:#ff0000;fill:#ff0000"
       d="m 298.035727742,193.811984721 2.9375,-6.34375 0.8125,1.90625 6.84375,-6.84375 0,0 0.6875,0.6875 -6.84375,6.84375 1.90625,0.8125 z"
       id="path229" />
    <path
       inkscape:dxfpoint="1"
       style="stroke:#ff0000;fill:#ff0000"
       d="m 269.565289052,216.18161512 2.9375,-6.34375 0.8125,1.90625 6.84375,-6.84375 0,0 0.6875,0.6875 -6.84375,6.84375 1.90625,0.8125 z"
       id="path231" />
    <path
       inkscape:dxfpoint="1"
       style="stroke:#ff0000;fill:#ff0000"
       d="m 221.775624109,251.769663482 2.9375,-6.34375 0.8125,1.90625 6.84375,-6.84375 0,0 0.6875,0.6875 -6.84375,6.84375 1.90625,0.8125 z"
       id="path233" />
    <path
       inkscape:dxfpoint="1"
       style="stroke:#ff0000;fill:#ff0000"
       d="m 296.002124979,92.1318465426 2.9375,-6.34375 0.8125,1.90625 6.84375,-6.84375 0,0 0.6875,0.6875 -6.84375,6.84375 1.90625,0.8125 z"
       id="path235" />
    <path
       inkscape:dxfpoint="1"
       style="stroke:#ff0000;fill:#ff0000"
       d="m 279.73330287,68.7454147616 2.9375,-6.34375 0.8125,1.90625 6.84375,-6.84375 0,0 0.6875,0.6875 -6.84375,6.84375 1.90625,0.8125 z"
       id="path237" />
    <path
       inkscape:dxfpoint="1"
       style="stroke:#ff0000;fill:#ff0000"
       d="m 256.346871089,39.2581746899 2.9375,-6.34375 0.8125,1.90625 6.84375,-6.84375 0,0 0.6875,0.6875 -6.84375,6.84375 1.90625,0.8125 z"
       id="path239" />
    <path
       inkscape:dxfpoint="1"
       style="stroke:#ff0000;fill:#ff0000"
       d="m 231.943637927,16.8885442907 2.9375,-6.34375 0.8125,1.90625 6.84375,-6.84375 0,0 0.6875,0.6875 -6.84375,6.84375 1.90625,0.8125 z"
       id="path241" />
    <path
       inkscape:dxfpoint="1"
       style="stroke:#ff0000;fill:#ff0000"
       d="m 211.607610291,-8.53149025385 2.9375,-6.34375 0.8125,1.90625 6.84375,-6.84375 0,0 0.6875,0.6875 -6.84375,6.84375 1.90625,0.8125 z"
       id="path243" />
    <path
       inkscape:dxfpoint="1"
       style="stroke:#ff0000;fill:#ff0000"
       d="m 239.735382192,300.092378907 2.9375,-6.34375 0.8125,1.90625 6.84375,-6.84375 0,0 0.6875,0.6875 -6.84375,6.84375 1.90625,0.8125 z"
       id="path245" />
    <path
       inkscape:dxfpoint="1"
       style="stroke:#ff0000;fill:#ff0000"
       d="m 273.091551521,272.07319667 2.9375,-6.34375 0.8125,1.90625 6.84375,-6.84375 0,0 0.6875,0.6875 -6.84375,6.84375 1.90625,0.8125 z"
       id="path247" />
    <path
       inkscape:dxfpoint="1"
       style="stroke:#ff0000;fill:#ff0000"
       d="m 319.790188582,238.717027341 2.9375,-6.34375 0.8125,1.90625 6.84375,-6.84375 0,0 0.6875,0.6875 -6.84375,6.84375 1.90625,0.8125 z"
       id="path249" />
    <path
       inkscape:dxfpoint="1"
       style="stroke:#ff0000;fill:#ff0000"
       d="m 341.138136953,229.377299929 2.9375,-6.34375 0.8125,1.90625 6.84375,-6.84375 0,0 0.6875,0.6875 -6.84375,6.84375 1.90625,0.8125 z"
       id="path251" />
    <path
       inkscape:dxfpoint="1"
       style="stroke:#ff0000;fill:#ff0000"
       d="m 281.392455366,376.745416847 2.9375,-6.34375 0.8125,1.90625 6.84375,-6.84375 0,0 0.6875,0.6875 -6.84375,6.84375 1.90625,0.8125 z"
       id="path253" />
    <path
       inkscape:dxfpoint="1"
       style="stroke:#ff0000;fill:#ff0000"
       d="m 328.445730357,457.962649056 2.9375,-6.34375 0.8125,1.90625 6.84375,-6.84375 0,0 0.6875,0.6875 -6.84375,6.84375 1.90625,0.8125 z"
       id="path255" />
    <path
       inkscape:dxfpoint="1"
       style="stroke:#ff0000;fill:#ff0000"
       d="m 347.125185181,487.316078066 2.9375,-6.34375 0.8125,1.90625 6.84375,-6.84375 0,0 0.6875,0.6875 -6.84375,6.84375 1.90625,0.8125 z"
       id="path257" />
    <path
       inkscape:dxfpoint="1"
       style="stroke:#ff0000;fill:#ff0000"
       d="m 361.801899686,516.002383689 2.9375,-6.34375 0.8125,1.90625 6.84375,-6.84375 0,0 0.6875,0.6875 -6.84375,6.84375 1.90625,0.8125 z"
       id="path259" />
    <path
       inkscape:dxfpoint="1"
       style="stroke:#ff0000;fill:#ff0000"
       d="m 377.145737578,540.685948993 2.9375,-6.34375 0.8125,1.90625 6.84375,-6.84375 0,0 0.6875,0.6875 -6.84375,6.84375 1.90625,0.8125 z"
       id="path261" />
    <path
       inkscape:dxfpoint="1"
       style="stroke:#ff0000;fill:#ff0000"
       d="m 397.826562562,576.710611868 2.9375,-6.34375 0.8125,1.90625 6.84375,-6.84375 0,0 0.6875,0.6875 -6.84375,6.84375 1.90625,0.8125 z"
       id="path263" />
    <path
       inkscape:dxfpoint="1"
       style="stroke:#ff0000;fill:#ff0000"
       d="m 415.838894,596.724313466 2.9375,-6.34375 0.8125,1.90625 6.84375,-6.84375 0,0 0.6875,0.6875 -6.84375,6.84375 1.90625,0.8125 z"
       id="path265" />
    <path
       inkscape:dxfpoint="1"
       style="stroke:#ff0000;fill:#ff0000"
       d="m 438.521089144,584.716092508 2.9375,-6.34375 0.8125,1.90625 6.84375,-6.84375 0,0 0.6875,0.6875 -6.84375,6.84375 1.90625,0.8125 z"
       id="path267" />
    <path
       inkscape:dxfpoint="1"
       style="stroke:#ff0000;fill:#ff0000"
       d="m 321.125762146,370.052431868 2.9375,-6.34375 0.8125,1.90625 6.84375,-6.84375 0,0 0.6875,0.6875 -6.84375,6.84375 1.90625,0.8125 z"
       id="path269" />
    <path
       inkscape:dxfpoint="1"
       style="stroke:#ff0000;fill:#ff0000"
       d="m 345.528995309,390.388459504 2.9375,-6.34375 0.8125,1.90625 6.84375,-6.84375 0,0 0.6875,0.6875 -6.84375,6.84375 1.90625,0.8125 z"
       id="path271" />
    <path
       inkscape:dxfpoint="1"
       style="stroke:#ff0000;fill:#ff0000"
       d="m 371.965831235,426.993309248 2.9375,-6.34375 0.8125,1.90625 6.84375,-6.84375 0,0 0.6875,0.6875 -6.84375,6.84375 1.90625,0.8125 z"
       id="path273" />
    <path
       inkscape:dxfpoint="1"
       style="stroke:#ff0000;fill:#ff0000"
       d="m 410.604283743,404.623678849 2.9375,-6.34375 0.8125,1.90625 6.84375,-6.84375 0,0 0.6875,0.6875 -6.84375,6.84375 1.90625,0.8125 z"
       id="path275" />
    <path
       inkscape:dxfpoint="1"
       style="stroke:#ff0000;fill:#ff0000"
       d="m 453.309941777,374.119637395 2.9375,-6.34375 0.8125,1.90625 6.84375,-6.84375 0,0 0.6875,0.6875 -6.84375,6.84375 1.90625,0.8125 z"
       id="path277" />
    <path
       inkscape:dxfpoint="1"
       style="stroke:#ff0000;fill:#ff0000"
       d="m 451.276339014,344.632397323 2.9375,-6.34375 0.8125,1.90625 6.84375,-6.84375 0,0 0.6875,0.6875 -6.84375,6.84375 1.90625,0.8125 z"
       id="path279" />
    <path
       inkscape:dxfpoint="1"
       style="stroke:#ff0000;fill:#ff0000"
       d="m 435.007516905,304.977143434 2.9375,-6.34375 0.8125,1.90625 6.84375,-6.84375 0,0 0.6875,0.6875 -6.84375,6.84375 1.90625,0.8125 z"
       id="path281" />
    <path
       inkscape:dxfpoint="1"
       style="stroke:#ff0000;fill:#ff0000"
       d="m 420.77229756,279.557108889 2.9375,-6.34375 0.8125,1.90625 6.84375,-6.84375 0,0 0.6875,0.6875 -6.84375,6.84375 1.90625,0.8125 z"
       id="path283" />
    <path
       inkscape:dxfpoint="1"
       style="stroke:#ff0000;fill:#ff0000"
       d="m 403.490512887,461.056370629 2.9375,-6.34375 0.8125,1.90625 6.84375,-6.84375 0,0 0.6875,0.6875 -6.84375,6.84375 1.90625,0.8125 z"
       id="path285" />
    <path
       inkscape:dxfpoint="1"
       style="stroke:#ff0000;fill:#ff0000"
       d="m 420.168597551,489.742676253 2.9375,-6.34375 0.8125,1.90625 6.84375,-6.84375 0,0 0.6875,0.6875 -6.84375,6.84375 1.90625,0.8125 z"
       id="path287" />
    <path
       inkscape:dxfpoint="1"
       style="stroke:#ff0000;fill:#ff0000"
       d="m 432.17681851,511.75774801 2.9375,-6.34375 0.8125,1.90625 6.84375,-6.84375 0,0 0.6875,0.6875 -6.84375,6.84375 1.90625,0.8125 z"
       id="path289" />
    <path
       inkscape:dxfpoint="1"
       style="stroke:#ff0000;fill:#ff0000"
       d="m 443.517916082,525.100215742 2.9375,-6.34375 0.8125,1.90625 6.84375,-6.84375 0,0 0.6875,0.6875 -6.84375,6.84375 1.90625,0.8125 z"
       id="path291" />
    <path
       inkscape:dxfpoint="1"
       style="stroke:#ff0000;fill:#ff0000"
       d="m 468.868604772,555.787891525 2.9375,-6.34375 0.8125,1.90625 6.84375,-6.84375 0,0 0.6875,0.6875 -6.84375,6.84375 1.90625,0.8125 z"
       id="path293" />
    <path
       inkscape:dxfpoint="1"
       style="stroke:#ff0000;fill:#ff0000"
       d="m 519.569982153,531.771449608 2.9375,-6.34375 0.8125,1.90625 6.84375,-6.84375 0,0 0.6875,0.6875 -6.84375,6.84375 1.90625,0.8125 z"
       id="path295" />
    <path
       inkscape:dxfpoint="1"
       style="stroke:#ff0000;fill:#ff0000"
       d="m 548.923411163,505.753637531 2.9375,-6.34375 0.8125,1.90625 6.84375,-6.84375 0,0 0.6875,0.6875 -6.84375,6.84375 1.90625,0.8125 z"
       id="path297" />
    <path
       inkscape:dxfpoint="1"
       style="stroke:#ff0000;fill:#ff0000"
       d="m 537.582313591,473.064591588 2.9375,-6.34375 0.8125,1.90625 6.84375,-6.84375 0,0 0.6875,0.6875 -6.84375,6.84375 1.90625,0.8125 z"
       id="path299" />
    <path
       inkscape:dxfpoint="1"
       style="stroke:#ff0000;fill:#ff0000"
       d="m 519.569982153,447.046779511 2.9375,-6.34375 0.8125,1.90625 6.84375,-6.84375 0,0 0.6875,0.6875 -6.84375,6.84375 1.90625,0.8125 z"
       id="path301" />
    <path
       inkscape:dxfpoint="1"
       style="stroke:#ff0000;fill:#ff0000"
       d="m 504.226144261,418.360473888 2.9375,-6.34375 0.8125,1.90625 6.84375,-6.84375 0,0 0.6875,0.6875 -6.84375,6.84375 1.90625,0.8125 z"
       id="path303" />
    <path
       inkscape:dxfpoint="1"
       style="stroke:#ff0000;fill:#ff0000"
       d="m 478.875455571,418.360473888 2.9375,-6.34375 0.8125,1.90625 6.84375,-6.84375 0,0 0.6875,0.6875 -6.84375,6.84375 1.90625,0.8125 z"
       id="path305" />
    <path
       inkscape:dxfpoint="1"
       style="stroke:#ff0000;fill:#ff0000"
       d="m 453.524766881,422.363214207 2.9375,-6.34375 0.8125,1.90625 6.84375,-6.84375 0,0 0.6875,0.6875 -6.84375,6.84375 1.90625,0.8125 z"
       id="path307" />
    <path
       inkscape:dxfpoint="1"
       style="stroke:#ff0000;fill:#ff0000"
       d="m 452.421727338,206.007058726 2.9375,-6.34375 0.8125,1.90625 6.84375,-6.84375 0,0 0.6875,0.6875 -6.84375,6.84375 1.90625,0.8125 z"
       id="path309" />
    <path
       inkscape:dxfpoint="1"
       style="stroke:#ff0000;fill:#ff0000"
       d="m 446.417616859,165.312532144 2.9375,-6.34375 0.8125,1.90625 6.84375,-6.84375 0,0 0.6875,0.6875 -6.84375,6.84375 1.90625,0.8125 z"
       id="path311" />
    <path
       inkscape:dxfpoint="1"
       style="stroke:#ff0000;fill:#ff0000"
       d="m 491.782007147,123.283758789 2.9375,-6.34375 0.8125,1.90625 6.84375,-6.84375 0,0 0.6875,0.6875 -6.84375,6.84375 1.90625,0.8125 z"
       id="path313" />
    <path
       inkscape:dxfpoint="1"
       style="stroke:#ff0000;fill:#ff0000"
       d="m 511.795708744,107.939920898 2.9375,-6.34375 0.8125,1.90625 6.84375,-6.84375 0,0 0.6875,0.6875 -6.84375,6.84375 1.90625,0.8125 z"
       id="path315" />
    <path
       inkscape:dxfpoint="1"
       style="stroke:#ff0000;fill:#ff0000"
       d="m 555.158728872,83.256355594 2.9375,-6.34375 0.8125,1.90625 6.84375,-6.84375 0,0 0.6875,0.6875 -6.84375,6.84375 1.90625,0.8125 z"
       id="path317" />
    <path
       inkscape:dxfpoint="1"
       style="stroke:#ff0000;fill:#ff0000"
       d="m 571.169690151,141.963213614 2.9375,-6.34375 0.8125,1.90625 6.84375,-6.84375 0,0 0.6875,0.6875 -6.84375,6.84375 1.90625,0.8125 z"
       id="path319" />
    <path
       inkscape:dxfpoint="1"
       style="stroke:#ff0000;fill:#ff0000"
       d="m 577.840924016,201.33719502 2.9375,-6.34375 0.8125,1.90625 6.84375,-6.84375 0,0 0.6875,0.6875 -6.84375,6.84375 1.90625,0.8125 z"
       id="path321" />
    <path
       inkscape:dxfpoint="1"
       style="stroke:#ff0000;fill:#ff0000"
       d="m 605.860106253,248.035832081 2.9375,-6.34375 0.8125,1.90625 6.84375,-6.84375 0,0 0.6875,0.6875 -6.84375,6.84375 1.90625,0.8125 z"
       id="path323" />
    <path
       inkscape:dxfpoint="1"
       style="stroke:#ff0000;fill:#ff0000"
       d="m 563.831332898,309.411183647 2.9375,-6.34375 0.8125,1.90625 6.84375,-6.84375 0,0 0.6875,0.6875 -6.84375,6.84375 1.90625,0.8125 z"
       id="path325" />
    <path
       inkscape:dxfpoint="1"
       style="stroke:#ff0000;fill:#ff0000"
       d="m 529.140916796,329.424885245 2.9375,-6.34375 0.8125,1.90625 6.84375,-6.84375 0,0 0.6875,0.6875 -6.84375,6.84375 1.90625,0.8125 z"
       id="path327" />
    <path
       inkscape:dxfpoint="1"
       style="stroke:#ff0000;fill:#ff0000"
       d="m 492.449130533,300.071456235 2.9375,-6.34375 0.8125,1.90625 6.84375,-6.84375 0,0 0.6875,0.6875 -6.84375,6.84375 1.90625,0.8125 z"
       id="path329" />
    <path
       inkscape:dxfpoint="1"
       style="stroke:#ff0000;fill:#ff0000"
       d="m 644.85244506,235.210415087 2.9375,-6.34375 0.8125,1.90625 6.84375,-6.84375 0,0 0.6875,0.6875 -6.84375,6.84375 1.90625,0.8125 z"
       id="path331" />
    <path
       inkscape:dxfpoint="1"
       style="stroke:#ff0000;fill:#ff0000"
       d="m 622.301376569,155.539750497 2.9375,-6.34375 0.8125,1.90625 6.84375,-6.84375 0,0 0.6875,0.6875 -6.84375,6.84375 1.90625,0.8125 z"
       id="path333" />
    <path
       inkscape:dxfpoint="1"
       style="stroke:#ff0000;fill:#ff0000"
       d="m 598.24237218,61.0588011457 2.9375,-6.34375 0.8125,1.90625 6.84375,-6.84375 0,0 0.6875,0.6875 -6.84375,6.84375 1.90625,0.8125 z"
       id="path335" />
    <path
       inkscape:dxfpoint="1"
       style="stroke:#ff0000;fill:#ff0000"
       d="m 663.487705187,183.315059193 2.9375,-6.34375 0.8125,1.90625 6.84375,-6.84375 0,0 0.6875,0.6875 -6.84375,6.84375 1.90625,0.8125 z"
       id="path337" />
    <path
       inkscape:dxfpoint="1"
       style="stroke:#ff0000;fill:#ff0000"
       d="m 727.17624436,204.953150404 2.9375,-6.34375 0.8125,1.90625 6.84375,-6.84375 0,0 0.6875,0.6875 -6.84375,6.84375 1.90625,0.8125 z"
       id="path339" />
    <path
       inkscape:dxfpoint="1"
       style="stroke:#ff0000;fill:#ff0000"
       d="m 689.534074121,230.777429987 2.9375,-6.34375 0.8125,1.90625 6.84375,-6.84375 0,0 0.6875,0.6875 -6.84375,6.84375 1.90625,0.8125 z"
       id="path341" />
    <path
       inkscape:dxfpoint="1"
       style="stroke:#ff0000;fill:#ff0000"
       d="m 752.224581201,184.973426801 2.9375,-6.34375 0.8125,1.90625 6.84375,-6.84375 0,0 0.6875,0.6875 -6.84375,6.84375 1.90625,0.8125 z"
       id="path343" />
    <path
       inkscape:dxfpoint="1"
       style="stroke:#ff0000;fill:#ff0000"
       d="m 804.935564832,156.147107627 2.9375,-6.34375 0.8125,1.90625 6.84375,-6.84375 0,0 0.6875,0.6875 -6.84375,6.84375 1.90625,0.8125 z"
       id="path345" />
    <path
       inkscape:dxfpoint="1"
       style="stroke:#ff0000;fill:#ff0000"
       d="m 763.75510887,81.1986777763 2.9375,-6.34375 0.8125,1.90625 6.84375,-6.84375 0,0 0.6875,0.6875 -6.84375,6.84375 1.90625,0.8125 z"
       id="path347" />
    <path
       inkscape:dxfpoint="1"
       style="stroke:#ff0000;fill:#ff0000"
       d="m 733.635434658,34.0717489095 2.9375,-6.34375 0.8125,1.90625 6.84375,-6.84375 0,0 0.6875,0.6875 -6.84375,6.84375 1.90625,0.8125 z"
       id="path349" />
    <path
       inkscape:dxfpoint="1"
       style="stroke:#ff0000;fill:#ff0000"
       d="m 702.947758875,-16.6296284711 2.9375,-6.34375 0.8125,1.90625 6.84375,-6.84375 0,0 0.6875,0.6875 -6.84375,6.84375 1.90625,0.8125 z"
       id="path351" />
    <path
       inkscape:dxfpoint="1"
       style="stroke:#ff0000;fill:#ff0000"
       d="m 660.251862133,15.3922940851 2.9375,-6.34375 0.8125,1.90625 6.84375,-6.84375 0,0 0.6875,0.6875 -6.84375,6.84375 1.90625,0.8125 z"
       id="path353" />
    <path
       inkscape:dxfpoint="1"
       style="stroke:#ff0000;fill:#ff0000"
       d="m 638.236790376,34.0717489095 2.9375,-6.34375 0.8125,1.90625 6.84375,-6.84375 0,0 0.6875,0.6875 -6.84375,6.84375 1.90625,0.8125 z"
       id="path355" />
    <path
       inkscape:dxfpoint="1"
       style="stroke:#ff0000;fill:#ff0000"
       d="m 458.580713386,-236.751676399 2.9375,-6.34375 0.8125,1.90625 6.84375,-6.84375 0,0 0.6875,0.6875 -6.84375,6.84375 1.90625,0.8125 z"
       id="path357" />
    <path
       inkscape:dxfpoint="1"
       style="stroke:#ff0000;fill:#ff0000"
       d="m 430.57231253,-218.670303695 2.9375,-6.34375 0.8125,1.90625 6.84375,-6.84375 0,0 0.6875,0.6875 -6.84375,6.84375 1.90625,0.8125 z"
       id="path359" />
    <path
       inkscape:dxfpoint="1"
       style="stroke:#ff0000;fill:#ff0000"
       d="m 391.218736644,-194.207270036 2.9375,-6.34375 0.8125,1.90625 6.84375,-6.84375 0,0 0.6875,0.6875 -6.84375,6.84375 1.90625,0.8125 z"
       id="path361" />
    <path
       inkscape:dxfpoint="1"
       style="stroke:#ff0000;fill:#ff0000"
       d="m 320.224932294,-152.500446939 2.9375,-6.34375 0.8125,1.90625 6.84375,-6.84375 0,0 0.6875,0.6875 -6.84375,6.84375 1.90625,0.8125 z"
       id="path363" />
    <path
       inkscape:dxfpoint="1"
       style="stroke:#ff0000;fill:#ff0000"
       d="m 272.515670014,-126.676167357 2.9375,-6.34375 0.8125,1.90625 6.84375,-6.84375 0,0 0.6875,0.6875 -6.84375,6.84375 1.90625,0.8125 z"
       id="path365" />
    <path
       inkscape:dxfpoint="1"
       style="stroke:#ff0000;fill:#ff0000"
       d="m 255.007683857,-215.529197107 2.9375,-6.34375 0.8125,1.90625 6.84375,-6.84375 0,0 0.6875,0.6875 -6.84375,6.84375 1.90625,0.8125 z"
       id="path367" />
    <path
       inkscape:dxfpoint="1"
       style="stroke:#ff0000;fill:#ff0000"
       d="m 273.828768976,-291.251237238 2.9375,-6.34375 0.8125,1.90625 6.84375,-6.84375 0,0 0.6875,0.6875 -6.84375,6.84375 1.90625,0.8125 z"
       id="path369" />
    <path
       inkscape:dxfpoint="1"
       style="stroke:#ff0000;fill:#ff0000"
       d="m 283.361728022,-329.098869045 2.9375,-6.34375 0.8125,1.90625 6.84375,-6.84375 0,0 0.6875,0.6875 -6.84375,6.84375 1.90625,0.8125 z"
       id="path371" />
    <path
       inkscape:dxfpoint="1"
       style="stroke:#ff0000;fill:#ff0000"
       d="m 225.005268521,-363.999334017 2.9375,-6.34375 0.8125,1.90625 6.84375,-6.84375 0,0 0.6875,0.6875 -6.84375,6.84375 1.90625,0.8125 z"
       id="path373" />
    <path
       inkscape:dxfpoint="1"
       style="stroke:#ff0000;fill:#ff0000"
       d="m 211.057375767,-263.264553015 2.9375,-6.34375 0.8125,1.90625 6.84375,-6.84375 0,0 0.6875,0.6875 -6.84375,6.84375 1.90625,0.8125 z"
       id="path375" />
    <path
       inkscape:dxfpoint="1"
       style="stroke:#ff0000;fill:#ff0000"
       d="m 299.910000531,656.423141363 2.9375,-6.34375 0.8125,1.90625 6.84375,-6.84375 0,0 0.6875,0.6875 -6.84375,6.84375 1.90625,0.8125 z"
       id="path377" />
    <path
       inkscape:dxfpoint="1"
       style="stroke:#ff0000;fill:#ff0000"
       d="m 343.273020659,637.743686538 2.9375,-6.34375 0.8125,1.90625 6.84375,-6.84375 0,0 0.6875,0.6875 -6.84375,6.84375 1.90625,0.8125 z"
       id="path379" />
    <path
       inkscape:dxfpoint="1"
       style="stroke:#ff0000;fill:#ff0000"
       d="m 358.61685855,619.731355101 2.9375,-6.34375 0.8125,1.90625 6.84375,-6.84375 0,0 0.6875,0.6875 -6.84375,6.84375 1.90625,0.8125 z"
       id="path381" />
    <path
       inkscape:dxfpoint="1"
       style="stroke:#ff0000;fill:#ff0000"
       d="m 349.277131138,597.049159957 2.9375,-6.34375 0.8125,1.90625 6.84375,-6.84375 0,0 0.6875,0.6875 -6.84375,6.84375 1.90625,0.8125 z"
       id="path383" />
    <path
       inkscape:dxfpoint="1"
       style="stroke:#ff0000;fill:#ff0000"
       d="m 339.270280339,582.372445452 2.9375,-6.34375 0.8125,1.90625 6.84375,-6.84375 0,0 0.6875,0.6875 -6.84375,6.84375 1.90625,0.8125 z"
       id="path385" />
    <path
       inkscape:dxfpoint="1"
       style="stroke:#ff0000;fill:#ff0000"
       d="m 325.927812608,555.020386602 2.9375,-6.34375 0.8125,1.90625 6.84375,-6.84375 0,0 0.6875,0.6875 -6.84375,6.84375 1.90625,0.8125 z"
       id="path387" />
    <path
       inkscape:dxfpoint="1"
       style="stroke:#ff0000;fill:#ff0000"
       d="m 309.249727943,535.006685004 2.9375,-6.34375 0.8125,1.90625 6.84375,-6.84375 0,0 0.6875,0.6875 -6.84375,6.84375 1.90625,0.8125 z"
       id="path389" />
    <path
       inkscape:dxfpoint="1"
       style="stroke:#ff0000;fill:#ff0000"
       d="m 294.573013438,501.650515675 2.9375,-6.34375 0.8125,1.90625 6.84375,-6.84375 0,0 0.6875,0.6875 -6.84375,6.84375 1.90625,0.8125 z"
       id="path391" />
    <path
       inkscape:dxfpoint="1"
       style="stroke:#ff0000;fill:#ff0000"
       d="m 264.552461042,456.286125387 2.9375,-6.34375 0.8125,1.90625 6.84375,-6.84375 0,0 0.6875,0.6875 -6.84375,6.84375 1.90625,0.8125 z"
       id="path393" />
    <path
       inkscape:dxfpoint="1"
       style="stroke:#ff0000;fill:#ff0000"
       d="m 235.866155418,437.606670562 2.9375,-6.34375 0.8125,1.90625 6.84375,-6.84375 0,0 0.6875,0.6875 -6.84375,6.84375 1.90625,0.8125 z"
       id="path395" />
    <path
       inkscape:dxfpoint="1"
       style="stroke:#ff0000;fill:#ff0000"
       d="m 210.515466728,484.305307623 2.9375,-6.34375 0.8125,1.90625 6.84375,-6.84375 0,0 0.6875,0.6875 -6.84375,6.84375 1.90625,0.8125 z"
       id="path397" />
    <path
       inkscape:dxfpoint="1"
       style="stroke:#ff0000;fill:#ff0000"
       d="m 194.50450545,506.320379381 2.9375,-6.34375 0.8125,1.90625 6.84375,-6.84375 0,0 0.6875,0.6875 -6.84375,6.84375 1.90625,0.8125 z"
       id="path399" />
    <path
       inkscape:dxfpoint="1"
       style="stroke:#ff0000;fill:#ff0000"
       d="m 189.834641744,530.336821298 2.9375,-6.34375 0.8125,1.90625 6.84375,-6.84375 0,0 0.6875,0.6875 -6.84375,6.84375 1.90625,0.8125 z"
       id="path401" />
    <path
       inkscape:dxfpoint="1"
       style="stroke:#ff0000;fill:#ff0000"
       d="m 213.851083661,561.024497081 2.9375,-6.34375 0.8125,1.90625 6.84375,-6.84375 0,0 0.6875,0.6875 -6.84375,6.84375 1.90625,0.8125 z"
       id="path403" />
    <path
       inkscape:dxfpoint="1"
       style="stroke:#ff0000;fill:#ff0000"
       d="m 205.59972426,720.951034793 2.9375,-6.34375 0.8125,1.90625 6.84375,-6.84375 0,0 0.6875,0.6875 -6.84375,6.84375 1.90625,0.8125 z"
       id="path405" />
    <path
       inkscape:dxfpoint="1"
       style="stroke:#ff0000;fill:#ff0000"
       d="m 228.986156041,692.480596104 2.9375,-6.34375 0.8125,1.90625 6.84375,-6.84375 0,0 0.6875,0.6875 -6.84375,6.84375 1.90625,0.8125 z"
       id="path407" />
    <path
       inkscape:dxfpoint="1"
       style="stroke:#ff0000;fill:#ff0000"
       d="m 256.439793349,684.346185049 2.9375,-6.34375 0.8125,1.90625 6.84375,-6.84375 0,0 0.6875,0.6875 -6.84375,6.84375 1.90625,0.8125 z"
       id="path409" />
    <path
       inkscape:dxfpoint="1"
       style="stroke:#ff0000;fill:#ff0000"
       d="m 282.876629276,756.539083156 2.9375,-6.34375 0.8125,1.90625 6.84375,-6.84375 0,0 0.6875,0.6875 -6.84375,6.84375 1.90625,0.8125 z"
       id="path411" />
    <path
       inkscape:dxfpoint="1"
       style="stroke:#ff0000;fill:#ff0000"
       d="m 298.955883002,738.774781096 2.9375,-6.34375 0.8125,1.90625 6.84375,-6.84375 0,0 0.6875,0.6875 -6.84375,6.84375 1.90625,0.8125 z"
       id="path413" />
    <path
       inkscape:dxfpoint="1"
       style="stroke:#ff0000;fill:#ff0000"
       d="m 320.570680727,723.644422688 2.9375,-6.34375 0.8125,1.90625 6.84375,-6.84375 0,0 0.6875,0.6875 -6.84375,6.84375 1.90625,0.8125 z"
       id="path415" />
    <path
       inkscape:dxfpoint="1"
       style="stroke:#ff0000;fill:#ff0000"
       d="m 355.694727031,699.86814519 2.9375,-6.34375 0.8125,1.90625 6.84375,-6.84375 0,0 0.6875,0.6875 -6.84375,6.84375 1.90625,0.8125 z"
       id="path417" />
    <path
       inkscape:dxfpoint="1"
       style="stroke:#ff0000;fill:#ff0000"
       d="m 385.955443847,678.793717408 2.9375,-6.34375 0.8125,1.90625 6.84375,-6.84375 0,0 0.6875,0.6875 -6.84375,6.84375 1.90625,0.8125 z"
       id="path419" />
    <path
       inkscape:dxfpoint="1"
       style="stroke:#ff0000;fill:#ff0000"
       d="m 412.43357106,706.352584508 2.9375,-6.34375 0.8125,1.90625 6.84375,-6.84375 0,0 0.6875,0.6875 -6.84375,6.84375 1.90625,0.8125 z"
       id="path421" />
    <path
       inkscape:dxfpoint="1"
       style="stroke:#ff0000;fill:#ff0000"
       d="m 430.806149127,735.532561437 2.9375,-6.34375 0.8125,1.90625 6.84375,-6.84375 0,0 0.6875,0.6875 -6.84375,6.84375 1.90625,0.8125 z"
       id="path423" />
    <path
       inkscape:dxfpoint="1"
       style="stroke:#ff0000;fill:#ff0000"
       d="m 456.203536454,772.818087513 2.9375,-6.34375 0.8125,1.90625 6.84375,-6.84375 0,0 0.6875,0.6875 -6.84375,6.84375 1.90625,0.8125 z"
       id="path425" />
    <path
       inkscape:dxfpoint="1"
       style="stroke:#ff0000;fill:#ff0000"
       d="m 426.190855117,792.288760232 2.9375,-6.34375 0.8125,1.90625 6.84375,-6.84375 0,0 0.6875,0.6875 -6.84375,6.84375 1.90625,0.8125 z"
       id="path427" />
    <path
       inkscape:dxfpoint="1"
       style="stroke:#ff0000;fill:#ff0000"
       d="m 643.997272212,531.256018069 2.9375,-6.34375 0.8125,1.90625 6.84375,-6.84375 0,0 0.6875,0.6875 -6.84375,6.84375 1.90625,0.8125 z"
       id="path429" />
    <path
       inkscape:dxfpoint="1"
       style="stroke:#ff0000;fill:#ff0000"
       d="m 555.535551997,573.961676104 2.9375,-6.34375 0.8125,1.90625 6.84375,-6.84375 0,0 0.6875,0.6875 -6.84375,6.84375 1.90625,0.8125 z"
       id="path431" />
    <path
       inkscape:dxfpoint="1"
       style="stroke:#ff0000;fill:#ff0000"
       d="m 515.145402235,595.561325482 2.9375,-6.34375 0.8125,1.90625 6.84375,-6.84375 0,0 0.6875,0.6875 -6.84375,6.84375 1.90625,0.8125 z"
       id="path433" />
    <path
       inkscape:dxfpoint="1"
       style="stroke:#ff0000;fill:#ff0000"
       d="m 474.788555392,617.798771701 2.9375,-6.34375 0.8125,1.90625 6.84375,-6.84375 0,0 0.6875,0.6875 -6.84375,6.84375 1.90625,0.8125 z"
       id="path435" />
    <path
       inkscape:dxfpoint="1"
       style="stroke:#ff0000;fill:#ff0000"
       d="m 449.256672696,635.918172325 2.9375,-6.34375 0.8125,1.90625 6.84375,-6.84375 0,0 0.6875,0.6875 -6.84375,6.84375 1.90625,0.8125 z"
       id="path437" />
    <path
       inkscape:dxfpoint="1"
       style="stroke:#ff0000;fill:#ff0000"
       d="m 469.846900677,673.80419181 2.9375,-6.34375 0.8125,1.90625 6.84375,-6.84375 0,0 0.6875,0.6875 -6.84375,6.84375 1.90625,0.8125 z"
       id="path439" />
    <path
       inkscape:dxfpoint="1"
       style="stroke:#ff0000;fill:#ff0000"
       d="m 504.438483685,721.573520726 2.9375,-6.34375 0.8125,1.90625 6.84375,-6.84375 0,0 0.6875,0.6875 -6.84375,6.84375 1.90625,0.8125 z"
       id="path441" />
    <path
       inkscape:dxfpoint="1"
       style="stroke:#ff0000;fill:#ff0000"
       d="m 527.499539024,731.456830157 2.9375,-6.34375 0.8125,1.90625 6.84375,-6.84375 0,0 0.6875,0.6875 -6.84375,6.84375 1.90625,0.8125 z"
       id="path443" />
    <path
       inkscape:dxfpoint="1"
       style="stroke:#ff0000;fill:#ff0000"
       d="m 543.971721409,721.573520726 2.9375,-6.34375 0.8125,1.90625 6.84375,-6.84375 0,0 0.6875,0.6875 -6.84375,6.84375 1.90625,0.8125 z"
       id="path445" />
    <path
       inkscape:dxfpoint="1"
       style="stroke:#ff0000;fill:#ff0000"
       d="m 571.974431463,710.042993056 2.9375,-6.34375 0.8125,1.90625 6.84375,-6.84375 0,0 0.6875,0.6875 -6.84375,6.84375 1.90625,0.8125 z"
       id="path447" />
    <path
       inkscape:dxfpoint="1"
       style="stroke:#ff0000;fill:#ff0000"
       d="m 596.68270504,693.570810672 2.9375,-6.34375 0.8125,1.90625 6.84375,-6.84375 0,0 0.6875,0.6875 -6.84375,6.84375 1.90625,0.8125 z"
       id="path449" />
    <path
       inkscape:dxfpoint="1"
       style="stroke:#ff0000;fill:#ff0000"
       d="m 624.685415094,675.451410048 2.9375,-6.34375 0.8125,1.90625 6.84375,-6.84375 0,0 0.6875,0.6875 -6.84375,6.84375 1.90625,0.8125 z"
       id="path451" />
    <path
       inkscape:dxfpoint="1"
       style="stroke:#ff0000;fill:#ff0000"
       d="m 655.158952506,658.979227663 2.9375,-6.34375 0.8125,1.90625 6.84375,-6.84375 0,0 0.6875,0.6875 -6.84375,6.84375 1.90625,0.8125 z"
       id="path453" />
    <path
       inkscape:dxfpoint="1"
       style="stroke:#ff0000;fill:#ff0000"
       d="m 681.514444322,640.036217921 2.9375,-6.34375 0.8125,1.90625 6.84375,-6.84375 0,0 0.6875,0.6875 -6.84375,6.84375 1.90625,0.8125 z"
       id="path455" />
    <path
       inkscape:dxfpoint="1"
       style="stroke:#ff0000;fill:#ff0000"
       d="m 699.633844946,630.15290849 2.9375,-6.34375 0.8125,1.90625 6.84375,-6.84375 0,0 0.6875,0.6875 -6.84375,6.84375 1.90625,0.8125 z"
       id="path457" />
    <path
       inkscape:dxfpoint="1"
       style="stroke:#ff0000;fill:#ff0000"
       d="m 716.10602733,612.857116986 2.9375,-6.34375 0.8125,1.90625 6.84375,-6.84375 0,0 0.6875,0.6875 -6.84375,6.84375 1.90625,0.8125 z"
       id="path459" />
    <path
       inkscape:dxfpoint="1"
       style="stroke:#ff0000;fill:#ff0000"
       d="m 685.54507236,560.583010559 2.9375,-6.34375 0.8125,1.90625 6.84375,-6.84375 0,0 0.6875,0.6875 -6.84375,6.84375 1.90625,0.8125 z"
       id="path461" />
    <path
       inkscape:dxfpoint="1"
       style="stroke:#ff0000;fill:#ff0000"
       d="m 947.939507795,473.835642831 2.9375,-6.34375 0.8125,1.90625 6.84375,-6.84375 0,0 0.6875,0.6875 -6.84375,6.84375 1.90625,0.8125 z"
       id="path463" />
    <path
       inkscape:dxfpoint="1"
       style="stroke:#ff0000;fill:#ff0000"
       d="m 941.935397316,442.480843662 2.9375,-6.34375 0.8125,1.90625 6.84375,-6.84375 0,0 0.6875,0.6875 -6.84375,6.84375 1.90625,0.8125 z"
       id="path465" />
    <path
       inkscape:dxfpoint="1"
       style="stroke:#ff0000;fill:#ff0000"
       d="m 909.91347476,396.449329987 2.9375,-6.34375 0.8125,1.90625 6.84375,-6.84375 0,0 0.6875,0.6875 -6.84375,6.84375 1.90625,0.8125 z"
       id="path467" />
    <path
       inkscape:dxfpoint="1"
       style="stroke:#ff0000;fill:#ff0000"
       d="m 828.401895774,639.473171643 2.9375,-6.34375 0.8125,1.90625 6.84375,-6.84375 0,0 0.6875,0.6875 -6.84375,6.84375 1.90625,0.8125 z"
       id="path469" />
    <path
       inkscape:dxfpoint="1"
       style="stroke:#ff0000;fill:#ff0000"
       d="m 896.761452672,579.349705938 2.9375,-6.34375 0.8125,1.90625 6.84375,-6.84375 0,0 0.6875,0.6875 -6.84375,6.84375 1.90625,0.8125 z"
       id="path471" />
    <path
       inkscape:dxfpoint="1"
       style="stroke:#ff0000;fill:#ff0000"
       d="m 945.354390707,553.817823241 2.9375,-6.34375 0.8125,1.90625 6.84375,-6.84375 0,0 0.6875,0.6875 -6.84375,6.84375 1.90625,0.8125 z"
       id="path473" />
    <path
       inkscape:dxfpoint="1"
       style="stroke:#ff0000;fill:#ff0000"
       d="m 980.769582834,524.167894949 2.9375,-6.34375 0.8125,1.90625 6.84375,-6.84375 0,0 0.6875,0.6875 -6.84375,6.84375 1.90625,0.8125 z"
       id="path475" />
    <path
       inkscape:dxfpoint="1"
       style="stroke:#ff0000;fill:#ff0000"
       d="m 1008.77229289,552.994214122 2.9375,-6.34375 0.8125,1.90625 6.84375,-6.84375 0,0 0.6875,0.6875 -6.84375,6.84375 1.90625,0.8125 z"
       id="path477" />
    <path
       inkscape:dxfpoint="1"
       style="stroke:#ff0000;fill:#ff0000"
       d="m 1028.53891175,580.996924177 2.9375,-6.34375 0.8125,1.90625 6.84375,-6.84375 0,0 0.6875,0.6875 -6.84375,6.84375 1.90625,0.8125 z"
       id="path479" />
    <path
       inkscape:dxfpoint="1"
       style="stroke:#ff0000;fill:#ff0000"
       d="m 1040.06943942,608.999634231 2.9375,-6.34375 0.8125,1.90625 6.84375,-6.84375 0,0 0.6875,0.6875 -6.84375,6.84375 1.90625,0.8125 z"
       id="path481" />
    <path
       inkscape:dxfpoint="1"
       style="stroke:#ff0000;fill:#ff0000"
       d="m 969.239055165,727.599347402 2.9375,-6.34375 0.8125,1.90625 6.84375,-6.84375 0,0 0.6875,0.6875 -6.84375,6.84375 1.90625,0.8125 z"
       id="path483" />
    <path
       inkscape:dxfpoint="1"
       style="stroke:#ff0000;fill:#ff0000"
       d="m 997.241765219,708.656337659 2.9375,-6.34375 0.8125,1.90625 6.84375,-6.84375 0,0 0.6875,0.6875 -6.84375,6.84375 1.90625,0.8125 z"
       id="path485" />
    <path
       inkscape:dxfpoint="1"
       style="stroke:#ff0000;fill:#ff0000"
       d="m 908.105761145,757.474551574 2.9375,-6.34375 0.8125,1.90625 6.84375,-6.84375 0,0 0.6875,0.6875 -6.84375,6.84375 1.90625,0.8125 z"
       id="path487" />
    <path
       inkscape:dxfpoint="1"
       style="stroke:#ff0000;fill:#ff0000"
       d="m 887.769733509,719.852900448 2.9375,-6.34375 0.8125,1.90625 6.84375,-6.84375 0,0 0.6875,0.6875 -6.84375,6.84375 1.90625,0.8125 z"
       id="path489" />
    <path
       inkscape:dxfpoint="1"
       style="stroke:#ff0000;fill:#ff0000"
       d="m 865.40010311,698.50007143 2.9375,-6.34375 0.8125,1.90625 6.84375,-6.84375 0,0 0.6875,0.6875 -6.84375,6.84375 1.90625,0.8125 z"
       id="path491" />
    <path
       inkscape:dxfpoint="1"
       style="stroke:#ff0000;fill:#ff0000"
       d="m 844.047274092,663.92882445 2.9375,-6.34375 0.8125,1.90625 6.84375,-6.84375 0,0 0.6875,0.6875 -6.84375,6.84375 1.90625,0.8125 z"
       id="path493" />
    <path
       inkscape:dxfpoint="1"
       style="stroke:#ff0000;fill:#ff0000"
       d="m 1069.23071619,481.444634692 2.9375,-6.34375 0.8125,1.90625 6.84375,-6.84375 0,0 0.6875,0.6875 -6.84375,6.84375 1.90625,0.8125 z"
       id="path495" />
    <path
       inkscape:dxfpoint="1"
       style="stroke:#ff0000;fill:#ff0000"
       d="m 1151.59162811,419.419750404 2.9375,-6.34375 0.8125,1.90625 6.84375,-6.84375 0,0 0.6875,0.6875 -6.84375,6.84375 1.90625,0.8125 z"
       id="path497" />
    <path
       inkscape:dxfpoint="1"
       style="stroke:#ff0000;fill:#ff0000"
       d="m 1191.246882,401.117325532 2.9375,-6.34375 0.8125,1.90625 6.84375,-6.84375 0,0 0.6875,0.6875 -6.84375,6.84375 1.90625,0.8125 z"
       id="path499" />
    <path
       inkscape:dxfpoint="1"
       style="stroke:#ff0000;fill:#ff0000"
       d="m 972.501685636,367.032337801 2.9375,-6.34375 0.8125,1.90625 6.84375,-6.84375 0,0 0.6875,0.6875 -6.84375,6.84375 1.90625,0.8125 z"
       id="path501" />
    <path
       inkscape:dxfpoint="1"
       style="stroke:#ff0000;fill:#ff0000"
       d="m 994.871316035,400.5867834 2.9375,-6.34375 0.8125,1.90625 6.84375,-6.84375 0,0 0.6875,0.6875 -6.84375,6.84375 1.90625,0.8125 z"
       id="path503" />
    <path
       inkscape:dxfpoint="1"
       style="stroke:#ff0000;fill:#ff0000"
       d="m 978.998577728,301.879048312 2.9375,-6.34375 0.8125,1.90625 6.84375,-6.84375 0,0 0.6875,0.6875 -6.84375,6.84375 1.90625,0.8125 z"
       id="path505" />
    <path
       inkscape:dxfpoint="1"
       style="stroke:#ff0000;fill:#ff0000"
       d="m 1032.88905096,273.408609622 2.9375,-6.34375 0.8125,1.90625 6.84375,-6.84375 0,0 0.6875,0.6875 -6.84375,6.84375 1.90625,0.8125 z"
       id="path507" />
    <path
       inkscape:dxfpoint="1"
       style="stroke:#ff0000;fill:#ff0000"
       d="m 1139.65319605,324.248678711 2.9375,-6.34375 0.8125,1.90625 6.84375,-6.84375 0,0 0.6875,0.6875 -6.84375,6.84375 1.90625,0.8125 z"
       id="path509" />
    <path
       inkscape:dxfpoint="1"
       style="stroke:#ff0000;fill:#ff0000"
       d="m 1146.77080572,353.735918783 2.9375,-6.34375 0.8125,1.90625 6.84375,-6.84375 0,0 0.6875,0.6875 -6.84375,6.84375 1.90625,0.8125 z"
       id="path511" />
    <path
       inkscape:dxfpoint="1"
       style="stroke:#ff0000;fill:#ff0000"
       d="m 1130.50198361,363.9039326 2.9375,-6.34375 0.8125,1.90625 6.84375,-6.84375 0,0 0.6875,0.6875 -6.84375,6.84375 1.90625,0.8125 z"
       id="path513" />
    <path
       inkscape:dxfpoint="1"
       style="stroke:#ff0000;fill:#ff0000"
       d="m 1105.08194907,378.139151945 2.9375,-6.34375 0.8125,1.90625 6.84375,-6.84375 0,0 0.6875,0.6875 -6.84375,6.84375 1.90625,0.8125 z"
       id="path515" />
    <path
       inkscape:dxfpoint="1"
       style="stroke:#ff0000;fill:#ff0000"
       d="m 1086.7795242,389.323967145 2.9375,-6.34375 0.8125,1.90625 6.84375,-6.84375 0,0 0.6875,0.6875 -6.84375,6.84375 1.90625,0.8125 z"
       id="path517" />
    <path
       inkscape:dxfpoint="1"
       style="stroke:#ff0000;fill:#ff0000"
       d="m 590.071213214,474.311483175 2.9375,-6.34375 0.8125,1.90625 6.84375,-6.84375 0,0 0.6875,0.6875 -6.84375,6.84375 1.90625,0.8125 z"
       id="path519" />
    <path
       inkscape:dxfpoint="1"
       style="stroke:#ff0000;fill:#ff0000"
       d="m 608.45459868,481.752377292 2.9375,-6.34375 0.8125,1.90625 6.84375,-6.84375 0,0 0.6875,0.6875 -6.84375,6.84375 1.90625,0.8125 z"
       id="path521" />
    <path
       inkscape:dxfpoint="1"
       style="stroke:#ff0000;fill:#ff0000"
       d="m 643.908270649,462.931292172 2.9375,-6.34375 0.8125,1.90625 6.84375,-6.84375 0,0 0.6875,0.6875 -6.84375,6.84375 1.90625,0.8125 z"
       id="path523" />
    <path
       inkscape:dxfpoint="1"
       style="stroke:#ff0000;fill:#ff0000"
       d="m 633.841178608,388.960050656 2.9375,-6.34375 0.8125,1.90625 6.84375,-6.84375 0,0 0.6875,0.6875 -6.84375,6.84375 1.90625,0.8125 z"
       id="path525" />
    <path
       inkscape:dxfpoint="1"
       style="stroke:#ff0000;fill:#ff0000"
       d="m 573.438626365,437.982411898 2.9375,-6.34375 0.8125,1.90625 6.84375,-6.84375 0,0 0.6875,0.6875 -6.84375,6.84375 1.90625,0.8125 z"
       id="path527" />
    <path
       inkscape:dxfpoint="1"
       style="stroke:#ff0000;fill:#ff0000"
       d="m 704.434472175,269.117333936 2.9375,-6.34375 0.8125,1.90625 6.84375,-6.84375 0,0 0.6875,0.6875 -6.84375,6.84375 1.90625,0.8125 z"
       id="path529" />
    <path
       inkscape:dxfpoint="1"
       style="stroke:#ff0000;fill:#ff0000"
       d="m 737.790641504,273.120074256 2.9375,-6.34375 0.8125,1.90625 6.84375,-6.84375 0,0 0.6875,0.6875 -6.84375,6.84375 1.90625,0.8125 z"
       id="path531" />
    <path
       inkscape:dxfpoint="1"
       style="stroke:#ff0000;fill:#ff0000"
       d="m 777.150921313,313.814600838 2.9375,-6.34375 0.8125,1.90625 6.84375,-6.84375 0,0 0.6875,0.6875 -6.84375,6.84375 1.90625,0.8125 z"
       id="path533" />
    <path
       inkscape:dxfpoint="1"
       style="stroke:#ff0000;fill:#ff0000"
       d="m 793.161882591,330.492685502 2.9375,-6.34375 0.8125,1.90625 6.84375,-6.84375 0,0 0.6875,0.6875 -6.84375,6.84375 1.90625,0.8125 z"
       id="path535" />
    <path
       inkscape:dxfpoint="1"
       style="stroke:#ff0000;fill:#ff0000"
       d="m 809.172843869,353.174880646 2.9375,-6.34375 0.8125,1.90625 6.84375,-6.84375 0,0 0.6875,0.6875 -6.84375,6.84375 1.90625,0.8125 z"
       id="path537" />
    <path
       inkscape:dxfpoint="1"
       style="stroke:#ff0000;fill:#ff0000"
       d="m 782.590744808,369.241747531 2.9375,-6.34375 0.8125,1.90625 6.84375,-6.84375 0,0 0.6875,0.6875 -6.84375,6.84375 1.90625,0.8125 z"
       id="path539" />
    <path
       inkscape:dxfpoint="1"
       style="stroke:#ff0000;fill:#ff0000"
       d="m 753.164197074,389.095803834 2.9375,-6.34375 0.8125,1.90625 6.84375,-6.84375 0,0 0.6875,0.6875 -6.84375,6.84375 1.90625,0.8125 z"
       id="path541" />
    <path
       inkscape:dxfpoint="1"
       style="stroke:#ff0000;fill:#ff0000"
       d="m 728.13335943,406.376032707 2.9375,-6.34375 0.8125,1.90625 6.84375,-6.84375 0,0 0.6875,0.6875 -6.84375,6.84375 1.90625,0.8125 z"
       id="path543" />
    <path
       inkscape:dxfpoint="1"
       style="stroke:#ff0000;fill:#ff0000"
       d="m 678.464711154,366.934714578 2.9375,-6.34375 0.8125,1.90625 6.84375,-6.84375 0,0 0.6875,0.6875 -6.84375,6.84375 1.90625,0.8125 z"
       id="path545" />
    <path
       inkscape:dxfpoint="1"
       style="stroke:#ff0000;fill:#ff0000"
       d="m 816.173782774,204.946052844 2.9375,-6.34375 0.8125,1.90625 6.84375,-6.84375 0,0 0.6875,0.6875 -6.84375,6.84375 1.90625,0.8125 z"
       id="path547" />
    <path
       inkscape:dxfpoint="1"
       style="stroke:#ff0000;fill:#ff0000"
       d="m 846.19433517,205.61317623 2.9375,-6.34375 0.8125,1.90625 6.84375,-6.84375 0,0 0.6875,0.6875 -6.84375,6.84375 1.90625,0.8125 z"
       id="path549" />
    <path
       inkscape:dxfpoint="1"
       style="stroke:#ff0000;fill:#ff0000"
       d="m 902.232699643,293.006339873 2.9375,-6.34375 0.8125,1.90625 6.84375,-6.84375 0,0 0.6875,0.6875 -6.84375,6.84375 1.90625,0.8125 z"
       id="path551" />
    <path
       inkscape:dxfpoint="1"
       style="stroke:#ff0000;fill:#ff0000"
       d="m 854.199815809,317.02278179 2.9375,-6.34375 0.8125,1.90625 6.84375,-6.84375 0,0 0.6875,0.6875 -6.84375,6.84375 1.90625,0.8125 z"
       id="path553" />
    <path
       inkscape:dxfpoint="1"
       style="stroke:#ff0000;fill:#ff0000"
       d="m 777.480626352,228.295371374 2.9375,-6.34375 0.8125,1.90625 6.84375,-6.84375 0,0 0.6875,0.6875 -6.84375,6.84375 1.90625,0.8125 z"
       id="path555" />
    <path
       inkscape:dxfpoint="1"
       style="stroke:#ff0000;fill:#ff0000"
       d="m 1010.45917035,287.088031212 2.9375,-6.34375 0.8125,1.90625 6.84375,-6.84375 0,0 0.6875,0.6875 -6.84375,6.84375 1.90625,0.8125 z"
       id="path557" />
    <path
       inkscape:dxfpoint="1"
       style="stroke:#ff0000;fill:#ff0000"
       d="m 1044.92013951,265.262750748 2.9375,-6.34375 0.8125,1.90625 6.84375,-6.84375 0,0 0.6875,0.6875 -6.84375,6.84375 1.90625,0.8125 z"
       id="path559" />
    <path
       inkscape:dxfpoint="1"
       style="stroke:#ff0000;fill:#ff0000"
       d="m 1084.26307929,247.457916685 2.9375,-6.34375 0.8125,1.90625 6.84375,-6.84375 0,0 0.6875,0.6875 -6.84375,6.84375 1.90625,0.8125 z"
       id="path561" />
    <path
       inkscape:dxfpoint="1"
       style="stroke:#ff0000;fill:#ff0000"
       d="m 1112.11902936,283.354759554 2.9375,-6.34375 0.8125,1.90625 6.84375,-6.84375 0,0 0.6875,0.6875 -6.84375,6.84375 1.90625,0.8125 z"
       id="path563" />
    <path
       inkscape:dxfpoint="1"
       style="stroke:#ff0000;fill:#ff0000"
       d="m 1130.90497159,212.301222453 2.9375,-6.34375 0.8125,1.90625 6.84375,-6.84375 0,0 0.6875,0.6875 -6.84375,6.84375 1.90625,0.8125 z"
       id="path565" />
    <path
       inkscape:dxfpoint="1"
       style="stroke:#ff0000;fill:#ff0000"
       d="m 1154.10305325,254.320389232 2.9375,-6.34375 0.8125,1.90625 6.84375,-6.84375 0,0 0.6875,0.6875 -6.84375,6.84375 1.90625,0.8125 z"
       id="path567" />
    <path
       inkscape:dxfpoint="1"
       style="stroke:#ff0000;fill:#ff0000"
       d="m 1172.04873906,282.770866738 2.9375,-6.34375 0.8125,1.90625 6.84375,-6.84375 0,0 0.6875,0.6875 -6.84375,6.84375 1.90625,0.8125 z"
       id="path569" />
    <path
       inkscape:dxfpoint="1"
       style="stroke:#ff0000;fill:#ff0000"
       d="m 1192.62062279,311.659043898 2.9375,-6.34375 0.8125,1.90625 6.84375,-6.84375 0,0 0.6875,0.6875 -6.84375,6.84375 1.90625,0.8125 z"
       id="path571" />
    <path
       inkscape:dxfpoint="1"
       style="stroke:#ff0000;fill:#ff0000"
       d="m 1217.94113682,151.287667911 2.9375,-6.34375 0.8125,1.90625 6.84375,-6.84375 0,0 0.6875,0.6875 -6.84375,6.84375 1.90625,0.8125 z"
       id="path573" />
    <path
       inkscape:dxfpoint="1"
       style="stroke:#ff0000;fill:#ff0000"
       d="m 747.780418404,-48.3291791866 2.9375,-6.34375 0.8125,1.90625 6.84375,-6.84375 0,0 0.6875,0.6875 -6.84375,6.84375 1.90625,0.8125 z"
       id="path575" />
    <path
       inkscape:dxfpoint="1"
       style="stroke:#ff0000;fill:#ff0000"
       d="m 757.946841743,-22.364780565 2.9375,-6.34375 0.8125,1.90625 6.84375,-6.84375 0,0 0.6875,0.6875 -6.84375,6.84375 1.90625,0.8125 z"
       id="path577" />
    <path
       inkscape:dxfpoint="1"
       style="stroke:#ff0000;fill:#ff0000"
       d="m 787.300270753,16.328375857 2.9375,-6.34375 0.8125,1.90625 6.84375,-6.84375 0,0 0.6875,0.6875 -6.84375,6.84375 1.90625,0.8125 z"
       id="path579" />
    <path
       inkscape:dxfpoint="1"
       style="stroke:#ff0000;fill:#ff0000"
       d="m 801.976985258,42.3461879339 2.9375,-6.34375 0.8125,1.90625 6.84375,-6.84375 0,0 0.6875,0.6875 -6.84375,6.84375 1.90625,0.8125 z"
       id="path581" />
    <path
       inkscape:dxfpoint="1"
       style="stroke:#ff0000;fill:#ff0000"
       d="m 820.656440082,65.0283830779 2.9375,-6.34375 0.8125,1.90625 6.84375,-6.84375 0,0 0.6875,0.6875 -6.84375,6.84375 1.90625,0.8125 z"
       id="path583" />
    <path
       inkscape:dxfpoint="1"
       style="stroke:#ff0000;fill:#ff0000"
       d="m 838.001648134,94.3818120877 2.9375,-6.34375 0.8125,1.90625 6.84375,-6.84375 0,0 0.6875,0.6875 -6.84375,6.84375 1.90625,0.8125 z"
       id="path585" />
    <path
       inkscape:dxfpoint="1"
       style="stroke:#ff0000;fill:#ff0000"
       d="m 853.345486025,112.394143526 2.9375,-6.34375 0.8125,1.90625 6.84375,-6.84375 0,0 0.6875,0.6875 -6.84375,6.84375 1.90625,0.8125 z"
       id="path587" />
    <path
       inkscape:dxfpoint="1"
       style="stroke:#ff0000;fill:#ff0000"
       d="m 872.692064236,155.757163654 2.9375,-6.34375 0.8125,1.90625 6.84375,-6.84375 0,0 0.6875,0.6875 -6.84375,6.84375 1.90625,0.8125 z"
       id="path589" />
    <path
       inkscape:dxfpoint="1"
       style="stroke:#ff0000;fill:#ff0000"
       d="m 892.33999476,179.226566427 2.9375,-6.34375 0.8125,1.90625 6.84375,-6.84375 0,0 0.6875,0.6875 -6.84375,6.84375 1.90625,0.8125 z"
       id="path591" />
    <path
       inkscape:dxfpoint="1"
       style="stroke:#ff0000;fill:#ff0000"
       d="m 912.106613622,208.052885601 2.9375,-6.34375 0.8125,1.90625 6.84375,-6.84375 0,0 0.6875,0.6875 -6.84375,6.84375 1.90625,0.8125 z"
       id="path593" />
    <path
       inkscape:dxfpoint="1"
       style="stroke:#ff0000;fill:#ff0000"
       d="m 942.580151034,254.998605398 2.9375,-6.34375 0.8125,1.90625 6.84375,-6.84375 0,0 0.6875,0.6875 -6.84375,6.84375 1.90625,0.8125 z"
       id="path595" />
    <path
       inkscape:dxfpoint="1"
       style="stroke:#ff0000;fill:#ff0000"
       d="m 976.348124923,240.997250371 2.9375,-6.34375 0.8125,1.90625 6.84375,-6.84375 0,0 0.6875,0.6875 -6.84375,6.84375 1.90625,0.8125 z"
       id="path597" />
    <path
       inkscape:dxfpoint="1"
       style="stroke:#ff0000;fill:#ff0000"
       d="m 1031.52993591,199.816794409 2.9375,-6.34375 0.8125,1.90625 6.84375,-6.84375 0,0 0.6875,0.6875 -6.84375,6.84375 1.90625,0.8125 z"
       id="path599" />
    <path
       inkscape:dxfpoint="1"
       style="stroke:#ff0000;fill:#ff0000"
       d="m 1052.94377301,193.227921455 2.9375,-6.34375 0.8125,1.90625 6.84375,-6.84375 0,0 0.6875,0.6875 -6.84375,6.84375 1.90625,0.8125 z"
       id="path601" />
    <path
       inkscape:dxfpoint="1"
       style="stroke:#ff0000;fill:#ff0000"
       d="m 1007.1286683,134.52840772 2.9375,-6.34375 0.8125,1.90625 6.84375,-6.84375 0,0 0.6875,0.6875 -6.84375,6.84375 1.90625,0.8125 z"
       id="path603" />
    <path
       inkscape:dxfpoint="1"
       style="stroke:#ff0000;fill:#ff0000"
       d="m 993.119077184,104.507855324 2.9375,-6.34375 0.8125,1.90625 6.84375,-6.84375 0,0 0.6875,0.6875 -6.84375,6.84375 1.90625,0.8125 z"
       id="path605" />
    <path
       inkscape:dxfpoint="1"
       style="stroke:#ff0000;fill:#ff0000"
       d="m 983.112226386,73.1530561541 2.9375,-6.34375 0.8125,1.90625 6.84375,-6.84375 0,0 0.6875,0.6875 -6.84375,6.84375 1.90625,0.8125 z"
       id="path607" />
    <path
       inkscape:dxfpoint="1"
       style="stroke:#ff0000;fill:#ff0000"
       d="m 960.430031242,39.7968868248 2.9375,-6.34375 0.8125,1.90625 6.84375,-6.84375 0,0 0.6875,0.6875 -6.84375,6.84375 1.90625,0.8125 z"
       id="path609" />
    <path
       inkscape:dxfpoint="1"
       style="stroke:#ff0000;fill:#ff0000"
       d="m 941.083453031,16.4475682942 2.9375,-6.34375 0.8125,1.90625 6.84375,-6.84375 0,0 0.6875,0.6875 -6.84375,6.84375 1.90625,0.8125 z"
       id="path611" />
    <path
       inkscape:dxfpoint="1"
       style="stroke:#ff0000;fill:#ff0000"
       d="m 913.064270794,-22.2455881278 2.9375,-6.34375 0.8125,1.90625 6.84375,-6.84375 0,0 0.6875,0.6875 -6.84375,6.84375 1.90625,0.8125 z"
       id="path613" />
    <path
       inkscape:dxfpoint="1"
       style="stroke:#ff0000;fill:#ff0000"
       d="m 899.054679676,-54.267510684 2.9375,-6.34375 0.8125,1.90625 6.84375,-6.84375 0,0 0.6875,0.6875 -6.84375,6.84375 1.90625,0.8125 z"
       id="path615" />
    <path
       inkscape:dxfpoint="1"
       style="stroke:#ff0000;fill:#ff0000"
       d="m 868.526084558,-99.6918293898 2.9375,-6.34375 0.8125,1.90625 6.84375,-6.84375 0,0 0.6875,0.6875 -6.84375,6.84375 1.90625,0.8125 z"
       id="path617" />
    <path
       inkscape:dxfpoint="1"
       style="stroke:#ff0000;fill:#ff0000"
       d="m 839.200207744,-101.442628006 2.9375,-6.34375 0.8125,1.90625 6.84375,-6.84375 0,0 0.6875,0.6875 -6.84375,6.84375 1.90625,0.8125 z"
       id="path619" />
    <path
       inkscape:dxfpoint="1"
       style="stroke:#ff0000;fill:#ff0000"
       d="m 811.187429891,-86.9985394255 2.9375,-6.34375 0.8125,1.90625 6.84375,-6.84375 0,0 0.6875,0.6875 -6.84375,6.84375 1.90625,0.8125 z"
       id="path621" />
    <path
       inkscape:dxfpoint="1"
       style="stroke:#ff0000;fill:#ff0000"
       d="m 784.050051347,-69.4905532679 2.9375,-6.34375 0.8125,1.90625 6.84375,-6.84375 0,0 0.6875,0.6875 -6.84375,6.84375 1.90625,0.8125 z"
       id="path623" />
    <path
       inkscape:dxfpoint="1"
       style="stroke:#ff0000;fill:#ff0000"
       d="m 910.424548949,-147.219004047 2.9375,-6.34375 0.8125,1.90625 6.84375,-6.84375 0,0 0.6875,0.6875 -6.84375,6.84375 1.90625,0.8125 z"
       id="path625" />
    <path
       inkscape:dxfpoint="1"
       style="stroke:#ff0000;fill:#ff0000"
       d="m 918.530098096,-116.958287231 2.9375,-6.34375 0.8125,1.90625 6.84375,-6.84375 0,0 0.6875,0.6875 -6.84375,6.84375 1.90625,0.8125 z"
       id="path627" />
    <path
       inkscape:dxfpoint="1"
       style="stroke:#ff0000;fill:#ff0000"
       d="m 943.38711548,-83.4553507571 2.9375,-6.34375 0.8125,1.90625 6.84375,-6.84375 0,0 0.6875,0.6875 -6.84375,6.84375 1.90625,0.8125 z"
       id="path629" />
    <path
       inkscape:dxfpoint="1"
       style="stroke:#ff0000;fill:#ff0000"
       d="m 976.349682011,-34.8220558749 2.9375,-6.34375 0.8125,1.90625 6.84375,-6.84375 0,0 0.6875,0.6875 -6.84375,6.84375 1.90625,0.8125 z"
       id="path631" />
    <path
       inkscape:dxfpoint="1"
       style="stroke:#ff0000;fill:#ff0000"
       d="m 1010.3790073,24.5824005513 2.9375,-6.34375 0.8125,1.90625 6.84375,-6.84375 0,0 0.6875,0.6875 -6.84375,6.84375 1.90625,0.8125 z"
       id="path633" />
    <path
       inkscape:dxfpoint="1"
       style="stroke:#ff0000;fill:#ff0000"
       d="m 1036.13190073,65.2893874302 2.9375,-6.34375 0.8125,1.90625 6.84375,-6.84375 0,0 0.6875,0.6875 -6.84375,6.84375 1.90625,0.8125 z"
       id="path635" />
    <path
       inkscape:dxfpoint="1"
       style="stroke:#ff0000;fill:#ff0000"
       d="m 1056.67929036,91.578926863 2.9375,-6.34375 0.8125,1.90625 6.84375,-6.84375 0,0 0.6875,0.6875 -6.84375,6.84375 1.90625,0.8125 z"
       id="path637" />
    <path
       inkscape:dxfpoint="1"
       style="stroke:#ff0000;fill:#ff0000"
       d="m 1105.2019679,151.491945466 2.9375,-6.34375 0.8125,1.90625 6.84375,-6.84375 0,0 0.6875,0.6875 -6.84375,6.84375 1.90625,0.8125 z"
       id="path639" />
    <path
       inkscape:dxfpoint="1"
       style="stroke:#ff0000;fill:#ff0000"
       d="m 1162.28237977,114.265589898 2.9375,-6.34375 0.8125,1.90625 6.84375,-6.84375 0,0 0.6875,0.6875 -6.84375,6.84375 1.90625,0.8125 z"
       id="path641" />
    <path
       inkscape:dxfpoint="1"
       style="stroke:#ff0000;fill:#ff0000"
       d="m 1187.89969988,51.3588394341 2.9375,-6.34375 0.8125,1.90625 6.84375,-6.84375 0,0 0.6875,0.6875 -6.84375,6.84375 1.90625,0.8125 z"
       id="path643" />
    <path
       inkscape:dxfpoint="1"
       style="stroke:#ff0000;fill:#ff0000"
       d="m 1163.43666622,16.6142409044 2.9375,-6.34375 0.8125,1.90625 6.84375,-6.84375 0,0 0.6875,0.6875 -6.84375,6.84375 1.90625,0.8125 z"
       id="path645" />
    <path
       inkscape:dxfpoint="1"
       style="stroke:#ff0000;fill:#ff0000"
       d="m 1143.58260992,-9.26693963308 2.9375,-6.34375 0.8125,1.90625 6.84375,-6.84375 0,0 0.6875,0.6875 -6.84375,6.84375 1.90625,0.8125 z"
       id="path647" />
    <path
       inkscape:dxfpoint="1"
       style="stroke:#ff0000;fill:#ff0000"
       d="m 1114.00571926,-55.727131452 2.9375,-6.34375 0.8125,1.90625 6.84375,-6.84375 0,0 0.6875,0.6875 -6.84375,6.84375 1.90625,0.8125 z"
       id="path649" />
    <path
       inkscape:dxfpoint="1"
       style="stroke:#ff0000;fill:#ff0000"
       d="m 1093.68860995,-84.0844118209 2.9375,-6.34375 0.8125,1.90625 6.84375,-6.84375 0,0 0.6875,0.6875 -6.84375,6.84375 1.90625,0.8125 z"
       id="path651" />
    <path
       inkscape:dxfpoint="1"
       style="stroke:#ff0000;fill:#ff0000"
       d="m 1079.85868396,-120.106061345 2.9375,-6.34375 0.8125,1.90625 6.84375,-6.84375 0,0 0.6875,0.6875 -6.84375,6.84375 1.90625,0.8125 z"
       id="path653" />
    <path
       inkscape:dxfpoint="1"
       style="stroke:#ff0000;fill:#ff0000"
       d="m 1055.00166658,-150.907148103 2.9375,-6.34375 0.8125,1.90625 6.84375,-6.84375 0,0 0.6875,0.6875 -6.84375,6.84375 1.90625,0.8125 z"
       id="path655" />
    <path
       inkscape:dxfpoint="1"
       style="stroke:#ff0000;fill:#ff0000"
       d="m 1042.71267325,-182.356674172 2.9375,-6.34375 0.8125,1.90625 6.84375,-6.84375 0,0 0.6875,0.6875 -6.84375,6.84375 1.90625,0.8125 z"
       id="path657" />
    <path
       inkscape:dxfpoint="1"
       style="stroke:#ff0000;fill:#ff0000"
       d="m 972.053197008,-194.33489259 2.9375,-6.34375 0.8125,1.90625 6.84375,-6.84375 0,0 0.6875,0.6875 -6.84375,6.84375 1.90625,0.8125 z"
       id="path659" />
    <path
       inkscape:dxfpoint="1"
       style="stroke:#ff0000;fill:#ff0000"
       d="m 944.044796153,-175.189909727 2.9375,-6.34375 0.8125,1.90625 6.84375,-6.84375 0,0 0.6875,0.6875 -6.84375,6.84375 1.90625,0.8125 z"
       id="path661" />
    <path
       inkscape:dxfpoint="1"
       style="stroke:#ff0000;fill:#ff0000"
       d="m 1081.98290245,-203.939967204 2.9375,-6.34375 0.8125,1.90625 6.84375,-6.84375 0,0 0.6875,0.6875 -6.84375,6.84375 1.90625,0.8125 z"
       id="path663" />
    <path
       inkscape:dxfpoint="1"
       style="stroke:#ff0000;fill:#ff0000"
       d="m 1101.74952131,-179.231693626 2.9375,-6.34375 0.8125,1.90625 6.84375,-6.84375 0,0 0.6875,0.6875 -6.84375,6.84375 1.90625,0.8125 z"
       id="path665" />
    <path
       inkscape:dxfpoint="1"
       style="stroke:#ff0000;fill:#ff0000"
       d="m 1114.1036581,-161.112293003 2.9375,-6.34375 0.8125,1.90625 6.84375,-6.84375 0,0 0.6875,0.6875 -6.84375,6.84375 1.90625,0.8125 z"
       id="path667" />
    <path
       inkscape:dxfpoint="1"
       style="stroke:#ff0000;fill:#ff0000"
       d="m 1123.16335841,-142.16928326 2.9375,-6.34375 0.8125,1.90625 6.84375,-6.84375 0,0 0.6875,0.6875 -6.84375,6.84375 1.90625,0.8125 z"
       id="path669" />
    <path
       inkscape:dxfpoint="1"
       style="stroke:#ff0000;fill:#ff0000"
       d="m 1141.28275903,-119.931837041 2.9375,-6.34375 0.8125,1.90625 6.84375,-6.84375 0,0 0.6875,0.6875 -6.84375,6.84375 1.90625,0.8125 z"
       id="path671" />
    <path
       inkscape:dxfpoint="1"
       style="stroke:#ff0000;fill:#ff0000"
       d="m 1158.57855054,-92.7527361059 2.9375,-6.34375 0.8125,1.90625 6.84375,-6.84375 0,0 0.6875,0.6875 -6.84375,6.84375 1.90625,0.8125 z"
       id="path673" />
    <path
       inkscape:dxfpoint="1"
       style="stroke:#ff0000;fill:#ff0000"
       d="m 1170.10907821,-74.6333354825 2.9375,-6.34375 0.8125,1.90625 6.84375,-6.84375 0,0 0.6875,0.6875 -6.84375,6.84375 1.90625,0.8125 z"
       id="path675" />
    <path
       inkscape:dxfpoint="1"
       style="stroke:#ff0000;fill:#ff0000"
       d="m 1181.63960588,-60.6319804554 2.9375,-6.34375 0.8125,1.90625 6.84375,-6.84375 0,0 0.6875,0.6875 -6.84375,6.84375 1.90625,0.8125 z"
       id="path677" />
    <path
       inkscape:dxfpoint="1"
       style="stroke:#ff0000;fill:#ff0000"
       d="m 1198.93539738,-29.3348339242 2.9375,-6.34375 0.8125,1.90625 6.84375,-6.84375 0,0 0.6875,0.6875 -6.84375,6.84375 1.90625,0.8125 z"
       id="path679" />
    <path
       inkscape:dxfpoint="1"
       style="stroke:#ff0000;fill:#ff0000"
       d="m 1089.49700688,-540.184073848 2.9375,-6.34375 0.8125,1.90625 6.84375,-6.84375 0,0 0.6875,0.6875 -6.84375,6.84375 1.90625,0.8125 z"
       id="path681" />
    <path
       inkscape:dxfpoint="1"
       style="stroke:#ff0000;fill:#ff0000"
       d="m 1105.96918927,-513.828582033 2.9375,-6.34375 0.8125,1.90625 6.84375,-6.84375 0,0 0.6875,0.6875 -6.84375,6.84375 1.90625,0.8125 z"
       id="path683" />
    <path
       inkscape:dxfpoint="1"
       style="stroke:#ff0000;fill:#ff0000"
       d="m 1125.73580813,-485.002262859 2.9375,-6.34375 0.8125,1.90625 6.84375,-6.84375 0,0 0.6875,0.6875 -6.84375,6.84375 1.90625,0.8125 z"
       id="path685" />
    <path
       inkscape:dxfpoint="1"
       style="stroke:#ff0000;fill:#ff0000"
       d="m 1153.73851818,-451.23428897 2.9375,-6.34375 0.8125,1.90625 6.84375,-6.84375 0,0 0.6875,0.6875 -6.84375,6.84375 1.90625,0.8125 z"
       id="path687" />
    <path
       inkscape:dxfpoint="1"
       style="stroke:#ff0000;fill:#ff0000"
       d="m 1177.62318264,-401.817741815 2.9375,-6.34375 0.8125,1.90625 6.84375,-6.84375 0,0 0.6875,0.6875 -6.84375,6.84375 1.90625,0.8125 z"
       id="path689" />
    <path
       inkscape:dxfpoint="1"
       style="stroke:#ff0000;fill:#ff0000"
       d="m 1032.55404352,-327.920242458 2.9375,-6.34375 0.8125,1.90625 6.84375,-6.84375 0,0 0.6875,0.6875 -6.84375,6.84375 1.90625,0.8125 z"
       id="path691" />
    <path
       inkscape:dxfpoint="1"
       style="stroke:#ff0000;fill:#ff0000"
       d="m 1109.83094854,-409.264353 2.9375,-6.34375 0.8125,1.90625 6.84375,-6.84375 0,0 0.6875,0.6875 -6.84375,6.84375 1.90625,0.8125 z"
       id="path693" />
    <path
       inkscape:dxfpoint="1"
       style="stroke:#ff0000;fill:#ff0000"
       d="m 807.827069246,730.03726909 2.9375,-6.34375 0.8125,1.90625 6.84375,-6.84375 0,0 0.6875,0.6875 -6.84375,6.84375 1.90625,0.8125 z"
       id="path695" />
    <path
       inkscape:dxfpoint="1"
       style="stroke:#ff0000;fill:#ff0000"
       d="m 587.959648606,-319.853127919 2.9375,-6.34375 0.8125,1.90625 6.84375,-6.84375 0,0 0.6875,0.6875 -6.84375,6.84375 1.90625,0.8125 z"
       id="path697" />
    <path
       inkscape:dxfpoint="1"
       style="stroke:#ff0000;fill:#ff0000"
       d="m 645.725714962,-499.482978411 2.9375,-6.34375 0.8125,1.90625 6.84375,-6.84375 0,0 0.6875,0.6875 -6.84375,6.84375 1.90625,0.8125 z"
       id="path699" />
    <path
       inkscape:dxfpoint="1"
       style="stroke:#ff0000;fill:#ff0000"
       d="m 726.914623771,-484.592436184 2.9375,-6.34375 0.8125,1.90625 6.84375,-6.84375 0,0 0.6875,0.6875 -6.84375,6.84375 1.90625,0.8125 z"
       id="path701" />
    <path
       inkscape:dxfpoint="1"
       style="stroke:#ff0000;fill:#ff0000"
       d="m 802.749555456,-459.503951657 2.9375,-6.34375 0.8125,1.90625 6.84375,-6.84375 0,0 0.6875,0.6875 -6.84375,6.84375 1.90625,0.8125 z"
       id="path703" />
    <path
       inkscape:dxfpoint="1"
       style="stroke:#ff0000;fill:#ff0000"
       d="m 942.19203394,321.735009834 2.9375,-6.34375 0.8125,1.90625 6.84375,-6.84375 0,0 0.6875,0.6875 -6.84375,6.84375 1.90625,0.8125 z"
       id="path705" />
    <path
       inkscape:dxfpoint="1"
       style="stroke:#ff0000;fill:#ff0000"
       d="m 1189.43931576,-265.410672047 2.9375,-6.34375 0.8125,1.90625 6.84375,-6.84375 0,0 0.6875,0.6875 -6.84375,6.84375 1.90625,0.8125 z"
       id="path707" />
  </g>
</svg>
